<svg width="18" height="18" viewBox="0 0 18 18" fill="none" xmlns="http://www.w3.org/2000/svg">
<mask id="mask0_431_2677" style="mask-type:alpha" maskUnits="userSpaceOnUse" x="0" y="0" width="18" height="18">
<rect width="18" height="16" fill="#D9D9D9"/>
</mask>
<g mask="url(#mask0_431_2677)">
<path d="M4.5 17.25V11.0813L2.0625 7.125L5.53125 1.5H12.4688L15.9375 7.125L13.5 11.0813V17.25L9 15.75L4.5 17.25ZM6 15.1688L9 14.175L12 15.1688V12.75H6V15.1688ZM6.375 3L3.825 7.125L6.375 11.25H11.625L14.175 7.125L11.625 3H6.375ZM8.2125 10.1812L5.55 7.5375L6.61875 6.46875L8.2125 8.0625L11.3813 4.875L12.45 5.925L8.2125 10.1812Z" fill="#088E48"/>
</g>
</svg>