<svg width="60" height="60" viewBox="0 0 60 60" fill="none" xmlns="http://www.w3.org/2000/svg">
<path d="M0 30C0 13.4315 13.4315 0 30 0C46.5685 0 60 13.4315 60 30C60 46.5685 46.5685 60 30 60C13.4315 60 0 46.5685 0 30Z" fill="#088E48"/>
<mask id="mask0_182_658" style="mask-type:alpha" maskUnits="userSpaceOnUse" x="14" y="14" width="32" height="32">
<rect x="14" y="14" width="32" height="32" fill="#D9D9D9"/>
</mask>
<g mask="url(#mask0_182_658)">
<path d="M20.6667 42C19.9333 42 19.3056 41.7389 18.7833 41.2167C18.2611 40.6945 18 40.0667 18 39.3334V20.6667C18 19.9334 18.2611 19.3056 18.7833 18.7834C19.3056 18.2612 19.9333 18 20.6667 18H26.2667C26.5556 17.2 27.0389 16.5556 27.7167 16.0667C28.3944 15.5778 29.1556 15.3334 30 15.3334C30.8444 15.3334 31.6056 15.5778 32.2833 16.0667C32.9611 16.5556 33.4444 17.2 33.7333 18H39.3333C40.0667 18 40.6944 18.2612 41.2167 18.7834C41.7389 19.3056 42 19.9334 42 20.6667V39.3334C42 40.0667 41.7389 40.6945 41.2167 41.2167C40.6944 41.7389 40.0667 42 39.3333 42H20.6667ZM20.6667 39.3334H39.3333V20.6667H20.6667V39.3334ZM23.3333 36.6667H32.6667V34H23.3333V36.6667ZM23.3333 31.3334H36.6667V28.6667H23.3333V31.3334ZM23.3333 26H36.6667V23.3334H23.3333V26ZM30 19.6667C30.2889 19.6667 30.5278 19.5723 30.7167 19.3834C30.9056 19.1945 31 18.9556 31 18.6667C31 18.3778 30.9056 18.1389 30.7167 17.95C30.5278 17.7612 30.2889 17.6667 30 17.6667C29.7111 17.6667 29.4722 17.7612 29.2833 17.95C29.0944 18.1389 29 18.3778 29 18.6667C29 18.9556 29.0944 19.1945 29.2833 19.3834C29.4722 19.5723 29.7111 19.6667 30 19.6667Z" fill="white"/>
</g>
</svg>
