<svg width="60" height="60" viewBox="0 0 60 60" fill="none" xmlns="http://www.w3.org/2000/svg">
<path d="M0 30C0 13.4315 13.4315 0 30 0C46.5685 0 60 13.4315 60 30C60 46.5685 46.5685 60 30 60C13.4315 60 0 46.5685 0 30Z" fill="#088E48"/>
<mask id="mask0_182_650" style="mask-type:alpha" maskUnits="userSpaceOnUse" x="14" y="14" width="32" height="32">
<rect x="14" y="14" width="32" height="32" fill="#D9D9D9"/>
</mask>
<g mask="url(#mask0_182_650)">
<path d="M15.3333 40.6667V35.3334C15.3333 34.5778 15.5944 33.9445 16.1166 33.4334C16.6389 32.9223 17.2666 32.6667 18 32.6667H22.3666C22.8111 32.6667 23.2333 32.7778 23.6333 33C24.0333 33.2223 24.3555 33.5223 24.6 33.9C25.2444 34.7667 26.0389 35.4445 26.9833 35.9334C27.9278 36.4223 28.9333 36.6667 30 36.6667C31.0889 36.6667 32.1055 36.4223 33.05 35.9334C33.9944 35.4445 34.7778 34.7667 35.4 33.9C35.6889 33.5223 36.0278 33.2223 36.4166 33C36.8055 32.7778 37.2111 32.6667 37.6333 32.6667H42C42.7555 32.6667 43.3889 32.9223 43.9 33.4334C44.4111 33.9445 44.6666 34.5778 44.6666 35.3334V40.6667H35.3333V37.6334C34.5555 38.1889 33.7166 38.6112 32.8166 38.9C31.9166 39.1889 30.9778 39.3334 30 39.3334C29.0444 39.3334 28.1111 39.1834 27.2 38.8834C26.2889 38.5834 25.4444 38.1556 24.6666 37.6V40.6667H15.3333ZM30 35.3334C29.1555 35.3334 28.3555 35.1389 27.6 34.75C26.8444 34.3612 26.2111 33.8223 25.7 33.1334C25.3222 32.5778 24.85 32.1389 24.2833 31.8167C23.7166 31.4945 23.1 31.3334 22.4333 31.3334C22.9222 30.5112 23.9555 29.8612 25.5333 29.3834C27.1111 28.9056 28.6 28.6667 30 28.6667C31.4 28.6667 32.8889 28.9056 34.4666 29.3834C36.0444 29.8612 37.0778 30.5112 37.5666 31.3334C36.9222 31.3334 36.3111 31.4945 35.7333 31.8167C35.1555 32.1389 34.6778 32.5778 34.3 33.1334C33.8111 33.8445 33.1889 34.3889 32.4333 34.7667C31.6778 35.1445 30.8666 35.3334 30 35.3334ZM19.3333 31.3334C18.2222 31.3334 17.2778 30.9445 16.5 30.1667C15.7222 29.3889 15.3333 28.4445 15.3333 27.3334C15.3333 26.2 15.7222 25.25 16.5 24.4834C17.2778 23.7167 18.2222 23.3334 19.3333 23.3334C20.4666 23.3334 21.4166 23.7167 22.1833 24.4834C22.95 25.25 23.3333 26.2 23.3333 27.3334C23.3333 28.4445 22.95 29.3889 22.1833 30.1667C21.4166 30.9445 20.4666 31.3334 19.3333 31.3334ZM40.6666 31.3334C39.5555 31.3334 38.6111 30.9445 37.8333 30.1667C37.0555 29.3889 36.6666 28.4445 36.6666 27.3334C36.6666 26.2 37.0555 25.25 37.8333 24.4834C38.6111 23.7167 39.5555 23.3334 40.6666 23.3334C41.8 23.3334 42.75 23.7167 43.5166 24.4834C44.2833 25.25 44.6666 26.2 44.6666 27.3334C44.6666 28.4445 44.2833 29.3889 43.5166 30.1667C42.75 30.9445 41.8 31.3334 40.6666 31.3334ZM30 27.3334C28.8889 27.3334 27.9444 26.9445 27.1666 26.1667C26.3889 25.3889 26 24.4445 26 23.3334C26 22.2 26.3889 21.25 27.1666 20.4834C27.9444 19.7167 28.8889 19.3334 30 19.3334C31.1333 19.3334 32.0833 19.7167 32.85 20.4834C33.6166 21.25 34 22.2 34 23.3334C34 24.4445 33.6166 25.3889 32.85 26.1667C32.0833 26.9445 31.1333 27.3334 30 27.3334Z" fill="white"/>
</g>
</svg>
