<svg width="52" height="52" viewBox="0 0 52 52" fill="none" xmlns="http://www.w3.org/2000/svg">
<path d="M0 12C0 5.37258 5.37258 0 12 0H40C46.6274 0 52 5.37258 52 12V40C52 46.6274 46.6274 52 40 52H12C5.37258 52 0 46.6274 0 40V12Z" fill="#088E48"/>
<mask id="mask0_182_736" style="mask-type:alpha" maskUnits="userSpaceOnUse" x="12" y="12" width="28" height="28">
<rect x="12" y="12" width="28" height="28" fill="#D9D9D9"/>
</mask>
<g mask="url(#mask0_182_736)">
<path d="M26 30.6667C27.4583 30.6667 28.6979 30.1563 29.7187 29.1355C30.7395 28.1147 31.25 26.8751 31.25 25.4167C31.25 23.9584 30.7395 22.7188 29.7187 21.698C28.6979 20.6772 27.4583 20.1667 26 20.1667C24.5416 20.1667 23.302 20.6772 22.2812 21.698C21.2604 22.7188 20.75 23.9584 20.75 25.4167C20.75 26.8751 21.2604 28.1147 22.2812 29.1355C23.302 30.1563 24.5416 30.6667 26 30.6667ZM26 28.5667C25.125 28.5667 24.3812 28.2605 23.7687 27.648C23.1562 27.0355 22.85 26.2917 22.85 25.4167C22.85 24.5417 23.1562 23.798 23.7687 23.1855C24.3812 22.573 25.125 22.2667 26 22.2667C26.875 22.2667 27.6187 22.573 28.2312 23.1855C28.8437 23.798 29.15 24.5417 29.15 25.4167C29.15 26.2917 28.8437 27.0355 28.2312 27.648C27.6187 28.2605 26.875 28.5667 26 28.5667ZM26 34.1667C23.1611 34.1667 20.575 33.3744 18.2416 31.7897C15.9083 30.2049 14.2166 28.0806 13.1666 25.4167C14.2166 22.7529 15.9083 20.6286 18.2416 19.0438C20.575 17.4591 23.1611 16.6667 26 16.6667C28.8388 16.6667 31.425 17.4591 33.7583 19.0438C36.0916 20.6286 37.7833 22.7529 38.8333 25.4167C37.7833 28.0806 36.0916 30.2049 33.7583 31.7897C31.425 33.3744 28.8388 34.1667 26 34.1667ZM26 31.8334C28.1972 31.8334 30.2145 31.2549 32.052 30.098C33.8895 28.9411 35.2944 27.3806 36.2666 25.4167C35.2944 23.4529 33.8895 21.8924 32.052 20.7355C30.2145 19.5786 28.1972 19.0001 26 19.0001C23.8027 19.0001 21.7854 19.5786 19.9479 20.7355C18.1104 21.8924 16.7055 23.4529 15.7333 25.4167C16.7055 27.3806 18.1104 28.9411 19.9479 30.098C21.7854 31.2549 23.8027 31.8334 26 31.8334Z" fill="white"/>
</g>
</svg>
