<svg width="60" height="60" viewBox="0 0 60 60" fill="none" xmlns="http://www.w3.org/2000/svg">
<path d="M0 30C0 13.4315 13.4315 0 30 0C46.5685 0 60 13.4315 60 30C60 46.5685 46.5685 60 30 60C13.4315 60 0 46.5685 0 30Z" fill="#088E48"/>
<mask id="mask0_182_630" style="mask-type:alpha" maskUnits="userSpaceOnUse" x="14" y="14" width="32" height="32">
<rect x="14" y="14" width="32" height="32" fill="#D9D9D9"/>
</mask>
<g mask="url(#mask0_182_630)">
<path d="M19.3333 42V39.3333H35.3333V42H19.3333ZM26.8666 35.5333L19.3333 28L22.1333 25.1333L29.7333 32.6666L26.8666 35.5333ZM35.3333 27.0666L27.8 19.4666L30.6666 16.6666L38.2 24.2L35.3333 27.0666ZM41.4666 40.6666L24.0666 23.2666L25.9333 21.4L43.3333 38.8L41.4666 40.6666Z" fill="white"/>
</g>
</svg>
