<svg width="52" height="52" viewBox="0 0 52 52" fill="none" xmlns="http://www.w3.org/2000/svg">
<path d="M0 12C0 5.37258 5.37258 0 12 0H40C46.6274 0 52 5.37258 52 12V40C52 46.6274 46.6274 52 40 52H12C5.37258 52 0 46.6274 0 40V12Z" fill="#088E48"/>
<mask id="mask0_187_710" style="mask-type:alpha" maskUnits="userSpaceOnUse" x="12" y="12" width="28" height="28">
<rect x="12" y="12" width="28" height="28" fill="#D9D9D9"/>
</mask>
<g mask="url(#mask0_187_710)">
<path d="M26 36.4999L24.3083 34.9832C22.3445 33.2138 20.7208 31.6874 19.4375 30.4041C18.1542 29.1207 17.1333 27.9686 16.375 26.9478C15.6167 25.927 15.0868 24.9888 14.7854 24.1332C14.484 23.2777 14.3333 22.4027 14.3333 21.5082C14.3333 19.6804 14.9458 18.1541 16.1708 16.9291C17.3958 15.7041 18.9222 15.0916 20.75 15.0916C21.7611 15.0916 22.7236 15.3054 23.6375 15.7332C24.5514 16.161 25.3389 16.7638 26 17.5416C26.6611 16.7638 27.4486 16.161 28.3625 15.7332C29.2764 15.3054 30.2389 15.0916 31.25 15.0916C33.0778 15.0916 34.6042 15.7041 35.8292 16.9291C37.0542 18.1541 37.6667 19.6804 37.6667 21.5082C37.6667 22.4027 37.516 23.2777 37.2146 24.1332C36.9132 24.9888 36.3833 25.927 35.625 26.9478C34.8667 27.9686 33.8458 29.1207 32.5625 30.4041C31.2792 31.6874 29.6556 33.2138 27.6917 34.9832L26 36.4999ZM26 33.3499C27.8667 31.6777 29.4028 30.2436 30.6083 29.0478C31.8139 27.852 32.7667 26.8117 33.4667 25.927C34.1667 25.0422 34.6528 24.2547 34.925 23.5645C35.1972 22.8742 35.3333 22.1888 35.3333 21.5082C35.3333 20.3416 34.9445 19.3693 34.1667 18.5916C33.3889 17.8138 32.4167 17.4249 31.25 17.4249C30.3361 17.4249 29.4903 17.6825 28.7125 18.1978C27.9347 18.7131 27.4 19.3693 27.1083 20.1666H24.8917C24.6 19.3693 24.0653 18.7131 23.2875 18.1978C22.5097 17.6825 21.6639 17.4249 20.75 17.4249C19.5833 17.4249 18.6111 17.8138 17.8333 18.5916C17.0556 19.3693 16.6667 20.3416 16.6667 21.5082C16.6667 22.1888 16.8028 22.8742 17.075 23.5645C17.3472 24.2547 17.8333 25.0422 18.5333 25.927C19.2333 26.8117 20.1861 27.852 21.3917 29.0478C22.5972 30.2436 24.1333 31.6777 26 33.3499Z" fill="white"/>
</g>
</svg>
