<svg width="52" height="52" viewBox="0 0 52 52" fill="none" xmlns="http://www.w3.org/2000/svg">
<path d="M0 12C0 5.37258 5.37258 0 12 0H40C46.6274 0 52 5.37258 52 12V40C52 46.6274 46.6274 52 40 52H12C5.37258 52 0 46.6274 0 40V12Z" fill="#088E48"/>
<mask id="mask0_186_683" style="mask-type:alpha" maskUnits="userSpaceOnUse" x="12" y="12" width="28" height="28">
<rect x="12" y="12" width="28" height="28" fill="#D9D9D9"/>
</mask>
<g mask="url(#mask0_186_683)">
<path d="M25.65 32.9999C23.7833 32.9027 22.2083 32.1833 20.925 30.8416C19.6416 29.4999 19 27.886 19 25.9999C19 24.0555 19.6805 22.4027 21.0416 21.0416C22.4028 19.6805 24.0555 18.9999 26 18.9999C27.8861 18.9999 29.5 19.6416 30.8416 20.9249C32.1833 22.2083 32.9028 23.7833 33 25.6499L30.55 24.9208C30.2972 23.8708 29.7528 23.0103 28.9166 22.3395C28.0805 21.6687 27.1083 21.3333 26 21.3333C24.7166 21.3333 23.618 21.7902 22.7041 22.7041C21.7903 23.618 21.3333 24.7166 21.3333 25.9999C21.3333 27.1083 21.6687 28.0805 22.3396 28.9166C23.0104 29.7527 23.8708 30.2971 24.9208 30.5499L25.65 32.9999ZM27.05 37.6083C26.875 37.6471 26.7 37.6666 26.525 37.6666H26C24.3861 37.6666 22.8694 37.3603 21.45 36.7478C20.0305 36.1353 18.7958 35.3041 17.7458 34.2541C16.6958 33.2041 15.8646 31.9694 15.2521 30.5499C14.6396 29.1305 14.3333 27.6138 14.3333 25.9999C14.3333 24.386 14.6396 22.8694 15.2521 21.4499C15.8646 20.0305 16.6958 18.7958 17.7458 17.7458C18.7958 16.6958 20.0305 15.8645 21.45 15.252C22.8694 14.6395 24.3861 14.3333 26 14.3333C27.6139 14.3333 29.1305 14.6395 30.55 15.252C31.9694 15.8645 33.2041 16.6958 34.2541 17.7458C35.3041 18.7958 36.1354 20.0305 36.7479 21.4499C37.3604 22.8694 37.6666 24.386 37.6666 25.9999V26.5249C37.6666 26.6999 37.6472 26.8749 37.6083 27.0499L35.3333 26.3499V25.9999C35.3333 23.3944 34.4291 21.1874 32.6208 19.3791C30.8125 17.5708 28.6055 16.6666 26 16.6666C23.3944 16.6666 21.1875 17.5708 19.3791 19.3791C17.5708 21.1874 16.6666 23.3944 16.6666 25.9999C16.6666 28.6055 17.5708 30.8124 19.3791 32.6208C21.1875 34.4291 23.3944 35.3333 26 35.3333H26.35L27.05 37.6083ZM35.9458 38.2499L30.9583 33.2624L29.5 37.6666L26 25.9999L37.6666 29.4999L33.2625 30.9583L38.25 35.9458L35.9458 38.2499Z" fill="white"/>
</g>
</svg>
