<svg width="18" height="18" viewBox="0 0 18 18" fill="none" xmlns="http://www.w3.org/2000/svg">
<mask id="mask0_431_2883" style="mask-type:alpha" maskUnits="userSpaceOnUse" x="0" y="0" width="18" height="18">
<rect width="18" height="18" fill="#D9D9D9"/>
</mask>
<g mask="url(#mask0_431_2883)">
<path d="M7.70625 9C7.35625 9 7.06875 8.86875 6.84375 8.60625C6.61875 8.34375 6.5375 8.0375 6.6 7.6875L6.825 6.3375C6.925 5.8 7.17812 5.35938 7.58438 5.01562C7.99063 4.67188 8.4625 4.5 9 4.5C9.55 4.5 10.0281 4.67188 10.4344 5.01562C10.8406 5.35938 11.0938 5.8 11.1938 6.3375L11.4188 7.6875C11.4813 8.0375 11.4 8.34375 11.175 8.60625C10.95 8.86875 10.6625 9 10.3125 9H7.70625ZM8.15625 7.5H9.8625L9.7125 6.58125C9.6875 6.40625 9.60625 6.26563 9.46875 6.15938C9.33125 6.05313 9.175 6 9 6C8.825 6 8.67188 6.05313 8.54062 6.15938C8.40938 6.26563 8.33125 6.40625 8.30625 6.58125L8.15625 7.5ZM2.325 9.73125C2.0375 9.74375 1.79062 9.6875 1.58437 9.5625C1.37812 9.4375 1.24375 9.24375 1.18125 8.98125C1.15625 8.86875 1.15 8.75625 1.1625 8.64375C1.175 8.53125 1.20625 8.425 1.25625 8.325C1.25625 8.3375 1.25 8.3125 1.2375 8.25C1.2125 8.225 1.15 8.075 1.05 7.8C1.025 7.65 1.04375 7.50625 1.10625 7.36875C1.16875 7.23125 1.25 7.1125 1.35 7.0125L1.3875 6.975C1.4125 6.7375 1.50937 6.5375 1.67812 6.375C1.84687 6.2125 2.05625 6.13125 2.30625 6.13125C2.34375 6.13125 2.4625 6.15625 2.6625 6.20625L2.71875 6.1875C2.78125 6.125 2.8625 6.07812 2.9625 6.04688C3.0625 6.01562 3.16875 6 3.28125 6C3.41875 6 3.54063 6.02188 3.64688 6.06563C3.75313 6.10938 3.8375 6.175 3.9 6.2625C3.9125 6.2625 3.92188 6.26562 3.92813 6.27187C3.93438 6.27812 3.94375 6.28125 3.95625 6.28125C4.13125 6.29375 4.28438 6.34688 4.41563 6.44063C4.54688 6.53438 4.64375 6.6625 4.70625 6.825C4.73125 6.9125 4.74062 6.99688 4.73438 7.07812C4.72813 7.15937 4.7125 7.2375 4.6875 7.3125C4.6875 7.325 4.69375 7.35 4.70625 7.3875C4.79375 7.475 4.8625 7.57188 4.9125 7.67813C4.9625 7.78438 4.9875 7.89375 4.9875 8.00625C4.9875 8.05625 4.95 8.1875 4.875 8.4C4.8625 8.425 4.8625 8.45 4.875 8.475L4.9125 8.775C4.9125 9.0375 4.80313 9.2625 4.58438 9.45C4.36562 9.6375 4.1 9.73125 3.7875 9.73125H2.325ZM15 9.75C14.5875 9.75 14.2344 9.60313 13.9406 9.30937C13.6469 9.01562 13.5 8.6625 13.5 8.25C13.5 8.1 13.5219 7.95937 13.5656 7.82812C13.6094 7.69688 13.6688 7.56875 13.7438 7.44375L13.2188 6.975C13.0938 6.875 13.0719 6.75 13.1531 6.6C13.2344 6.45 13.35 6.375 13.5 6.375H15C15.4125 6.375 15.7656 6.52188 16.0594 6.81563C16.3531 7.10938 16.5 7.4625 16.5 7.875V8.25C16.5 8.6625 16.3531 9.01562 16.0594 9.30937C15.7656 9.60313 15.4125 9.75 15 9.75ZM0 13.5V12.3188C0 11.7688 0.278125 11.3281 0.834375 10.9969C1.39062 10.6656 2.1125 10.5 3 10.5C3.1625 10.5 3.31875 10.5031 3.46875 10.5094C3.61875 10.5156 3.7625 10.5312 3.9 10.5562C3.725 10.8063 3.59375 11.075 3.50625 11.3625C3.41875 11.65 3.375 11.9563 3.375 12.2812V13.5H0ZM4.5 13.5V12.2812C4.5 11.4688 4.91563 10.8125 5.74687 10.3125C6.57812 9.8125 7.6625 9.5625 9 9.5625C10.35 9.5625 11.4375 9.8125 12.2625 10.3125C13.0875 10.8125 13.5 11.4688 13.5 12.2812V13.5H4.5ZM15 10.5C15.9 10.5 16.625 10.6656 17.175 10.9969C17.725 11.3281 18 11.7688 18 12.3188V13.5H14.625V12.2812C14.625 11.9563 14.5844 11.65 14.5031 11.3625C14.4219 11.075 14.3 10.8063 14.1375 10.5562C14.275 10.5312 14.4156 10.5156 14.5594 10.5094C14.7031 10.5031 14.85 10.5 15 10.5ZM9 11.0625C8.2875 11.0625 7.65 11.1562 7.0875 11.3438C6.525 11.5312 6.19375 11.75 6.09375 12H11.925C11.8125 11.75 11.4781 11.5312 10.9219 11.3438C10.3656 11.1562 9.725 11.0625 9 11.0625Z" fill="#333333"/>
</g>
</svg>
