<svg width="52" height="52" viewBox="0 0 52 52" fill="none" xmlns="http://www.w3.org/2000/svg">
<path d="M0 26C0 11.6406 11.6406 0 26 0C40.3594 0 52 11.6406 52 26C52 40.3594 40.3594 52 26 52C11.6406 52 0 40.3594 0 26Z" fill="white"/>
<mask id="mask0_421_1419" style="mask-type:alpha" maskUnits="userSpaceOnUse" x="12" y="12" width="28" height="28">
<rect x="12" y="12" width="28" height="28" fill="#D9D9D9"/>
</mask>
<g mask="url(#mask0_421_1419)">
<path d="M13.1667 35.3332V32.0665C13.1667 31.4054 13.3369 30.7978 13.6772 30.2436C14.0174 29.6894 14.4695 29.2665 15.0334 28.9748C16.239 28.3721 17.464 27.92 18.7084 27.6186C19.9529 27.3172 21.2167 27.1665 22.5001 27.1665C23.7834 27.1665 25.0473 27.3172 26.2917 27.6186C27.5362 27.92 28.7612 28.3721 29.9667 28.9748C30.5306 29.2665 30.9827 29.6894 31.323 30.2436C31.6633 30.7978 31.8334 31.4054 31.8334 32.0665V35.3332H13.1667ZM34.1667 35.3332V31.8332C34.1667 30.9776 33.9286 30.1561 33.4522 29.3686C32.9758 28.5811 32.3001 27.9054 31.4251 27.3415C32.4167 27.4582 33.3501 27.6575 34.2251 27.9394C35.1001 28.2214 35.9167 28.5665 36.6751 28.9748C37.3751 29.3637 37.9098 29.7964 38.2792 30.2728C38.6487 30.7491 38.8334 31.2693 38.8334 31.8332V35.3332H34.1667ZM22.5001 25.9998C21.2167 25.9998 20.1181 25.5429 19.2042 24.629C18.2904 23.7151 17.8334 22.6165 17.8334 21.3332C17.8334 20.0498 18.2904 18.9512 19.2042 18.0373C20.1181 17.1234 21.2167 16.6665 22.5001 16.6665C23.7834 16.6665 24.882 17.1234 25.7959 18.0373C26.7098 18.9512 27.1667 20.0498 27.1667 21.3332C27.1667 22.6165 26.7098 23.7151 25.7959 24.629C24.882 25.5429 23.7834 25.9998 22.5001 25.9998ZM34.1667 21.3332C34.1667 22.6165 33.7098 23.7151 32.7959 24.629C31.882 25.5429 30.7834 25.9998 29.5001 25.9998C29.2862 25.9998 29.014 25.9755 28.6834 25.9269C28.3529 25.8783 28.0806 25.8248 27.8667 25.7665C28.3917 25.1443 28.7952 24.454 29.0772 23.6957C29.3591 22.9373 29.5001 22.1498 29.5001 21.3332C29.5001 20.5165 29.3591 19.729 29.0772 18.9707C28.7952 18.2123 28.3917 17.5221 27.8667 16.8998C28.139 16.8026 28.4112 16.7394 28.6834 16.7103C28.9556 16.6811 29.2279 16.6665 29.5001 16.6665C30.7834 16.6665 31.882 17.1234 32.7959 18.0373C33.7098 18.9512 34.1667 20.0498 34.1667 21.3332ZM15.5001 32.9998H29.5001V32.0665C29.5001 31.8526 29.4466 31.6582 29.3397 31.4832C29.2327 31.3082 29.0917 31.1721 28.9167 31.0748C27.8667 30.5498 26.807 30.1561 25.7376 29.8936C24.6681 29.6311 23.589 29.4998 22.5001 29.4998C21.4112 29.4998 20.332 29.6311 19.2626 29.8936C18.1931 30.1561 17.1334 30.5498 16.0834 31.0748C15.9084 31.1721 15.7674 31.3082 15.6605 31.4832C15.5536 31.6582 15.5001 31.8526 15.5001 32.0665V32.9998ZM22.5001 23.6665C23.1417 23.6665 23.6911 23.438 24.148 22.9811C24.6049 22.5241 24.8334 21.9748 24.8334 21.3332C24.8334 20.6915 24.6049 20.1422 24.148 19.6853C23.6911 19.2283 23.1417 18.9998 22.5001 18.9998C21.8584 18.9998 21.3091 19.2283 20.8522 19.6853C20.3952 20.1422 20.1667 20.6915 20.1667 21.3332C20.1667 21.9748 20.3952 22.5241 20.8522 22.9811C21.3091 23.438 21.8584 23.6665 22.5001 23.6665Z" fill="#0066FF"/>
</g>
</svg>
