<svg width="52" height="52" viewBox="0 0 52 52" fill="none" xmlns="http://www.w3.org/2000/svg">
<path d="M0 26C0 11.6406 11.6406 0 26 0C40.3594 0 52 11.6406 52 26C52 40.3594 40.3594 52 26 52C11.6406 52 0 40.3594 0 26Z" fill="url(#paint0_linear_405_996)"/>
<mask id="mask0_405_996" style="mask-type:alpha" maskUnits="userSpaceOnUse" x="12" y="12" width="28" height="28">
<rect x="12" y="12" width="28" height="28" fill="#D9D9D9"/>
</mask>
<g mask="url(#mask0_405_996)">
<path d="M25.8542 35.3334C25.932 35.3334 26.0098 35.3139 26.0875 35.275C26.1653 35.2362 26.2236 35.1973 26.2625 35.1584L35.8292 25.5917C36.0625 25.3584 36.2327 25.0959 36.3396 24.8042C36.4466 24.5125 36.5 24.2209 36.5 23.9292C36.5 23.6181 36.4466 23.3216 36.3396 23.0396C36.2327 22.7577 36.0625 22.5098 35.8292 22.2959L30.8709 17.3375C30.657 17.1042 30.4091 16.9341 30.1271 16.8271C29.8452 16.7202 29.5486 16.6667 29.2375 16.6667C28.9459 16.6667 28.6542 16.7202 28.3625 16.8271C28.0709 16.9341 27.8084 17.1042 27.575 17.3375L27.2542 17.6584L29.4125 19.8459C29.7042 20.1181 29.9181 20.4292 30.0542 20.7792C30.1903 21.1292 30.2584 21.4987 30.2584 21.8875C30.2584 22.7042 29.9813 23.3896 29.4271 23.9438C28.8729 24.498 28.1875 24.775 27.3709 24.775C26.982 24.775 26.6077 24.707 26.2479 24.5709C25.8882 24.4348 25.5723 24.2306 25.3 23.9584L23.1125 21.8L18.0084 26.9042C17.95 26.9625 17.9063 27.0257 17.8771 27.0938C17.8479 27.1618 17.8334 27.2348 17.8334 27.3125C17.8334 27.4681 17.8917 27.6091 18.0084 27.7355C18.125 27.8618 18.2611 27.925 18.4167 27.925C18.4945 27.925 18.5723 27.9056 18.65 27.8667C18.7278 27.8278 18.7861 27.7889 18.825 27.75L22.7917 23.7834L24.425 25.4167L20.4875 29.3834C20.4292 29.4417 20.3854 29.5049 20.3563 29.573C20.3271 29.641 20.3125 29.7139 20.3125 29.7917C20.3125 29.9473 20.3709 30.0834 20.4875 30.2C20.6042 30.3167 20.7403 30.375 20.8959 30.375C20.9736 30.375 21.0514 30.3556 21.1292 30.3167C21.207 30.2778 21.2653 30.2389 21.3042 30.2L25.2709 26.2625L26.9042 27.8959L22.9667 31.8625C22.9084 31.9014 22.8646 31.9598 22.8354 32.0375C22.8063 32.1153 22.7917 32.1931 22.7917 32.2709C22.7917 32.4264 22.85 32.5625 22.9667 32.6792C23.0834 32.7959 23.2195 32.8542 23.375 32.8542C23.4528 32.8542 23.5257 32.8396 23.5938 32.8105C23.6618 32.7813 23.725 32.7375 23.7834 32.6792L27.75 28.7417L29.3834 30.375L25.4167 34.3417C25.3584 34.4 25.3146 34.4632 25.2854 34.5313C25.2563 34.5993 25.2417 34.6723 25.2417 34.75C25.2417 34.9056 25.3049 35.0417 25.4313 35.1584C25.5577 35.275 25.6986 35.3334 25.8542 35.3334ZM25.825 37.6667C25.1056 37.6667 24.4688 37.4285 23.9146 36.9521C23.3604 36.4757 23.0348 35.8778 22.9375 35.1584C22.2764 35.0612 21.7223 34.7889 21.275 34.3417C20.8278 33.8945 20.5556 33.3403 20.4584 32.6792C19.7973 32.582 19.2479 32.3049 18.8104 31.848C18.3729 31.391 18.1056 30.8417 18.0084 30.2C17.2695 30.1028 16.6667 29.782 16.2 29.2375C15.7334 28.6931 15.5 28.0514 15.5 27.3125C15.5 26.9237 15.5729 26.5493 15.7188 26.1896C15.8646 25.8299 16.0736 25.5139 16.3459 25.2417L23.1125 18.5042L26.9334 22.325C26.9723 22.3834 27.0306 22.4271 27.1084 22.4563C27.1861 22.4855 27.2639 22.5 27.3417 22.5C27.5167 22.5 27.6625 22.4466 27.7792 22.3396C27.8959 22.2327 27.9542 22.0917 27.9542 21.9167C27.9542 21.8389 27.9396 21.7612 27.9104 21.6834C27.8813 21.6056 27.8375 21.5473 27.7792 21.5084L23.6084 17.3375C23.3945 17.1042 23.1466 16.9341 22.8646 16.8271C22.5827 16.7202 22.2861 16.6667 21.975 16.6667C21.6834 16.6667 21.3917 16.7202 21.1 16.8271C20.8084 16.9341 20.5459 17.1042 20.3125 17.3375L16.2 21.4792C16.025 21.6542 15.8792 21.8584 15.7625 22.0917C15.6459 22.325 15.5681 22.5584 15.5292 22.7917C15.4903 23.025 15.4903 23.2632 15.5292 23.5063C15.5681 23.7493 15.6459 23.9778 15.7625 24.1917L14.0709 25.8834C13.7403 25.4362 13.4973 24.9452 13.3417 24.4105C13.1861 23.8757 13.1278 23.3362 13.1667 22.7917C13.2056 22.2473 13.3417 21.7174 13.575 21.2021C13.8084 20.6868 14.1292 20.225 14.5375 19.8167L18.65 15.7042C19.1167 15.257 19.6368 14.9167 20.2104 14.6834C20.7841 14.45 21.3723 14.3334 21.975 14.3334C22.5778 14.3334 23.166 14.45 23.7396 14.6834C24.3132 14.9167 24.8236 15.257 25.2709 15.7042L25.5917 16.025L25.9125 15.7042C26.3792 15.257 26.8993 14.9167 27.4729 14.6834C28.0466 14.45 28.6348 14.3334 29.2375 14.3334C29.8403 14.3334 30.4285 14.45 31.0021 14.6834C31.5757 14.9167 32.0861 15.257 32.5334 15.7042L37.4625 20.6334C37.9098 21.0806 38.25 21.5959 38.4834 22.1792C38.7167 22.7625 38.8334 23.3556 38.8334 23.9584C38.8334 24.5612 38.7167 25.1493 38.4834 25.723C38.25 26.2966 37.9098 26.807 37.4625 27.2542L27.8959 36.7917C27.6236 37.0639 27.3077 37.2778 26.9479 37.4334C26.5882 37.5889 26.2139 37.6667 25.825 37.6667Z" fill="white"/>
</g>
<defs>
<linearGradient id="paint0_linear_405_996" x1="0" y1="0" x2="52" y2="52" gradientUnits="userSpaceOnUse">
<stop stop-color="#00BC7D"/>
<stop offset="1" stop-color="#2B7FFF"/>
</linearGradient>
</defs>
</svg>
