<svg width="112" height="28" viewBox="0 0 112 28" fill="none" xmlns="http://www.w3.org/2000/svg">
<path d="M0.101562 27.4691V14.5309H3.10395V27.4691H0.101562Z" fill="#1AA8C6"/>
<path d="M6.84912 27.4691V14.5309H8.89198L17.992 22.1452C18.3015 22.3929 18.5801 22.6405 18.7968 22.8572C19.0444 23.0738 19.261 23.3214 19.4468 23.5381C19.3848 22.8262 19.3539 22.3 19.3539 21.9905C19.3229 21.681 19.3229 21.4643 19.3229 21.2786V14.5H22.0158V27.4691H19.9729L10.4706 19.4833C10.2539 19.2667 10.0372 19.081 9.88246 18.9262C9.69674 18.7714 9.54198 18.5857 9.41817 18.431C9.44912 18.8333 9.48008 19.2048 9.51103 19.5762C9.54198 19.9167 9.54198 20.2262 9.54198 20.5048V27.4691H6.84912Z" fill="#1AA8C6"/>
<path d="M25.7917 27.4691V14.5309H28.7941V25.0238H38.5132V27.4691H25.7917Z" fill="white"/>
<path d="M40.061 27.4691V14.5309H43.0634V27.4691H40.061Z" fill="white"/>
<path d="M58.973 16.8524H49.5635V25.0548H58.973V22.1762H54.0516V19.9786H61.8825V24.4357C61.8825 25.6119 61.6659 26.4167 61.2325 26.85C60.7992 27.2833 59.9325 27.5 58.6944 27.5H49.7801C48.5111 27.5 47.6754 27.2833 47.242 26.85C46.8087 26.4167 46.592 25.6119 46.592 24.4357V17.6262C46.592 16.45 46.8087 15.6452 47.242 15.2119C47.6754 14.7786 48.542 14.5619 49.7801 14.5619H58.6944C59.9325 14.5619 60.7682 14.7786 61.2325 15.2119C61.6659 15.6452 61.9135 16.3881 61.9135 17.5024V17.7809L58.973 18.3071V16.8524Z" fill="white"/>
<path d="M65.4109 27.4691V14.5309H68.4133V19.5452H77.8228V14.5309H80.8561V27.4691H77.8228V21.8976H68.4133V27.4691H65.4109Z" fill="white"/>
<path d="M90.6064 16.8524V27.4691H87.604V16.8524H81.6611V14.5309H96.5802V16.8524H90.6064Z" fill="white"/>
<path d="M108.621 16.7905H100.14V19.5762H108.218C109.487 19.5762 110.323 19.7929 110.787 20.2262C111.221 20.6595 111.468 21.4643 111.468 22.6405V24.4048C111.468 25.581 111.252 26.3857 110.787 26.819C110.354 27.2524 109.487 27.4691 108.218 27.4691H100.233C98.9636 27.4691 98.1279 27.2524 97.6636 26.819C97.2303 26.3857 96.9827 25.581 96.9827 24.4048V24.0643L99.6446 23.5071V25.0238H108.776V22.0833H100.697C99.4279 22.0833 98.5922 21.8667 98.1589 21.4333C97.7255 21 97.5089 20.1952 97.5089 19.019V17.5952C97.5089 16.419 97.7255 15.6143 98.1589 15.1809C98.5922 14.7476 99.4589 14.5309 100.697 14.5309H108.033C109.24 14.5309 110.076 14.7476 110.54 15.15C111.004 15.5524 111.221 16.2952 111.221 17.3786V17.6571L108.559 18.2762V16.7905H108.621Z" fill="white"/>
<path d="M0.275568 8L1.24148 2.18182H3.31534C3.7661 2.18182 4.12595 2.2642 4.39489 2.42898C4.66572 2.59375 4.85133 2.81818 4.9517 3.10227C5.05398 3.38636 5.07576 3.70739 5.01705 4.06534C4.95644 4.4233 4.82765 4.74527 4.63068 5.03125C4.43561 5.31534 4.17519 5.54072 3.84943 5.70739C3.52367 5.87216 3.13636 5.95455 2.6875 5.95455H1.25852L1.38068 5.21023H2.72727C3.01326 5.21023 3.25379 5.16098 3.44886 5.0625C3.64583 4.96212 3.80019 4.82576 3.91193 4.65341C4.02367 4.47917 4.09659 4.28314 4.13068 4.06534C4.16667 3.84375 4.1572 3.64867 4.10227 3.48011C4.04735 3.30966 3.93845 3.17614 3.77557 3.07955C3.61458 2.98295 3.3892 2.93466 3.09943 2.93466H1.99716L1.15341 8H0.275568ZM10.9055 5.14773C10.8033 5.75947 10.6044 6.28409 10.3089 6.72159C10.0154 7.15909 9.65554 7.49527 9.2294 7.73011C8.80516 7.96307 8.34683 8.07955 7.8544 8.07955C7.34115 8.07955 6.9027 7.95739 6.53906 7.71307C6.17732 7.46686 5.91785 7.11742 5.76065 6.66477C5.60346 6.21023 5.57694 5.66856 5.68111 5.03977C5.78338 4.42803 5.9813 3.90341 6.27486 3.46591C6.57031 3.02652 6.93111 2.68939 7.35724 2.45455C7.78527 2.2197 8.2474 2.10227 8.74361 2.10227C9.25308 2.10227 9.68774 2.22538 10.0476 2.47159C10.4093 2.71591 10.6688 3.06629 10.826 3.52273C10.9832 3.97727 11.0097 4.51894 10.9055 5.14773ZM10.0504 5.03977C10.1281 4.57576 10.1186 4.18561 10.022 3.86932C9.92732 3.55114 9.76539 3.31061 9.53622 3.14773C9.30705 2.98485 9.03054 2.90341 8.70668 2.90341C8.36198 2.90341 8.03906 2.99053 7.73793 3.16477C7.43868 3.33901 7.183 3.5928 6.97088 3.92614C6.75876 4.25947 6.61387 4.66667 6.53622 5.14773C6.45668 5.61174 6.4652 6.00189 6.56179 6.31818C6.65838 6.63447 6.82126 6.87405 7.05043 7.03693C7.28149 7.19792 7.55895 7.27841 7.88281 7.27841C8.22562 7.27841 8.54664 7.19223 8.84588 7.01989C9.14702 6.84564 9.40365 6.5928 9.61577 6.26136C9.82789 5.92803 9.97277 5.52083 10.0504 5.03977ZM12.5945 8L11.9467 2.18182H12.87L13.2564 6.6875H13.3104L15.2365 2.18182H16.1513L16.5831 6.69034H16.6399L18.5149 2.18182H19.4411L16.8587 8H15.9751L15.478 3.64205H15.4325L13.4808 8H12.5945ZM19.2756 8L20.2415 2.18182H23.8892L23.7642 2.9375H20.9943L20.6989 4.71023H23.2784L23.1534 5.46307H20.5739L20.2784 7.24432H23.0824L22.9574 8H19.2756ZM24.0959 8L25.0618 2.18182H27.1357C27.5864 2.18182 27.9472 2.25947 28.218 2.41477C28.4908 2.56818 28.6783 2.7822 28.7805 3.05682C28.8847 3.32955 28.9074 3.64583 28.8487 4.00568C28.7881 4.36174 28.6603 4.67424 28.4652 4.94318C28.272 5.21212 28.0135 5.42235 27.6896 5.57386C27.3677 5.72348 26.9813 5.7983 26.5305 5.7983H24.9595L25.0902 5.04261H26.5817C26.8677 5.04261 27.1063 5.00189 27.2976 4.92045C27.4889 4.83902 27.6385 4.72064 27.7464 4.56534C27.8563 4.41004 27.9283 4.22348 27.9624 4.00568C27.9983 3.78409 27.9879 3.59375 27.9311 3.43466C27.8743 3.27367 27.7635 3.15057 27.5987 3.06534C27.4339 2.97822 27.2076 2.93466 26.9197 2.93466H25.8175L24.9737 8H24.0959ZM27.4027 5.375L28.4055 8H27.4055L26.4283 5.375H27.4027ZM29.2756 8L30.2415 2.18182H33.8892L33.7642 2.9375H30.9943L30.6989 4.71023H33.2784L33.1534 5.46307H30.5739L30.2784 7.24432H33.0824L32.9574 8H29.2756ZM36.005 8H34.0959L35.0618 2.18182H36.9794C37.5514 2.18182 38.0239 2.30114 38.397 2.53977C38.7701 2.77651 39.0315 3.11553 39.1811 3.55682C39.3307 3.99621 39.3544 4.52178 39.2521 5.13352C39.1536 5.73201 38.9605 6.24527 38.6726 6.6733C38.3866 7.09943 38.0182 7.42708 37.5675 7.65625C37.1167 7.88542 36.5959 8 36.005 8ZM35.1044 7.23295H36.0419C36.4851 7.23295 36.8686 7.14678 37.1925 6.97443C37.5182 6.80208 37.7824 6.55208 37.9851 6.22443C38.1877 5.89678 38.3279 5.49811 38.4055 5.02841C38.4813 4.58144 38.4747 4.2036 38.3857 3.89489C38.2966 3.58428 38.1243 3.34943 37.8686 3.19034C37.6129 3.02936 37.273 2.94886 36.8487 2.94886H35.8118L35.1044 7.23295ZM41.9865 8L42.9524 2.18182H45.0831C45.496 2.18182 45.8265 2.25 46.0746 2.38636C46.3246 2.52083 46.4969 2.7036 46.5916 2.93466C46.6863 3.16383 46.709 3.42235 46.6598 3.71023C46.62 3.95265 46.5414 4.15625 46.424 4.32102C46.3085 4.4858 46.1683 4.61837 46.0036 4.71875C45.8388 4.81913 45.6655 4.89205 45.4837 4.9375L45.4723 4.99432C45.6617 5.00379 45.8388 5.06629 46.0036 5.18182C46.1702 5.29545 46.2971 5.45739 46.3842 5.66761C46.4714 5.87784 46.4912 6.13352 46.4439 6.43466C46.3928 6.73201 46.2772 6.99905 46.0973 7.2358C45.9193 7.47064 45.674 7.6572 45.3615 7.79545C45.049 7.93182 44.6674 8 44.2166 8H41.9865ZM42.9893 7.24716H44.2564C44.6768 7.24716 44.9912 7.16572 45.1996 7.00284C45.4098 6.83996 45.5367 6.63636 45.5803 6.39205C45.6087 6.20833 45.5888 6.03977 45.5206 5.88636C45.4543 5.73295 45.3426 5.6108 45.1854 5.51989C45.0301 5.42898 44.835 5.38352 44.6001 5.38352H43.3018L42.9893 7.24716ZM43.4183 4.69886H44.5916C44.7886 4.69886 44.9723 4.66098 45.1428 4.58523C45.3151 4.50947 45.4581 4.40246 45.5717 4.2642C45.6873 4.12595 45.7592 3.96402 45.7876 3.77841C45.8293 3.53598 45.7791 3.33428 45.6371 3.1733C45.4969 3.01042 45.2536 2.92898 44.907 2.92898H43.7081L43.4183 4.69886ZM47.7379 2.18182H48.7351L49.8203 4.8267H49.8857L51.8374 2.18182H52.8345L50.1385 5.71591L49.7578 8H48.8828L49.2607 5.71591L47.7379 2.18182Z" fill="white"/>
</svg>
