<svg width="52" height="52" viewBox="0 0 52 52" fill="none" xmlns="http://www.w3.org/2000/svg">
<path d="M0 10C0 4.47715 4.47715 0 10 0H42C47.5228 0 52 4.47715 52 10V42C52 47.5228 47.5228 52 42 52H10C4.47715 52 0 47.5228 0 42V10Z" fill="#D249D2"/>
<mask id="mask0_148_722" style="mask-type:alpha" maskUnits="userSpaceOnUse" x="12" y="12" width="28" height="28">
<path d="M12 12H40V40H12V12Z" fill="#D9D9D9"/>
</mask>
<g mask="url(#mask0_148_722)">
<path d="M14.3334 36.4998V17.5415L20.1667 13.1665L26 17.5415V20.1665H37.6667V36.4998H14.3334ZM16.6667 34.1665H19V31.8332H16.6667V34.1665ZM16.6667 29.4998H19V27.1665H16.6667V29.4998ZM16.6667 24.8332H19V22.4998H16.6667V24.8332ZM16.6667 20.1665H19V17.8332H16.6667V20.1665ZM21.3334 20.1665H23.6667V17.8332H21.3334V20.1665ZM21.3334 34.1665H35.3334V22.4998H21.3334V34.1665ZM28.3334 27.1665V24.8332H33V27.1665H28.3334ZM28.3334 31.8332V29.4998H33V31.8332H28.3334ZM23.6667 27.1665V24.8332H26V27.1665H23.6667ZM23.6667 31.8332V29.4998H26V31.8332H23.6667Z" fill="white"/>
</g>
</svg>
