<svg width="52" height="52" viewBox="0 0 52 52" fill="none" xmlns="http://www.w3.org/2000/svg">
<path d="M0 26C0 11.6406 11.6406 0 26 0C40.3594 0 52 11.6406 52 26C52 40.3594 40.3594 52 26 52C11.6406 52 0 40.3594 0 26Z" fill="white"/>
<mask id="mask0_421_1437" style="mask-type:alpha" maskUnits="userSpaceOnUse" x="12" y="12" width="28" height="28">
<rect x="12" y="12" width="28" height="28" fill="#D9D9D9"/>
</mask>
<g mask="url(#mask0_421_1437)">
<path d="M16.6666 36.5002C16.0249 36.5002 15.4756 36.2717 15.0187 35.8147C14.5617 35.3578 14.3333 34.8085 14.3333 34.1668V21.3335C14.3333 20.6918 14.5617 20.1425 15.0187 19.6856C15.4756 19.2286 16.0249 19.0002 16.6666 19.0002H21.3333V16.6668C21.3333 16.0252 21.5617 15.4759 22.0187 15.0189C22.4756 14.562 23.0249 14.3335 23.6666 14.3335H28.3333C28.9749 14.3335 29.5242 14.562 29.9812 15.0189C30.4381 15.4759 30.6666 16.0252 30.6666 16.6668V19.0002H35.3333C35.9749 19.0002 36.5242 19.2286 36.9812 19.6856C37.4381 20.1425 37.6666 20.6918 37.6666 21.3335V34.1668C37.6666 34.8085 37.4381 35.3578 36.9812 35.8147C36.5242 36.2717 35.9749 36.5002 35.3333 36.5002H16.6666ZM23.6666 19.0002H28.3333V16.6668H23.6666V19.0002ZM18.9999 21.3335H16.6666V34.1668H18.9999V21.3335ZM30.6666 34.1668V21.3335H21.3333V34.1668H30.6666ZM32.9999 21.3335V34.1668H35.3333V21.3335H32.9999Z" fill="#0066FF"/>
</g>
</svg>
