<svg width="60" height="60" viewBox="0 0 60 60" fill="none" xmlns="http://www.w3.org/2000/svg">
<path d="M0 30C0 13.4315 13.4315 0 30 0C46.5685 0 60 13.4315 60 30C60 46.5685 46.5685 60 30 60C13.4315 60 0 46.5685 0 30Z" fill="#088E48"/>
<mask id="mask0_427_2759" style="mask-type:alpha" maskUnits="userSpaceOnUse" x="14" y="14" width="32" height="32">
<rect x="14" y="14" width="32" height="32" fill="#D9D9D9"/>
</mask>
<g mask="url(#mask0_427_2759)">
<path d="M30.0001 43.3332C28.1556 43.3332 26.4223 42.9832 24.8001 42.2832C23.1779 41.5832 21.7667 40.6332 20.5667 39.4332C19.3667 38.2332 18.4167 36.8221 17.7167 35.1998C17.0167 33.5776 16.6667 31.8443 16.6667 29.9998C16.6667 28.1554 17.0167 26.4221 17.7167 24.7998C18.4167 23.1776 19.3667 21.7665 20.5667 20.5665C21.7667 19.3665 23.1779 18.4165 24.8001 17.7165C26.4223 17.0165 28.1556 16.6665 30.0001 16.6665C31.8445 16.6665 33.5779 17.0165 35.2001 17.7165C36.8223 18.4165 38.2334 19.3665 39.4334 20.5665C40.6334 21.7665 41.5834 23.1776 42.2834 24.7998C42.9834 26.4221 43.3334 28.1554 43.3334 29.9998C43.3334 31.8443 42.9834 33.5776 42.2834 35.1998C41.5834 36.8221 40.6334 38.2332 39.4334 39.4332C38.2334 40.6332 36.8223 41.5832 35.2001 42.2832C33.5779 42.9832 31.8445 43.3332 30.0001 43.3332ZM30.0001 40.6665C32.9779 40.6665 35.5001 39.6332 37.5667 37.5665C39.6334 35.4998 40.6667 32.9776 40.6667 29.9998C40.6667 27.0221 39.6334 24.4998 37.5667 22.4332C35.5001 20.3665 32.9779 19.3332 30.0001 19.3332C27.0223 19.3332 24.5001 20.3665 22.4334 22.4332C20.3667 24.4998 19.3334 27.0221 19.3334 29.9998C19.3334 32.9776 20.3667 35.4998 22.4334 37.5665C24.5001 39.6332 27.0223 40.6665 30.0001 40.6665ZM30.0001 37.9998C27.7779 37.9998 25.889 37.2221 24.3334 35.6665C22.7779 34.1109 22.0001 32.2221 22.0001 29.9998C22.0001 27.7776 22.7779 25.8887 24.3334 24.3332C25.889 22.7776 27.7779 21.9998 30.0001 21.9998C32.2223 21.9998 34.1112 22.7776 35.6667 24.3332C37.2223 25.8887 38.0001 27.7776 38.0001 29.9998C38.0001 32.2221 37.2223 34.1109 35.6667 35.6665C34.1112 37.2221 32.2223 37.9998 30.0001 37.9998ZM30.0001 35.3332C31.4667 35.3332 32.7223 34.8109 33.7667 33.7665C34.8112 32.7221 35.3334 31.4665 35.3334 29.9998C35.3334 28.5332 34.8112 27.2776 33.7667 26.2332C32.7223 25.1887 31.4667 24.6665 30.0001 24.6665C28.5334 24.6665 27.2779 25.1887 26.2334 26.2332C25.189 27.2776 24.6667 28.5332 24.6667 29.9998C24.6667 31.4665 25.189 32.7221 26.2334 33.7665C27.2779 34.8109 28.5334 35.3332 30.0001 35.3332ZM30.0001 32.6665C29.2667 32.6665 28.639 32.4054 28.1167 31.8832C27.5945 31.3609 27.3334 30.7332 27.3334 29.9998C27.3334 29.2665 27.5945 28.6387 28.1167 28.1165C28.639 27.5943 29.2667 27.3332 30.0001 27.3332C30.7334 27.3332 31.3612 27.5943 31.8834 28.1165C32.4056 28.6387 32.6667 29.2665 32.6667 29.9998C32.6667 30.7332 32.4056 31.3609 31.8834 31.8832C31.3612 32.4054 30.7334 32.6665 30.0001 32.6665Z" fill="white"/>
</g>
</svg>
