<svg width="60" height="60" viewBox="0 0 60 60" fill="none" xmlns="http://www.w3.org/2000/svg">
<path d="M0 30C0 13.4315 13.4315 0 30 0C46.5685 0 60 13.4315 60 30C60 46.5685 46.5685 60 30 60C13.4315 60 0 46.5685 0 30Z" fill="#088E48"/>
<mask id="mask0_427_2769" style="mask-type:alpha" maskUnits="userSpaceOnUse" x="14" y="14" width="32" height="32">
<rect x="14" y="14" width="32" height="32" fill="#D9D9D9"/>
</mask>
<g mask="url(#mask0_427_2769)">
<path d="M30 43.3332C29.2667 43.3332 28.6389 43.0721 28.1167 42.5498C27.5944 42.0276 27.3333 41.3998 27.3333 40.6665H32.6667C32.6667 41.3998 32.4056 42.0276 31.8833 42.5498C31.3611 43.0721 30.7333 43.3332 30 43.3332ZM24.6667 39.3332V36.6665H35.3333V39.3332H24.6667ZM25 35.3332C23.4667 34.4221 22.25 33.1998 21.35 31.6665C20.45 30.1332 20 28.4665 20 26.6665C20 23.8887 20.9722 21.5276 22.9167 19.5832C24.8611 17.6387 27.2222 16.6665 30 16.6665C32.7778 16.6665 35.1389 17.6387 37.0833 19.5832C39.0278 21.5276 40 23.8887 40 26.6665C40 28.4665 39.55 30.1332 38.65 31.6665C37.75 33.1998 36.5333 34.4221 35 35.3332H25ZM25.8 32.6665H34.2C35.2 31.9554 35.9722 31.0776 36.5167 30.0332C37.0611 28.9887 37.3333 27.8665 37.3333 26.6665C37.3333 24.6221 36.6222 22.8887 35.2 21.4665C33.7778 20.0443 32.0444 19.3332 30 19.3332C27.9556 19.3332 26.2222 20.0443 24.8 21.4665C23.3778 22.8887 22.6667 24.6221 22.6667 26.6665C22.6667 27.8665 22.9389 28.9887 23.4833 30.0332C24.0278 31.0776 24.8 31.9554 25.8 32.6665Z" fill="white"/>
</g>
</svg>
