<svg width="52" height="52" viewBox="0 0 52 52" fill="none" xmlns="http://www.w3.org/2000/svg">
<path d="M0 10C0 4.47715 4.47715 0 10 0H42C47.5228 0 52 4.47715 52 10V42C52 47.5228 47.5228 52 42 52H10C4.47715 52 0 47.5228 0 42V10Z" fill="#00A0EE"/>
<mask id="mask0_148_714" style="mask-type:alpha" maskUnits="userSpaceOnUse" x="12" y="12" width="28" height="28">
<path d="M12 12H40V40H12V12Z" fill="#D9D9D9"/>
</mask>
<g mask="url(#mask0_148_714)">
<path d="M17.7749 31.8914C16.6666 30.7831 15.8159 29.524 15.2228 28.1143C14.6298 26.7046 14.3333 25.222 14.3333 23.6664C14.3333 22.1109 14.6298 20.6282 15.2228 19.2185C15.8159 17.8088 16.6666 16.5497 17.7749 15.4414L19.1749 16.8414C18.261 17.7553 17.5562 18.8004 17.0603 19.9768C16.5645 21.1532 16.3166 22.3831 16.3166 23.6664C16.3166 24.9497 16.5645 26.1796 17.0603 27.356C17.5562 28.5324 18.261 29.5775 19.1749 30.4914L17.7749 31.8914ZM20.4583 29.2081C19.7194 28.4692 19.1555 27.6234 18.7666 26.6706C18.3777 25.7178 18.1833 24.7164 18.1833 23.6664C18.1833 22.6164 18.3777 21.615 18.7666 20.6622C19.1555 19.7095 19.7194 18.8636 20.4583 18.1247L21.8583 19.5247C21.2944 20.0886 20.8714 20.7254 20.5895 21.4352C20.3076 22.1449 20.1666 22.8886 20.1666 23.6664C20.1666 24.4442 20.3076 25.1879 20.5895 25.8977C20.8714 26.6074 21.2944 27.2442 21.8583 27.8081L20.4583 29.2081ZM24.8333 36.4997V26.3497C24.3083 26.1164 23.8853 25.7567 23.5645 25.2706C23.2437 24.7845 23.0833 24.2497 23.0833 23.6664C23.0833 22.8497 23.3652 22.1595 23.9291 21.5956C24.493 21.0317 25.1833 20.7497 25.9999 20.7497C26.8166 20.7497 27.5069 21.0317 28.0708 21.5956C28.6346 22.1595 28.9166 22.8497 28.9166 23.6664C28.9166 24.2497 28.7562 24.7845 28.4353 25.2706C28.1145 25.7567 27.6916 26.1164 27.1666 26.3497V36.4997H24.8333ZM31.5416 29.2081L30.1416 27.8081C30.7055 27.2442 31.1284 26.6074 31.4103 25.8977C31.6923 25.1879 31.8333 24.4442 31.8333 23.6664C31.8333 22.8886 31.6923 22.1449 31.4103 21.4352C31.1284 20.7254 30.7055 20.0886 30.1416 19.5247L31.5416 18.1247C32.2805 18.8636 32.8444 19.7095 33.2333 20.6622C33.6221 21.615 33.8166 22.6164 33.8166 23.6664C33.8166 24.7164 33.6221 25.7178 33.2333 26.6706C32.8444 27.6234 32.2805 28.4692 31.5416 29.2081ZM34.2249 31.8914L32.8249 30.4914C33.7388 29.5775 34.4437 28.5324 34.9395 27.356C35.4353 26.1796 35.6833 24.9497 35.6833 23.6664C35.6833 22.3831 35.4353 21.1532 34.9395 19.9768C34.4437 18.8004 33.7388 17.7553 32.8249 16.8414L34.2249 15.4414C35.3333 16.5497 36.1839 17.8088 36.777 19.2185C37.3701 20.6282 37.6666 22.1109 37.6666 23.6664C37.6666 25.222 37.3701 26.7046 36.777 28.1143C36.1839 29.524 35.3333 30.7831 34.2249 31.8914Z" fill="white"/>
</g>
</svg>
