<svg width="52" height="52" viewBox="0 0 52 52" fill="none" xmlns="http://www.w3.org/2000/svg">
<path d="M0 10C0 4.47715 4.47715 0 10 0H42C47.5228 0 52 4.47715 52 10V42C52 47.5228 47.5228 52 42 52H10C4.47715 52 0 47.5228 0 42V10Z" fill="#088E48"/>
<mask id="mask0_148_746" style="mask-type:alpha" maskUnits="userSpaceOnUse" x="12" y="12" width="28" height="28">
<path d="M12 12H40V40H12V12Z" fill="#D9D9D9"/>
</mask>
<g mask="url(#mask0_148_746)">
<path d="M22.5001 35.3332C22.1306 35.3332 21.8001 35.2262 21.5084 35.0123C21.2167 34.7984 21.0029 34.5262 20.8667 34.1957L18.1834 27.1665H13.1667V24.8332H19.8167L22.5001 31.9498L27.8667 17.804C28.0029 17.4734 28.2167 17.2012 28.5084 16.9873C28.8001 16.7734 29.1306 16.6665 29.5001 16.6665C29.8695 16.6665 30.2001 16.7734 30.4917 16.9873C30.7834 17.2012 30.9973 17.4734 31.1334 17.804L33.8167 24.8332H38.8334V27.1665H32.1834L29.5001 20.0498L24.1334 34.1957C23.9973 34.5262 23.7834 34.7984 23.4917 35.0123C23.2001 35.2262 22.8695 35.3332 22.5001 35.3332Z" fill="white"/>
</g>
</svg>
