<svg width="52" height="52" viewBox="0 0 52 52" fill="none" xmlns="http://www.w3.org/2000/svg">
<path d="M0 26C0 11.6406 11.6406 0 26 0C40.3594 0 52 11.6406 52 26C52 40.3594 40.3594 52 26 52C11.6406 52 0 40.3594 0 26Z" fill="white"/>
<mask id="mask0_421_1320" style="mask-type:alpha" maskUnits="userSpaceOnUse" x="12" y="12" width="28" height="28">
<rect x="12" y="12" width="28" height="28" fill="#D9D9D9"/>
</mask>
<g mask="url(#mask0_421_1320)">
<path d="M26.0001 36.5L17.8334 32.0667V25.0667L13.1667 22.5L26.0001 15.5L38.8334 22.5V31.8333H36.5001V23.7833L34.1667 25.0667V32.0667L26.0001 36.5ZM26.0001 26.8167L33.9917 22.5L26.0001 18.1833L18.0084 22.5L26.0001 26.8167ZM26.0001 33.8458L31.8334 30.6958V26.2917L26.0001 29.5L20.1667 26.2917V30.6958L26.0001 33.8458Z" fill="#0066FF"/>
</g>
</svg>
