<svg width="52" height="52" viewBox="0 0 52 52" fill="none" xmlns="http://www.w3.org/2000/svg">
<path d="M0 26C0 11.6406 11.6406 0 26 0C40.3594 0 52 11.6406 52 26C52 40.3594 40.3594 52 26 52C11.6406 52 0 40.3594 0 26Z" fill="white"/>
<mask id="mask0_421_1428" style="mask-type:alpha" maskUnits="userSpaceOnUse" x="12" y="12" width="28" height="28">
<rect x="12" y="12" width="28" height="28" fill="#D9D9D9"/>
</mask>
<g mask="url(#mask0_421_1428)">
<path d="M18.5916 23.6958L20.8666 24.6583C21.1388 24.1139 21.4208 23.5889 21.7124 23.0833C22.0041 22.5778 22.3249 22.0722 22.6749 21.5667L21.0416 21.2458L18.5916 23.6958ZM22.7333 26.1167L26.0583 29.4125C26.8749 29.1014 27.7499 28.625 28.6833 27.9833C29.6166 27.3417 30.4916 26.6125 31.3083 25.7958C32.6694 24.4347 33.734 22.9229 34.502 21.2604C35.2701 19.5979 35.6055 18.0667 35.5083 16.6667C34.1083 16.5694 32.5722 16.9049 30.8999 17.6729C29.2277 18.441 27.711 19.5056 26.3499 20.8667C25.5333 21.6833 24.8041 22.5583 24.1624 23.4917C23.5208 24.425 23.0444 25.3 22.7333 26.1167ZM27.9249 24.2208C27.4777 23.7736 27.2541 23.2243 27.2541 22.5729C27.2541 21.9215 27.4777 21.3722 27.9249 20.925C28.3722 20.4778 28.9263 20.2542 29.5874 20.2542C30.2485 20.2542 30.8027 20.4778 31.2499 20.925C31.6972 21.3722 31.9208 21.9215 31.9208 22.5729C31.9208 23.2243 31.6972 23.7736 31.2499 24.2208C30.8027 24.6681 30.2485 24.8917 29.5874 24.8917C28.9263 24.8917 28.3722 24.6681 27.9249 24.2208ZM28.4791 33.5833L30.9291 31.1333L30.6083 29.5C30.1027 29.85 29.5972 30.166 29.0916 30.4479C28.586 30.7299 28.061 31.0069 27.5166 31.2792L28.4791 33.5833ZM37.6083 14.5375C37.9777 16.8903 37.7492 19.1799 36.9229 21.4063C36.0965 23.6326 34.6722 25.7569 32.6499 27.7792L33.2333 30.6667C33.311 31.0556 33.2916 31.4347 33.1749 31.8042C33.0583 32.1736 32.8638 32.4944 32.5916 32.7667L27.6916 37.6667L25.2416 31.9208L20.2541 26.9333L14.5083 24.4833L19.3791 19.5833C19.6513 19.3111 19.977 19.1167 20.3562 19C20.7354 18.8833 21.1194 18.8639 21.5083 18.9417L24.3958 19.525C26.418 17.5028 28.5374 16.0736 30.7541 15.2375C32.9708 14.4014 35.2555 14.1681 37.6083 14.5375ZM16.5791 30.6375C17.2597 29.9569 18.0909 29.6118 19.0729 29.6021C20.0548 29.5924 20.886 29.9278 21.5666 30.6083C22.2472 31.2889 22.5826 32.1201 22.5729 33.1021C22.5631 34.084 22.218 34.9153 21.5374 35.5958C21.0513 36.0819 20.2395 36.5 19.102 36.85C17.9645 37.2 16.3944 37.5111 14.3916 37.7833C14.6638 35.7806 14.9749 34.2104 15.3249 33.0729C15.6749 31.9354 16.093 31.1236 16.5791 30.6375ZM18.2416 32.2708C18.0472 32.4653 17.8527 32.8201 17.6583 33.3354C17.4638 33.8507 17.3277 34.3708 17.2499 34.8958C17.7749 34.8181 18.2951 34.6868 18.8104 34.5021C19.3256 34.3174 19.6805 34.1278 19.8749 33.9333C20.1083 33.7 20.2347 33.4181 20.2541 33.0875C20.2735 32.7569 20.1666 32.475 19.9333 32.2417C19.6999 32.0083 19.418 31.8965 19.0874 31.9063C18.7569 31.916 18.4749 32.0375 18.2416 32.2708Z" fill="#0066FF"/>
</g>
</svg>
