<svg width="52" height="52" viewBox="0 0 52 52" fill="none" xmlns="http://www.w3.org/2000/svg">
<path d="M0 10C0 4.47715 4.47715 0 10 0H42C47.5228 0 52 4.47715 52 10V42C52 47.5228 47.5228 52 42 52H10C4.47715 52 0 47.5228 0 42V10Z" fill="#FF522B"/>
<mask id="mask0_148_730" style="mask-type:alpha" maskUnits="userSpaceOnUse" x="12" y="12" width="28" height="28">
<path d="M12 12H40V40H12V12Z" fill="#D9D9D9"/>
</mask>
<g mask="url(#mask0_148_730)">
<path d="M13.1083 27.5167C12.7583 26.8167 12.4861 26.1069 12.2917 25.3875C12.0972 24.6681 12 23.9389 12 23.2C12 21.0222 12.7389 19.1944 14.2167 17.7167C15.6944 16.2389 17.5222 15.5 19.7 15.5C20.925 15.5 22.0917 15.7576 23.2 16.2729C24.3083 16.7882 25.2417 17.5028 26 18.4167C26.7583 17.5028 27.6917 16.7882 28.8 16.2729C29.9083 15.7576 31.075 15.5 32.3 15.5C34.4778 15.5 36.3056 16.2389 37.7833 17.7167C39.2611 19.1944 40 21.0222 40 23.2C40 23.9389 39.9028 24.6681 39.7083 25.3875C39.5139 26.1069 39.2417 26.8167 38.8917 27.5167C38.6778 27.1472 38.425 26.8167 38.1333 26.525C37.8417 26.2333 37.5014 26 37.1125 25.825C37.2875 25.3778 37.4236 24.9403 37.5208 24.5125C37.6181 24.0847 37.6667 23.6472 37.6667 23.2C37.6667 21.6833 37.1514 20.4097 36.1208 19.3792C35.0903 18.3486 33.8167 17.8333 32.3 17.8333C30.725 17.8333 29.5146 18.266 28.6688 19.1312C27.8229 19.9965 26.9333 20.9639 26 22.0333C25.0667 20.9444 24.1771 19.9722 23.3313 19.1167C22.4854 18.2611 21.275 17.8333 19.7 17.8333C18.1833 17.8333 16.9097 18.3486 15.8792 19.3792C14.8486 20.4097 14.3333 21.6833 14.3333 23.2C14.3333 23.6472 14.3819 24.0847 14.4792 24.5125C14.5764 24.9403 14.7125 25.3778 14.8875 25.825C14.4986 26 14.1583 26.2333 13.8667 26.525C13.575 26.8167 13.3222 27.1472 13.1083 27.5167ZM12 37.6667V35.8292C12 34.9736 12.4326 34.2882 13.2979 33.7729C14.1632 33.2576 15.2861 33 16.6667 33C16.9194 33 17.1625 33.0049 17.3958 33.0146C17.6292 33.0243 17.8528 33.0486 18.0667 33.0875C17.7944 33.4764 17.5903 33.8944 17.4542 34.3417C17.3181 34.7889 17.25 35.2653 17.25 35.7708V37.6667H12ZM19 37.6667V35.7708C19 34.5069 19.6465 33.4861 20.9396 32.7083C22.2326 31.9306 23.9194 31.5417 26 31.5417C28.1 31.5417 29.7917 31.9306 31.075 32.7083C32.3583 33.4861 33 34.5069 33 35.7708V37.6667H19ZM34.75 37.6667V35.7708C34.75 35.2653 34.6868 34.7889 34.5604 34.3417C34.434 33.8944 34.2444 33.4764 33.9917 33.0875C34.2056 33.0486 34.4243 33.0243 34.6479 33.0146C34.8715 33.0049 35.1 33 35.3333 33C36.7333 33 37.8611 33.2576 38.7167 33.7729C39.5722 34.2882 40 34.9736 40 35.8292V37.6667H34.75ZM26 33.875C24.8917 33.875 23.9 34.0208 23.025 34.3125C22.15 34.6042 21.6347 34.9444 21.4792 35.3333H30.55C30.375 34.9444 29.8549 34.6042 28.9896 34.3125C28.1243 34.0208 27.1278 33.875 26 33.875ZM16.6667 31.8333C16.025 31.8333 15.4757 31.6049 15.0187 31.1479C14.5618 30.691 14.3333 30.1417 14.3333 29.5C14.3333 28.8389 14.5618 28.2847 15.0187 27.8375C15.4757 27.3903 16.025 27.1667 16.6667 27.1667C17.3278 27.1667 17.8819 27.3903 18.3292 27.8375C18.7764 28.2847 19 28.8389 19 29.5C19 30.1417 18.7764 30.691 18.3292 31.1479C17.8819 31.6049 17.3278 31.8333 16.6667 31.8333ZM35.3333 31.8333C34.6917 31.8333 34.1424 31.6049 33.6854 31.1479C33.2285 30.691 33 30.1417 33 29.5C33 28.8389 33.2285 28.2847 33.6854 27.8375C34.1424 27.3903 34.6917 27.1667 35.3333 27.1667C35.9944 27.1667 36.5486 27.3903 36.9958 27.8375C37.4431 28.2847 37.6667 28.8389 37.6667 29.5C37.6667 30.1417 37.4431 30.691 36.9958 31.1479C36.5486 31.6049 35.9944 31.8333 35.3333 31.8333ZM26 30.6667C25.0278 30.6667 24.2014 30.3264 23.5208 29.6458C22.8403 28.9653 22.5 28.1389 22.5 27.1667C22.5 26.175 22.8403 25.3438 23.5208 24.6729C24.2014 24.0021 25.0278 23.6667 26 23.6667C26.9917 23.6667 27.8229 24.0021 28.4937 24.6729C29.1646 25.3438 29.5 26.175 29.5 27.1667C29.5 28.1389 29.1646 28.9653 28.4937 29.6458C27.8229 30.3264 26.9917 30.6667 26 30.6667ZM26 26C25.6694 26 25.3924 26.1118 25.1687 26.3354C24.9451 26.559 24.8333 26.8361 24.8333 27.1667C24.8333 27.4972 24.9451 27.7743 25.1687 27.9979C25.3924 28.2215 25.6694 28.3333 26 28.3333C26.3306 28.3333 26.6076 28.2215 26.8313 27.9979C27.0549 27.7743 27.1667 27.4972 27.1667 27.1667C27.1667 26.8361 27.0549 26.559 26.8313 26.3354C26.6076 26.1118 26.3306 26 26 26Z" fill="white"/>
</g>
</svg>
