<svg width="52" height="52" viewBox="0 0 52 52" fill="none" xmlns="http://www.w3.org/2000/svg">
<path d="M0 10C0 4.47715 4.47715 0 10 0H42C47.5228 0 52 4.47715 52 10V42C52 47.5228 47.5228 52 42 52H10C4.47715 52 0 47.5228 0 42V10Z" fill="#4E6FFF"/>
<mask id="mask0_148_754" style="mask-type:alpha" maskUnits="userSpaceOnUse" x="12" y="12" width="28" height="28">
<path d="M12 12H40V40H12V12Z" fill="#D9D9D9"/>
</mask>
<g mask="url(#mask0_148_754)">
<path d="M13.1666 35.3332V32.0665C13.1666 31.4054 13.3368 30.7978 13.677 30.2436C14.0173 29.6894 14.4694 29.2665 15.0333 28.9748C16.2388 28.3721 17.4638 27.92 18.7083 27.6186C19.9527 27.3172 21.2166 27.1665 22.5 27.1665C23.7833 27.1665 25.0472 27.3172 26.2916 27.6186C27.5361 27.92 28.7611 28.3721 29.9666 28.9748C30.5305 29.2665 30.9826 29.6894 31.3229 30.2436C31.6632 30.7978 31.8333 31.4054 31.8333 32.0665V35.3332H13.1666ZM34.1666 35.3332V31.8332C34.1666 30.9776 33.9284 30.1561 33.452 29.3686C32.9757 28.5811 32.3 27.9054 31.425 27.3415C32.4166 27.4582 33.35 27.6575 34.225 27.9394C35.1 28.2214 35.9166 28.5665 36.675 28.9748C37.375 29.3637 37.9097 29.7964 38.2791 30.2728C38.6486 30.7491 38.8333 31.2693 38.8333 31.8332V35.3332H34.1666ZM22.5 25.9998C21.2166 25.9998 20.118 25.5429 19.2041 24.629C18.2902 23.7151 17.8333 22.6165 17.8333 21.3332C17.8333 20.0498 18.2902 18.9512 19.2041 18.0373C20.118 17.1234 21.2166 16.6665 22.5 16.6665C23.7833 16.6665 24.8819 17.1234 25.7958 18.0373C26.7097 18.9512 27.1666 20.0498 27.1666 21.3332C27.1666 22.6165 26.7097 23.7151 25.7958 24.629C24.8819 25.5429 23.7833 25.9998 22.5 25.9998ZM34.1666 21.3332C34.1666 22.6165 33.7097 23.7151 32.7958 24.629C31.8819 25.5429 30.7833 25.9998 29.5 25.9998C29.2861 25.9998 29.0138 25.9755 28.6833 25.9269C28.3527 25.8783 28.0805 25.8248 27.8666 25.7665C28.3916 25.1443 28.7951 24.454 29.077 23.6957C29.359 22.9373 29.5 22.1498 29.5 21.3332C29.5 20.5165 29.359 19.729 29.077 18.9707C28.7951 18.2123 28.3916 17.5221 27.8666 16.8998C28.1388 16.8026 28.4111 16.7394 28.6833 16.7103C28.9555 16.6811 29.2277 16.6665 29.5 16.6665C30.7833 16.6665 31.8819 17.1234 32.7958 18.0373C33.7097 18.9512 34.1666 20.0498 34.1666 21.3332ZM15.5 32.9998H29.5V32.0665C29.5 31.8526 29.4465 31.6582 29.3395 31.4832C29.2326 31.3082 29.0916 31.1721 28.9166 31.0748C27.8666 30.5498 26.8069 30.1561 25.7375 29.8936C24.668 29.6311 23.5888 29.4998 22.5 29.4998C21.4111 29.4998 20.3319 29.6311 19.2625 29.8936C18.193 30.1561 17.1333 30.5498 16.0833 31.0748C15.9083 31.1721 15.7673 31.3082 15.6604 31.4832C15.5534 31.6582 15.5 31.8526 15.5 32.0665V32.9998ZM22.5 23.6665C23.1416 23.6665 23.6909 23.438 24.1479 22.9811C24.6048 22.5241 24.8333 21.9748 24.8333 21.3332C24.8333 20.6915 24.6048 20.1422 24.1479 19.6853C23.6909 19.2283 23.1416 18.9998 22.5 18.9998C21.8583 18.9998 21.309 19.2283 20.852 19.6853C20.3951 20.1422 20.1666 20.6915 20.1666 21.3332C20.1666 21.9748 20.3951 22.5241 20.852 22.9811C21.309 23.438 21.8583 23.6665 22.5 23.6665Z" fill="white"/>
</g>
</svg>
