<svg width="70" height="67" viewBox="0 0 70 67" fill="none" xmlns="http://www.w3.org/2000/svg">
<g filter="url(#filter0_d_229_3680)">
<path d="M4 4C4 1.79086 5.79086 0 8 0H62C64.2091 0 66 1.79086 66 4V43C66 45.2091 64.2091 47 62 47H8C5.79086 47 4 45.2091 4 43V4Z" fill="white" shape-rendering="crispEdges"/>
<path d="M20.2617 31H17.2441V22.7383C17.2441 22.5104 17.2474 22.2305 17.2539 21.8984C17.2604 21.5599 17.2702 21.2148 17.2832 20.8633C17.2962 20.5052 17.3092 20.1829 17.3223 19.8965C17.2507 19.9811 17.1042 20.1276 16.8828 20.3359C16.668 20.5378 16.4661 20.7201 16.2773 20.8828L14.6367 22.2012L13.1816 20.3848L17.7812 16.7227H20.2617V31ZM34.2266 31H24.2461V28.9004L27.8301 25.2773C28.5527 24.5352 29.1322 23.9167 29.5684 23.4219C30.0111 22.9206 30.3301 22.4648 30.5254 22.0547C30.7272 21.6445 30.8281 21.2051 30.8281 20.7363C30.8281 20.1699 30.6686 19.7467 30.3496 19.4668C30.0371 19.1803 29.6172 19.0371 29.0898 19.0371C28.5365 19.0371 27.9993 19.1641 27.4785 19.418C26.9577 19.6719 26.4141 20.0332 25.8477 20.502L24.207 18.5586C24.6172 18.207 25.0501 17.875 25.5059 17.5625C25.9681 17.25 26.502 16.9993 27.1074 16.8105C27.7194 16.6152 28.4518 16.5176 29.3047 16.5176C30.2422 16.5176 31.0462 16.6868 31.7168 17.0254C32.3939 17.3639 32.9147 17.8262 33.2793 18.4121C33.6439 18.9915 33.8262 19.6491 33.8262 20.3848C33.8262 21.1725 33.6699 21.8919 33.3574 22.543C33.0449 23.194 32.5892 23.8385 31.9902 24.4766C31.3978 25.1146 30.6816 25.821 29.8418 26.5957L28.0059 28.3242V28.4609H34.2266V31ZM45.5938 23.8613C45.5938 25.0137 45.5026 26.0423 45.3203 26.9473C45.1445 27.8522 44.8581 28.6204 44.4609 29.252C44.0703 29.8835 43.556 30.3652 42.918 30.6973C42.2799 31.0293 41.5052 31.1953 40.5938 31.1953C39.4479 31.1953 38.5072 30.9056 37.7715 30.3262C37.0358 29.7402 36.4922 28.9004 36.1406 27.8066C35.7891 26.7064 35.6133 25.3913 35.6133 23.8613C35.6133 22.3184 35.7728 21 36.0918 19.9062C36.4173 18.806 36.9447 17.9629 37.6738 17.377C38.403 16.791 39.3763 16.498 40.5938 16.498C41.7331 16.498 42.6706 16.791 43.4062 17.377C44.1484 17.9564 44.6986 18.7962 45.0566 19.8965C45.4147 20.9902 45.5938 22.3118 45.5938 23.8613ZM38.6113 23.8613C38.6113 24.9486 38.6699 25.8568 38.7871 26.5859C38.9108 27.3086 39.1159 27.8522 39.4023 28.2168C39.6888 28.5814 40.0859 28.7637 40.5938 28.7637C41.0951 28.7637 41.4889 28.5846 41.7754 28.2266C42.0684 27.862 42.2767 27.3184 42.4004 26.5957C42.5241 25.8665 42.5859 24.9551 42.5859 23.8613C42.5859 22.7741 42.5241 21.8659 42.4004 21.1367C42.2767 20.4076 42.0684 19.8607 41.7754 19.4961C41.4889 19.125 41.0951 18.9395 40.5938 18.9395C40.0859 18.9395 39.6888 19.125 39.4023 19.4961C39.1159 19.8607 38.9108 20.4076 38.7871 21.1367C38.6699 21.8659 38.6113 22.7741 38.6113 23.8613ZM53.1133 22.8848H56.8926V25.0234H53.1133V28.7832H50.9746V25.0234H47.1953V22.8848H50.9746V19.0762H53.1133V22.8848Z" fill="#F5AA00"/>
</g>
<mask id="mask0_229_3680" style="mask-type:alpha" maskUnits="userSpaceOnUse" x="17" y="32" width="36" height="35">
<rect x="17.5" y="32" width="35" height="35" fill="#D9D9D9"/>
</mask>
<g mask="url(#mask0_229_3680)">
<path d="M35 53.8752L27.7084 46.5835H42.2917L35 53.8752Z" fill="white"/>
</g>
<defs>
<filter id="filter0_d_229_3680" x="0" y="0" width="70" height="55" filterUnits="userSpaceOnUse" color-interpolation-filters="sRGB">
<feFlood flood-opacity="0" result="BackgroundImageFix"/>
<feColorMatrix in="SourceAlpha" type="matrix" values="0 0 0 0 0 0 0 0 0 0 0 0 0 0 0 0 0 0 127 0" result="hardAlpha"/>
<feOffset dy="4"/>
<feGaussianBlur stdDeviation="2"/>
<feComposite in2="hardAlpha" operator="out"/>
<feColorMatrix type="matrix" values="0 0 0 0 0 0 0 0 0 0 0 0 0 0 0 0 0 0 0.25 0"/>
<feBlend mode="normal" in2="BackgroundImageFix" result="effect1_dropShadow_229_3680"/>
<feBlend mode="normal" in="SourceGraphic" in2="effect1_dropShadow_229_3680" result="shape"/>
</filter>
</defs>
</svg>
