<svg width="70" height="67" viewBox="0 0 70 67" fill="none" xmlns="http://www.w3.org/2000/svg">
<g filter="url(#filter0_d_229_3698)">
<path d="M4 4C4 1.79086 5.79086 0 8 0H62C64.2091 0 66 1.79086 66 4V43C66 45.2091 64.2091 47 62 47H8C5.79086 47 4 45.2091 4 43V4Z" fill="white" shape-rendering="crispEdges"/>
<path d="M20.2617 31H17.2441V22.7383C17.2441 22.5104 17.2474 22.2305 17.2539 21.8984C17.2604 21.5599 17.2702 21.2148 17.2832 20.8633C17.2962 20.5052 17.3092 20.1829 17.3223 19.8965C17.2507 19.9811 17.1042 20.1276 16.8828 20.3359C16.668 20.5378 16.4661 20.7201 16.2773 20.8828L14.6367 22.2012L13.1816 20.3848L17.7812 16.7227H20.2617V31ZM33.6699 19.916C33.6699 20.5736 33.5332 21.1432 33.2598 21.625C32.9863 22.1068 32.6152 22.5007 32.1465 22.8066C31.6842 23.1126 31.1634 23.3372 30.584 23.4805V23.5391C31.7298 23.6823 32.599 24.0339 33.1914 24.5938C33.7904 25.1536 34.0898 25.9023 34.0898 26.8398C34.0898 27.6732 33.8848 28.4186 33.4746 29.0762C33.071 29.7337 32.446 30.2513 31.5996 30.6289C30.7533 31.0065 29.6628 31.1953 28.3281 31.1953C27.5404 31.1953 26.8047 31.1302 26.1211 31C25.444 30.8763 24.806 30.6842 24.207 30.4238V27.8555C24.819 28.168 25.4603 28.4056 26.1309 28.5684C26.8014 28.7246 27.4264 28.8027 28.0059 28.8027C29.0866 28.8027 29.8418 28.6172 30.2715 28.2461C30.7077 27.8685 30.9258 27.3411 30.9258 26.6641C30.9258 26.2669 30.8249 25.9316 30.623 25.6582C30.4212 25.3848 30.0697 25.1764 29.5684 25.0332C29.0736 24.89 28.3802 24.8184 27.4883 24.8184H26.4043V22.5039H27.5078C28.3867 22.5039 29.054 22.4225 29.5098 22.2598C29.972 22.0905 30.2845 21.8626 30.4473 21.5762C30.6165 21.2832 30.7012 20.9512 30.7012 20.5801C30.7012 20.0723 30.5449 19.6751 30.2324 19.3887C29.9199 19.1022 29.3991 18.959 28.6699 18.959C28.2142 18.959 27.7975 19.0176 27.4199 19.1348C27.0488 19.2454 26.7135 19.3822 26.4141 19.5449C26.1146 19.7012 25.8509 19.8542 25.623 20.0039L24.2266 17.9238C24.7865 17.5202 25.4408 17.1849 26.1895 16.918C26.9447 16.651 27.8431 16.5176 28.8848 16.5176C30.3561 16.5176 31.5215 16.8138 32.3809 17.4062C33.2402 17.9987 33.6699 18.8353 33.6699 19.916ZM45.5938 23.8613C45.5938 25.0137 45.5026 26.0423 45.3203 26.9473C45.1445 27.8522 44.8581 28.6204 44.4609 29.252C44.0703 29.8835 43.556 30.3652 42.918 30.6973C42.2799 31.0293 41.5052 31.1953 40.5938 31.1953C39.4479 31.1953 38.5072 30.9056 37.7715 30.3262C37.0358 29.7402 36.4922 28.9004 36.1406 27.8066C35.7891 26.7064 35.6133 25.3913 35.6133 23.8613C35.6133 22.3184 35.7728 21 36.0918 19.9062C36.4173 18.806 36.9447 17.9629 37.6738 17.377C38.403 16.791 39.3763 16.498 40.5938 16.498C41.7331 16.498 42.6706 16.791 43.4062 17.377C44.1484 17.9564 44.6986 18.7962 45.0566 19.8965C45.4147 20.9902 45.5938 22.3118 45.5938 23.8613ZM38.6113 23.8613C38.6113 24.9486 38.6699 25.8568 38.7871 26.5859C38.9108 27.3086 39.1159 27.8522 39.4023 28.2168C39.6888 28.5814 40.0859 28.7637 40.5938 28.7637C41.0951 28.7637 41.4889 28.5846 41.7754 28.2266C42.0684 27.862 42.2767 27.3184 42.4004 26.5957C42.5241 25.8665 42.5859 24.9551 42.5859 23.8613C42.5859 22.7741 42.5241 21.8659 42.4004 21.1367C42.2767 20.4076 42.0684 19.8607 41.7754 19.4961C41.4889 19.125 41.0951 18.9395 40.5938 18.9395C40.0859 18.9395 39.6888 19.125 39.4023 19.4961C39.1159 19.8607 38.9108 20.4076 38.7871 21.1367C38.6699 21.8659 38.6113 22.7741 38.6113 23.8613ZM53.1133 22.8848H56.8926V25.0234H53.1133V28.7832H50.9746V25.0234H47.1953V22.8848H50.9746V19.0762H53.1133V22.8848Z" fill="#F5AA00"/>
</g>
<mask id="mask0_229_3698" style="mask-type:alpha" maskUnits="userSpaceOnUse" x="17" y="32" width="36" height="35">
<rect x="17.5" y="32" width="35" height="35" fill="#D9D9D9"/>
</mask>
<g mask="url(#mask0_229_3698)">
<path d="M34.9999 53.8752L27.7083 46.5835H42.2916L34.9999 53.8752Z" fill="white"/>
</g>
<defs>
<filter id="filter0_d_229_3698" x="0" y="0" width="70" height="55" filterUnits="userSpaceOnUse" color-interpolation-filters="sRGB">
<feFlood flood-opacity="0" result="BackgroundImageFix"/>
<feColorMatrix in="SourceAlpha" type="matrix" values="0 0 0 0 0 0 0 0 0 0 0 0 0 0 0 0 0 0 127 0" result="hardAlpha"/>
<feOffset dy="4"/>
<feGaussianBlur stdDeviation="2"/>
<feComposite in2="hardAlpha" operator="out"/>
<feColorMatrix type="matrix" values="0 0 0 0 0 0 0 0 0 0 0 0 0 0 0 0 0 0 0.25 0"/>
<feBlend mode="normal" in2="BackgroundImageFix" result="effect1_dropShadow_229_3698"/>
<feBlend mode="normal" in="SourceGraphic" in2="effect1_dropShadow_229_3698" result="shape"/>
</filter>
</defs>
</svg>
