<svg width="70" height="67" viewBox="0 0 70 67" fill="none" xmlns="http://www.w3.org/2000/svg">
<g filter="url(#filter0_d_229_3674)">
<path d="M4 4C4 1.79086 5.79086 0 8 0H62C64.2091 0 66 1.79086 66 4V43C66 45.2091 64.2091 47 62 47H8C5.79086 47 4 45.2091 4 43V4Z" fill="white" shape-rendering="crispEdges"/>
<path d="M20.2617 31H17.2441V22.7383C17.2441 22.5104 17.2474 22.2305 17.2539 21.8984C17.2604 21.5599 17.2702 21.2148 17.2832 20.8633C17.2962 20.5052 17.3092 20.1829 17.3223 19.8965C17.2507 19.9811 17.1042 20.1276 16.8828 20.3359C16.668 20.5378 16.4661 20.7201 16.2773 20.8828L14.6367 22.2012L13.1816 20.3848L17.7812 16.7227H20.2617V31ZM29.4414 21.8789C30.3138 21.8789 31.0885 22.0449 31.7656 22.377C32.4492 22.709 32.9863 23.1973 33.377 23.8418C33.7676 24.4863 33.9629 25.2806 33.9629 26.2246C33.9629 27.2533 33.748 28.1419 33.3184 28.8906C32.8952 29.6328 32.2604 30.2025 31.4141 30.5996C30.5742 30.9967 29.526 31.1953 28.2695 31.1953C27.5208 31.1953 26.8145 31.1302 26.1504 31C25.4928 30.8763 24.9167 30.6842 24.4219 30.4238V27.8164C24.9167 28.0768 25.5091 28.2982 26.1992 28.4805C26.8958 28.6562 27.5501 28.7441 28.1621 28.7441C28.7611 28.7441 29.2656 28.666 29.6758 28.5098C30.0859 28.347 30.3952 28.0996 30.6035 27.7676C30.8184 27.429 30.9258 26.9993 30.9258 26.4785C30.9258 25.7819 30.6914 25.248 30.2227 24.877C29.7539 24.5059 29.0345 24.3203 28.0645 24.3203C27.6934 24.3203 27.306 24.3561 26.9023 24.4277C26.5052 24.4993 26.1732 24.571 25.9062 24.6426L24.7051 23.998L25.2422 16.7227H32.9863V19.2812H27.8887L27.625 22.084C27.8464 22.0384 28.0872 21.9928 28.3477 21.9473C28.6081 21.9017 28.9727 21.8789 29.4414 21.8789ZM45.5938 23.8613C45.5938 25.0137 45.5026 26.0423 45.3203 26.9473C45.1445 27.8522 44.8581 28.6204 44.4609 29.252C44.0703 29.8835 43.556 30.3652 42.918 30.6973C42.2799 31.0293 41.5052 31.1953 40.5938 31.1953C39.4479 31.1953 38.5072 30.9056 37.7715 30.3262C37.0358 29.7402 36.4922 28.9004 36.1406 27.8066C35.7891 26.7064 35.6133 25.3913 35.6133 23.8613C35.6133 22.3184 35.7728 21 36.0918 19.9062C36.4173 18.806 36.9447 17.9629 37.6738 17.377C38.403 16.791 39.3763 16.498 40.5938 16.498C41.7331 16.498 42.6706 16.791 43.4062 17.377C44.1484 17.9564 44.6986 18.7962 45.0566 19.8965C45.4147 20.9902 45.5938 22.3118 45.5938 23.8613ZM38.6113 23.8613C38.6113 24.9486 38.6699 25.8568 38.7871 26.5859C38.9108 27.3086 39.1159 27.8522 39.4023 28.2168C39.6888 28.5814 40.0859 28.7637 40.5938 28.7637C41.0951 28.7637 41.4889 28.5846 41.7754 28.2266C42.0684 27.862 42.2767 27.3184 42.4004 26.5957C42.5241 25.8665 42.5859 24.9551 42.5859 23.8613C42.5859 22.7741 42.5241 21.8659 42.4004 21.1367C42.2767 20.4076 42.0684 19.8607 41.7754 19.4961C41.4889 19.125 41.0951 18.9395 40.5938 18.9395C40.0859 18.9395 39.6888 19.125 39.4023 19.4961C39.1159 19.8607 38.9108 20.4076 38.7871 21.1367C38.6699 21.8659 38.6113 22.7741 38.6113 23.8613ZM53.1133 22.8848H56.8926V25.0234H53.1133V28.7832H50.9746V25.0234H47.1953V22.8848H50.9746V19.0762H53.1133V22.8848Z" fill="#F5AA00"/>
</g>
<mask id="mask0_229_3674" style="mask-type:alpha" maskUnits="userSpaceOnUse" x="17" y="32" width="36" height="35">
<rect x="17.5" y="32" width="35" height="35" fill="#D9D9D9"/>
</mask>
<g mask="url(#mask0_229_3674)">
<path d="M35 53.8752L27.7084 46.5835H42.2917L35 53.8752Z" fill="white"/>
</g>
<defs>
<filter id="filter0_d_229_3674" x="0" y="0" width="70" height="55" filterUnits="userSpaceOnUse" color-interpolation-filters="sRGB">
<feFlood flood-opacity="0" result="BackgroundImageFix"/>
<feColorMatrix in="SourceAlpha" type="matrix" values="0 0 0 0 0 0 0 0 0 0 0 0 0 0 0 0 0 0 127 0" result="hardAlpha"/>
<feOffset dy="4"/>
<feGaussianBlur stdDeviation="2"/>
<feComposite in2="hardAlpha" operator="out"/>
<feColorMatrix type="matrix" values="0 0 0 0 0 0 0 0 0 0 0 0 0 0 0 0 0 0 0.25 0"/>
<feBlend mode="normal" in2="BackgroundImageFix" result="effect1_dropShadow_229_3674"/>
<feBlend mode="normal" in="SourceGraphic" in2="effect1_dropShadow_229_3674" result="shape"/>
</filter>
</defs>
</svg>
