<svg width="70" height="67" viewBox="0 0 70 67" fill="none" xmlns="http://www.w3.org/2000/svg">
<g filter="url(#filter0_d_229_3686)">
<path d="M4 4C4 1.79086 5.79086 0 8 0H62C64.2091 0 66 1.79086 66 4V43C66 45.2091 64.2091 47 62 47H8C5.79086 47 4 45.2091 4 43V4Z" fill="white" shape-rendering="crispEdges"/>
<path d="M28.2227 22.8164C28.2227 23.6367 28.1608 24.4505 28.0371 25.2578C27.9199 26.0651 27.7116 26.8268 27.4121 27.543C27.1126 28.2526 26.6927 28.8841 26.1523 29.4375C25.612 29.9844 24.9251 30.4141 24.0918 30.7266C23.2585 31.0391 22.2493 31.1953 21.0645 31.1953C20.7845 31.1953 20.4557 31.1823 20.0781 31.1562C19.7005 31.1367 19.388 31.1042 19.1406 31.0586V28.6367C19.401 28.7018 19.6777 28.7539 19.9707 28.793C20.2637 28.8255 20.5599 28.8418 20.8594 28.8418C22.0508 28.8418 22.9688 28.653 23.6133 28.2754C24.2643 27.8978 24.7201 27.3737 24.9805 26.7031C25.2474 26.0326 25.4004 25.2578 25.4395 24.3789H25.3223C25.1335 24.6914 24.9089 24.9746 24.6484 25.2285C24.3945 25.4759 24.069 25.6745 23.6719 25.8242C23.2747 25.9674 22.7702 26.0391 22.1582 26.0391C21.3444 26.0391 20.6348 25.8633 20.0293 25.5117C19.4303 25.1536 18.9648 24.6393 18.6328 23.9688C18.3073 23.2917 18.1445 22.4746 18.1445 21.5176C18.1445 20.4824 18.3398 19.597 18.7305 18.8613C19.1276 18.1191 19.6908 17.5495 20.4199 17.1523C21.1491 16.7552 22.0085 16.5566 22.998 16.5566C23.7272 16.5566 24.4076 16.6836 25.0391 16.9375C25.6706 17.1849 26.224 17.5658 26.6992 18.0801C27.181 18.5944 27.5553 19.2454 27.8223 20.0332C28.0892 20.821 28.2227 21.7487 28.2227 22.8164ZM23.0566 18.9785C22.4707 18.9785 21.9922 19.1803 21.6211 19.584C21.25 19.9876 21.0645 20.6191 21.0645 21.4785C21.0645 22.1686 21.224 22.7155 21.543 23.1191C21.862 23.5228 22.347 23.7246 22.998 23.7246C23.4473 23.7246 23.8379 23.627 24.1699 23.4316C24.502 23.2298 24.7591 22.9792 24.9414 22.6797C25.1302 22.3737 25.2246 22.0612 25.2246 21.7422C25.2246 21.4102 25.179 21.0814 25.0879 20.7559C24.9967 20.4303 24.86 20.1341 24.6777 19.8672C24.4954 19.6003 24.2676 19.3854 23.9941 19.2227C23.7272 19.0599 23.4147 18.9785 23.0566 18.9785ZM39.6484 23.8613C39.6484 25.0137 39.5573 26.0423 39.375 26.9473C39.1992 27.8522 38.9128 28.6204 38.5156 29.252C38.125 29.8835 37.6107 30.3652 36.9727 30.6973C36.3346 31.0293 35.5599 31.1953 34.6484 31.1953C33.5026 31.1953 32.5618 30.9056 31.8262 30.3262C31.0905 29.7402 30.5469 28.9004 30.1953 27.8066C29.8438 26.7064 29.668 25.3913 29.668 23.8613C29.668 22.3184 29.8275 21 30.1465 19.9062C30.472 18.806 30.9993 17.9629 31.7285 17.377C32.4577 16.791 33.431 16.498 34.6484 16.498C35.7878 16.498 36.7253 16.791 37.4609 17.377C38.2031 17.9564 38.7533 18.7962 39.1113 19.8965C39.4694 20.9902 39.6484 22.3118 39.6484 23.8613ZM32.666 23.8613C32.666 24.9486 32.7246 25.8568 32.8418 26.5859C32.9655 27.3086 33.1706 27.8522 33.457 28.2168C33.7435 28.5814 34.1406 28.7637 34.6484 28.7637C35.1497 28.7637 35.5436 28.5846 35.8301 28.2266C36.123 27.862 36.3314 27.3184 36.4551 26.5957C36.5788 25.8665 36.6406 24.9551 36.6406 23.8613C36.6406 22.7741 36.5788 21.8659 36.4551 21.1367C36.3314 20.4076 36.123 19.8607 35.8301 19.4961C35.5436 19.125 35.1497 18.9395 34.6484 18.9395C34.1406 18.9395 33.7435 19.125 33.457 19.4961C33.1706 19.8607 32.9655 20.4076 32.8418 21.1367C32.7246 21.8659 32.666 22.7741 32.666 23.8613ZM47.168 22.8848H50.9473V25.0234H47.168V28.7832H45.0293V25.0234H41.25V22.8848H45.0293V19.0762H47.168V22.8848Z" fill="#F5AA00"/>
</g>
<mask id="mask0_229_3686" style="mask-type:alpha" maskUnits="userSpaceOnUse" x="17" y="32" width="36" height="35">
<rect x="17.5" y="32" width="35" height="35" fill="#D9D9D9"/>
</mask>
<g mask="url(#mask0_229_3686)">
<path d="M35 53.8752L27.7084 46.5835H42.2917L35 53.8752Z" fill="white"/>
</g>
<defs>
<filter id="filter0_d_229_3686" x="0" y="0" width="70" height="55" filterUnits="userSpaceOnUse" color-interpolation-filters="sRGB">
<feFlood flood-opacity="0" result="BackgroundImageFix"/>
<feColorMatrix in="SourceAlpha" type="matrix" values="0 0 0 0 0 0 0 0 0 0 0 0 0 0 0 0 0 0 127 0" result="hardAlpha"/>
<feOffset dy="4"/>
<feGaussianBlur stdDeviation="2"/>
<feComposite in2="hardAlpha" operator="out"/>
<feColorMatrix type="matrix" values="0 0 0 0 0 0 0 0 0 0 0 0 0 0 0 0 0 0 0.25 0"/>
<feBlend mode="normal" in2="BackgroundImageFix" result="effect1_dropShadow_229_3686"/>
<feBlend mode="normal" in="SourceGraphic" in2="effect1_dropShadow_229_3686" result="shape"/>
</filter>
</defs>
</svg>
