<svg width="166" height="163" viewBox="0 0 166 163" fill="none" xmlns="http://www.w3.org/2000/svg">
<path d="M69.1677 158.27L67.9363 158.208L68.5813 150.959C68.6388 150.312 68.8069 149.768 69.0855 149.328C69.3641 148.887 69.7306 148.561 70.1851 148.348C70.6396 148.136 71.1614 148.044 71.7506 148.074C72.3068 148.102 72.7927 148.228 73.2084 148.451C73.6238 148.677 73.9389 148.985 74.1537 149.374C74.3685 149.763 74.4528 150.216 74.4067 150.735L73.1952 150.674C73.2207 150.387 73.1719 150.132 73.0486 149.91C72.9218 149.692 72.7379 149.517 72.4969 149.385C72.2559 149.254 71.9748 149.18 71.6537 149.164C71.2995 149.146 70.9917 149.205 70.7302 149.341C70.4687 149.477 70.2607 149.685 70.106 149.966C69.9478 150.25 69.85 150.601 69.8127 151.021L69.1677 158.27Z" fill="white"/>
<path d="M56.0851 150.273C56.342 149.23 56.7551 148.361 57.3246 147.666C57.8942 146.97 58.563 146.472 59.3313 146.172C60.0996 145.872 60.912 145.794 61.7684 145.938C62.6248 146.081 63.3357 146.415 63.901 146.939C64.4664 147.463 64.8467 148.136 65.0421 148.96C65.2375 149.784 65.2068 150.717 64.9499 151.76C64.6931 152.802 64.28 153.671 63.7104 154.367C63.1409 155.062 62.472 155.56 61.7038 155.86C60.9355 156.16 60.1231 156.238 59.2667 156.094C58.4103 155.951 57.6994 155.617 57.1341 155.093C56.5687 154.569 56.1883 153.896 55.993 153.072C55.7976 152.248 55.8283 151.315 56.0851 150.273ZM57.2619 150.47C57.051 151.326 57.0185 152.073 57.1644 152.711C57.307 153.348 57.5878 153.859 58.0069 154.244C58.4227 154.629 58.9346 154.872 59.5426 154.974C60.1506 155.076 60.7386 155.018 61.3067 154.798C61.8715 154.578 62.3719 154.197 62.8079 153.657C63.2406 153.117 63.5624 152.418 63.7732 151.562C63.984 150.706 64.0182 149.959 63.8756 149.322C63.7297 148.685 63.4489 148.173 63.0331 147.789C62.614 147.403 62.1005 147.16 61.4925 147.058C60.8845 146.956 60.2981 147.015 59.7333 147.235C59.1652 147.455 58.6648 147.835 58.2321 148.376C57.7961 148.916 57.4727 149.614 57.2619 150.47Z" fill="white"/>
<path d="M50.3469 153L54.5912 143.745L55.7836 144.059L51.5394 153.314L50.3469 153Z" fill="white"/>
<path d="M38.8434 146.681L44.0304 137.919L45.126 138.392L46.148 147.468L46.2393 147.508L50.3119 140.628L51.4441 141.117L46.257 149.878L45.1614 149.406L44.1313 140.304L44.04 140.265L39.9572 147.161L38.8434 146.681Z" fill="white"/>
<path d="M40.3924 132.462L33.0042 139.468L30.2859 137.359C29.6548 136.87 29.2435 136.37 29.052 135.861C28.8555 135.352 28.8372 134.855 28.9969 134.369C29.1567 133.884 29.4542 133.434 29.8895 133.022C30.3248 132.609 30.8173 132.309 31.367 132.122C31.9142 131.932 32.4939 131.893 33.1062 132.003C33.7161 132.115 34.334 132.414 34.9599 132.9L36.9083 134.411L36.1147 135.164L34.1977 133.677C33.7656 133.342 33.35 133.137 32.9511 133.064C32.5521 132.991 32.1771 133.019 31.8259 133.149C31.4698 133.279 31.1438 133.485 30.848 133.765C30.5522 134.046 30.3478 134.343 30.235 134.658C30.1196 134.971 30.128 135.292 30.2602 135.623C30.39 135.956 30.6736 136.292 31.111 136.631L32.8237 137.96L39.4182 131.706L40.3924 132.462Z" fill="white"/>
<path d="M34.0169 126.714L34.9197 127.639L24.0942 130.98L23.2053 130.069L28.8083 121.377L29.7112 122.302L24.9215 129.544L24.9771 129.601L34.0169 126.714ZM30.4748 128.722L26.8358 124.994L27.7182 124.347L31.3572 128.076L30.4748 128.722Z" fill="white"/>
<path d="M28.3533 120.077L19.4471 125.012L18.7165 124.019L23.1348 121.571L23.0641 121.475L15.9357 120.238L14.9813 118.941L21.5329 120.158L23.8875 114.006L24.7712 115.208L22.7286 120.353L24.7352 120.684L27.6227 119.084L28.3533 120.077Z" fill="white"/>
<path d="M12.9132 112.498L22.3837 108.759L22.9741 109.841L13.5036 113.58L12.9132 112.498Z" fill="white"/>
<path d="M11.1107 100.235C10.6442 100.422 10.3482 100.751 10.2228 101.222C10.0974 101.693 10.1389 102.219 10.3474 102.799C10.4999 103.223 10.7037 103.575 10.959 103.856C11.2131 104.133 11.4953 104.328 11.8058 104.44C12.1151 104.548 12.4266 104.561 12.7404 104.477C13.0029 104.406 13.2067 104.285 13.3519 104.113C13.4928 103.938 13.5909 103.738 13.6462 103.511C13.6984 103.285 13.7264 103.055 13.7302 102.822C13.7308 102.589 13.7231 102.377 13.7073 102.187L13.6264 101.142C13.604 100.874 13.597 100.572 13.6056 100.234C13.6131 99.8937 13.6689 99.5556 13.7729 99.2201C13.8726 98.8822 14.0478 98.5789 14.2986 98.31C14.5494 98.0411 14.9054 97.845 15.3664 97.7215C15.8979 97.5793 16.4269 97.5864 16.9534 97.7429C17.4789 97.8963 17.9611 98.198 18.4001 98.648C18.8381 99.0949 19.1893 99.6864 19.4539 100.423C19.7005 101.109 19.8004 101.733 19.7536 102.296C19.7057 102.856 19.5299 103.334 19.2265 103.73C18.9219 104.123 18.5074 104.41 17.983 104.591L17.5525 103.393C17.9126 103.263 18.1763 103.059 18.3434 102.782C18.5061 102.502 18.5879 102.183 18.5886 101.824C18.5851 101.462 18.5149 101.091 18.3781 100.711C18.2189 100.268 18.0023 99.8897 17.7284 99.5766C17.4512 99.2645 17.1428 99.041 16.8031 98.9063C16.4601 98.7725 16.1094 98.7535 15.7508 98.8495C15.4242 98.937 15.1904 99.097 15.0494 99.3296C14.9084 99.5623 14.826 99.8408 14.8022 100.165C14.7784 100.489 14.779 100.833 14.8041 101.196L14.882 102.467C14.9302 103.275 14.8278 103.952 14.575 104.498C14.3221 105.045 13.8643 105.407 13.2016 105.584C12.6509 105.731 12.1185 105.715 11.6044 105.535C11.086 105.352 10.6246 105.045 10.2202 104.613C9.81141 104.178 9.49716 103.656 9.27742 103.044C9.05545 102.427 8.9718 101.847 9.02647 101.306C9.07794 100.766 9.24852 100.303 9.53822 99.9178C9.82681 99.5294 10.2164 99.261 10.7071 99.1125L11.1107 100.235Z" fill="white"/>
<path d="M8.86589 96.8092L7.78344 96.966L6.31183 89.4728L7.39428 89.3159L8.01128 92.4576L17.0055 91.1546L17.2431 92.3644L8.24889 93.6675L8.86589 96.8092Z" fill="white"/>
<path d="M17.3098 86.3769L17.3604 87.6685L7.03622 84.2228L6.98634 82.951L17.0175 78.9252L17.0682 80.2168L8.61986 83.5013L8.62298 83.5808L17.3098 86.3769ZM13.3154 86.0133L13.1112 80.807L14.2045 80.7759L14.4087 85.9821L13.3154 86.0133Z" fill="white"/>
<path d="M6.93751 68.9629L17.0817 69.8377L16.9426 71.0228L8.33118 75.8464L8.31959 75.9451L16.2843 76.632L16.1406 77.8565L5.99647 76.9817L6.13554 75.7967L14.7691 70.955L14.7807 70.8563L6.79612 70.1677L6.93751 68.9629Z" fill="white"/>
<path d="M8.42684 62.1847L9.30384 62.3627C9.57019 62.4168 9.84101 62.5223 10.1163 62.6794C10.3892 62.8326 10.6415 63.0289 10.8732 63.2682C11.1026 63.5036 11.2854 63.7701 11.4219 64.0676L10.7437 64.5776C10.5076 64.3172 10.2526 64.0816 9.9786 63.8708C9.70225 63.6562 9.38381 63.5123 9.02326 63.4391L8.12677 63.2572L8.42684 62.1847Z" fill="white"/>
<path d="M14.8551 52.0049C14.3529 51.9003 13.8833 51.9978 13.4464 52.2974C13.0096 52.5969 12.6657 53.0283 12.4148 53.5914C12.2313 54.0031 12.1399 54.3864 12.1407 54.7412C12.1428 55.0931 12.2265 55.3956 12.3917 55.6487C12.5583 55.8989 12.7957 56.0752 13.1039 56.1778C13.3618 56.2636 13.6098 56.2784 13.8479 56.2221C14.0843 56.1617 14.3056 56.0581 14.5119 55.9112C14.715 55.7633 14.9018 55.5995 15.0722 55.4198C15.2394 55.239 15.385 55.0702 15.5091 54.9134L16.1942 54.0568C16.3681 53.8365 16.5794 53.5975 16.828 53.3395C17.0779 53.0785 17.3642 52.8453 17.6869 52.6398C18.0078 52.4303 18.3637 52.288 18.7546 52.213C19.1456 52.138 19.5674 52.1759 20.0203 52.3266C20.5423 52.5004 20.9553 52.7891 21.2594 53.1928C21.5647 53.5934 21.7297 54.0863 21.7542 54.6716C21.78 55.2538 21.6337 55.9021 21.3153 56.6166C21.0185 57.2826 20.6498 57.8222 20.2094 58.2352C19.7702 58.6453 19.2889 58.9231 18.7654 59.0687C18.2432 59.2113 17.7099 59.2128 17.1654 59.0732L17.6835 57.9107C18.0618 58.0019 18.4163 57.9843 18.747 57.858C19.076 57.7276 19.3694 57.5228 19.6274 57.2437C19.8837 56.9605 20.0941 56.6342 20.2587 56.2649C20.4502 55.835 20.5499 55.4249 20.5577 55.0347C20.5624 54.6434 20.4787 54.3044 20.3067 54.0177C20.1316 53.7299 19.8679 53.5275 19.5157 53.4102C19.195 53.3035 18.8955 53.3029 18.6173 53.4084C18.3392 53.514 18.0745 53.6866 17.8232 53.9263C17.5719 54.166 17.3263 54.4336 17.0862 54.7291L16.2366 55.7604C15.6959 56.4148 15.1298 56.8869 14.5384 57.1767C13.947 57.4666 13.3258 57.5032 12.6748 57.2865C12.1339 57.1064 11.7249 56.8087 11.4479 56.3931C11.169 55.9735 11.0245 55.4874 11.0144 54.9348C11.0025 54.378 11.1288 53.803 11.3932 53.2096C11.6603 52.6102 12.0094 52.1145 12.4404 51.7226C12.8683 51.3297 13.3348 51.0608 13.8399 50.9161C14.3463 50.7683 14.8466 50.768 15.3408 50.9151L14.8551 52.0049Z" fill="white"/>
<path d="M17.6426 38.8991L18.5567 37.8231L24.3898 38.2303L24.4671 38.1394L22.2904 33.4278L23.2045 32.3517L25.8665 38.3789L29.4022 40.6385L28.6039 41.5782L25.0683 39.3186L17.6426 38.8991Z" fill="white"/>
<path d="M34.7502 27.7797C35.5724 28.4706 36.1387 29.1971 36.449 29.9595C36.7594 30.7218 36.8255 31.4654 36.6474 32.1901C36.4692 32.9149 36.0571 33.5674 35.4111 34.1477C34.7651 34.7281 34.0282 35.1077 33.2004 35.2866C32.3727 35.4656 31.5151 35.433 30.6278 35.189C29.7404 34.9449 28.8857 34.4775 28.0635 33.7867C27.2413 33.0959 26.6751 32.3693 26.3647 31.6069C26.0543 30.8446 25.9882 30.1011 26.1664 29.3763C26.3446 28.6515 26.7566 27.999 27.4026 27.4187C28.0486 26.8383 28.7855 26.4587 29.6133 26.2798C30.4411 26.1009 31.2986 26.1334 32.186 26.3774C33.0733 26.6215 33.9281 27.0889 34.7502 27.7797ZM33.8626 28.5771C33.1876 28.01 32.5082 27.6299 31.8244 27.4368C31.1431 27.2415 30.497 27.2109 29.8861 27.345C29.2778 27.4768 28.7443 27.7487 28.2857 28.1607C27.8271 28.5726 27.5309 29.0461 27.3971 29.5809C27.2658 30.1136 27.3226 30.6736 27.5676 31.2609C27.8149 31.846 28.2761 32.4221 28.9511 32.9893C29.6261 33.5565 30.3043 33.9377 30.9856 34.1329C31.6694 34.326 32.3155 34.3566 32.9239 34.2248C33.5347 34.0907 34.0694 33.8177 34.528 33.4058C34.9866 32.9938 35.2816 32.5215 35.4129 31.9888C35.5467 31.4539 35.4899 30.8939 35.2425 30.3088C34.9976 29.7215 34.5376 29.1443 33.8626 28.5771Z" fill="white"/>
<path d="M37.4908 19.2187L38.509 18.5235L43.0553 23.5013C43.5246 24.0153 43.8082 24.5667 43.906 25.1555C44.0044 25.74 43.9147 26.3158 43.6371 26.8829C43.3572 27.4475 42.8875 27.955 42.2278 28.4054C41.5682 28.8559 40.8883 29.1333 40.1883 29.2378C39.486 29.3399 38.8161 29.2827 38.1785 29.0664C37.5415 28.8458 36.9883 28.4785 36.5189 27.9645L31.9727 22.9866L32.9909 22.2914L37.4701 27.1958C37.8054 27.5629 38.1941 27.828 38.6362 27.991C39.0762 28.1515 39.538 28.1997 40.0217 28.1357C40.5058 28.0673 40.982 27.8734 41.45 27.5538C41.9181 27.2342 42.2467 26.8787 42.4358 26.4872C42.6227 26.0934 42.6755 25.6938 42.5942 25.2884C42.5133 24.8787 42.3053 24.4903 41.97 24.1232L37.4908 19.2187Z" fill="white"/>
<path d="M40.3884 16.8607L39.7608 15.9649L46.5889 12.5458L47.2165 13.4416L44.3537 14.8751L49.5684 22.3182L48.4659 22.8703L43.2512 15.4271L40.3884 16.8607Z" fill="white"/>
<path d="M53.4114 20.168L48.8585 11.0608L50.0187 10.6435L52.0461 14.6991L57.1547 12.8617L55.1273 8.80613L56.2875 8.38884L60.8404 17.496L59.6802 17.9133L57.6438 13.84L52.5352 15.6774L54.5716 19.7507L53.4114 20.168Z" fill="white"/>
<path d="M77.5111 7.16776L76.2855 7.30201C76.1552 6.96004 75.9776 6.66655 75.7527 6.42152C75.531 6.17612 75.2768 5.97757 74.9902 5.82587C74.7062 5.67053 74.4018 5.56404 74.077 5.5064C73.7522 5.44876 73.4218 5.43834 73.0857 5.47515C72.4729 5.54227 71.9431 5.75677 71.4964 6.11866C71.0529 6.48018 70.734 6.97621 70.5396 7.60676C70.3485 8.23695 70.3247 8.98697 70.4684 9.85682C70.612 10.7267 70.8782 11.4449 71.267 12.0116C71.659 12.5779 72.1275 12.9877 72.6725 13.241C73.2207 13.4939 73.8013 13.5867 74.4141 13.5196C74.7501 13.4828 75.0654 13.4017 75.36 13.2762C75.6546 13.1507 75.9139 12.9841 76.1379 12.7765C76.3646 12.5652 76.5451 12.3174 76.6793 12.033C76.8162 11.745 76.8923 11.4237 76.9075 11.0692L78.1332 10.9349C78.1257 11.4584 78.0335 11.9363 77.8567 12.3685C77.6798 12.8007 77.4337 13.1789 77.1182 13.5031C76.8023 13.824 76.4307 14.0828 76.0037 14.2794C75.5799 14.4756 75.1127 14.6017 74.602 14.6576C73.7388 14.7522 72.9366 14.627 72.1953 14.282C71.4541 13.9371 70.827 13.3998 70.3141 12.6703C69.8012 11.9408 69.4572 11.0462 69.2823 9.98673C69.1073 8.92722 69.1489 7.99047 69.4069 7.17651C69.665 6.36254 70.0955 5.70946 70.6985 5.21726C71.3015 4.72507 72.0346 4.4317 72.8978 4.33715C73.4085 4.28122 73.9 4.30229 74.3724 4.40036C74.848 4.49808 75.2906 4.66934 75.7 4.91414C76.1088 5.15567 76.4686 5.46583 76.7794 5.84462C77.0896 6.22014 77.3335 6.66119 77.5111 7.16776Z" fill="white"/>
<path d="M87.6138 8.98612C87.6138 10.06 87.4199 10.988 87.0321 11.7702C86.6443 12.5524 86.1124 13.1556 85.4362 13.5799C84.7601 14.0041 83.9878 14.2162 83.1195 14.2162C82.2511 14.2162 81.4788 14.0041 80.8027 13.5799C80.1266 13.1556 79.5946 12.5524 79.2068 11.7702C78.819 10.988 78.6251 10.06 78.6251 8.98612C78.6251 7.91225 78.819 6.98422 79.2068 6.20203C79.5946 5.41983 80.1266 4.81661 80.8027 4.39237C81.4788 3.96812 82.2511 3.756 83.1195 3.756C83.9878 3.756 84.7601 3.96812 85.4362 4.39237C86.1124 4.81661 86.6443 5.41983 87.0321 6.20203C87.4199 6.98422 87.6138 7.91225 87.6138 8.98612ZM86.4206 8.98612C86.4206 8.10449 86.2731 7.36041 85.9781 6.75387C85.6865 6.14734 85.2904 5.6883 84.7899 5.37674C84.2928 5.06519 83.7359 4.90941 83.1195 4.90941C82.503 4.90941 81.9445 5.06519 81.444 5.37674C80.9469 5.6883 80.5508 6.14734 80.2558 6.75387C79.9642 7.36041 79.8183 8.10449 79.8183 8.98612C79.8183 9.86775 79.9642 10.6118 80.2558 11.2184C80.5508 11.8249 80.9469 12.2839 81.444 12.5955C81.9445 12.907 82.503 13.0628 83.1195 13.0628C83.7359 13.0628 84.2928 12.907 84.7899 12.5955C85.2904 12.2839 85.6865 11.8249 85.9781 11.2184C86.2731 10.6118 86.4206 9.86775 86.4206 8.98612Z" fill="white"/>
<path d="M96.2598 4.93039L97.4855 5.06463L96.3871 11.716C96.2737 12.4028 96.0094 12.998 95.5941 13.5019C95.1827 14.0028 94.6565 14.3763 94.0154 14.6224C93.3749 14.8652 92.6576 14.9431 91.8636 14.8561C91.0696 14.7691 90.4031 14.5397 89.8641 14.1677C89.3256 13.7924 88.9376 13.3188 88.7 12.7468C88.4662 12.1718 88.406 11.541 88.5194 10.8543L89.6177 4.20287L90.8434 4.33711L89.7612 10.8904C89.6802 11.3809 89.7169 11.8294 89.8712 12.2358C90.026 12.639 90.2863 12.9721 90.652 13.2352C91.0216 13.4954 91.4881 13.6564 92.0515 13.7181C92.6149 13.7798 93.1171 13.725 93.5579 13.5535C93.9994 13.3788 94.3585 13.1135 94.6353 12.7576C94.9159 12.3989 95.0967 11.9742 95.1777 11.4837L96.2598 4.93039Z" fill="white"/>
<path d="M107.694 7.61396L104.518 17.2877L103.354 17.0218L100.439 8.1904L100.342 8.16825L97.8485 15.7636L96.6466 15.4889L99.8229 5.81524L100.986 6.08106L103.914 14.9358L104.011 14.958L106.511 7.34371L107.694 7.61396Z" fill="white"/>
<path d="M116.245 14.4274L115.085 14.0101C115.175 13.6682 115.194 13.3463 115.143 13.0445C115.094 12.7438 114.989 12.4682 114.828 12.2176C114.67 11.9652 114.466 11.7448 114.214 11.5564C113.963 11.3679 113.678 11.2165 113.36 11.1021C112.78 10.8934 112.184 10.8437 111.574 10.953C110.967 11.0634 110.389 11.34 109.84 11.7827C109.295 12.2265 108.825 12.8427 108.43 13.6312C108.036 14.4198 107.841 15.1347 107.844 15.7759C107.85 16.4183 108.018 16.9629 108.346 17.4099C108.678 17.8579 109.134 18.1863 109.714 18.3949C110.032 18.5093 110.358 18.5778 110.693 18.6002C111.028 18.6226 111.356 18.5955 111.678 18.5188C112.004 18.4403 112.311 18.3113 112.6 18.1317C112.893 17.9503 113.152 17.7148 113.378 17.4253L114.538 17.8426C114.218 18.2766 113.851 18.6359 113.436 18.9205C113.022 19.2051 112.578 19.4147 112.106 19.5492C111.636 19.6808 111.153 19.7364 110.659 19.7161C110.169 19.697 109.682 19.6005 109.198 19.4266C108.381 19.1327 107.749 18.6816 107.303 18.0733C106.856 17.465 106.625 16.7454 106.61 15.9145C106.595 15.0836 106.828 14.1879 107.308 13.2274C107.788 12.2669 108.385 11.5024 109.1 10.934C109.815 10.3656 110.585 10.0061 111.411 9.85549C112.237 9.70486 113.058 9.77649 113.875 10.0704C114.359 10.2443 114.779 10.4742 115.137 10.7601C115.497 11.0472 115.785 11.3814 115.999 11.7627C116.214 12.1411 116.346 12.5556 116.393 13.0062C116.441 13.4538 116.392 13.9276 116.245 14.4274Z" fill="white"/>
<path d="M122.665 15.5222L116.613 23.7104L115.499 23.1817L121.551 14.9935L122.665 15.5222Z" fill="white"/>
<path d="M121.296 26.9835L128.232 19.5298L129.257 20.2162L123.065 26.8692L126.997 29.504L126.252 30.3046L121.296 26.9835Z" fill="white"/>
<path d="M137.855 40.0577C137.594 39.7531 137.438 39.4226 137.388 39.0663C137.34 38.7081 137.392 38.3649 137.542 38.0364C137.695 37.7105 137.941 37.4402 138.28 37.2256C138.621 37.0092 138.994 36.8874 139.399 36.8602C139.808 36.8339 140.203 36.8942 140.584 37.0412C140.967 37.1865 141.29 37.4114 141.551 37.7159C141.814 38.023 141.968 38.3544 142.013 38.71C142.064 39.0663 142.013 39.4075 141.86 39.7334C141.712 40.06 141.468 40.3316 141.126 40.548C140.787 40.7627 140.413 40.8832 140.004 40.9096C139.597 40.9385 139.201 40.8803 138.818 40.735C138.439 40.5905 138.118 40.3647 137.855 40.0577Z" fill="white"/>
<path d="M143.191 54.537L152.854 51.3289L153.357 52.4546L144.732 55.3181L146.663 59.6393L145.625 59.984L143.191 54.537Z" fill="white"/>
<path d="M146.403 63.1591L156.377 61.1119L158.016 67.0343L156.945 67.2542L155.635 62.5201L152.265 63.2118L153.49 67.6392L152.418 67.8591L151.193 63.4318L147.804 64.1275L149.135 68.9382L148.063 69.1581L146.403 63.1591Z" fill="white"/>
<path d="M148.331 71.284L148.18 70.0003L158.761 72.8392L158.909 74.1033L149.201 78.6905L149.05 77.4067L157.235 73.649L157.226 73.57L148.331 71.284ZM152.349 71.4166L152.957 76.5913L151.868 76.6852L151.26 71.5105L152.349 71.4166Z" fill="white"/>
<path d="M148.061 83.1431L148.184 80.0035L158.362 80.2936L158.233 83.5724C158.194 84.5593 157.958 85.398 157.522 86.0885C157.091 86.7791 156.488 87.3007 155.715 87.6533C154.945 88.006 154.033 88.1674 152.979 88.1373C151.919 88.1071 151.014 87.8923 150.263 87.4929C149.516 87.0937 148.951 86.5272 148.569 85.7935C148.19 85.0599 148.02 84.1764 148.061 83.1431ZM149.229 81.2667L149.157 83.0948C149.124 83.936 149.259 84.6378 149.562 85.2001C149.865 85.7625 150.311 86.188 150.9 86.4766C151.489 86.7653 152.198 86.9214 153.026 86.9451C153.848 86.9685 154.56 86.8545 155.164 86.6032C155.771 86.3519 156.244 85.9642 156.583 85.4401C156.925 84.916 157.112 84.2566 157.143 83.4617L157.22 81.4945L149.229 81.2667Z" fill="white"/>
<path d="M155.739 100.175L156.795 100.458L154.212 107.644L153.156 107.361L154.239 104.348L145.46 101.998L145.877 100.838L154.656 103.188L155.739 100.175Z" fill="white"/>
<path d="M144.061 106.153L153.503 109.965L152.922 111.052L148.718 109.355L146.162 114.145L150.367 115.842L149.787 116.93L140.345 113.119L140.925 112.031L145.148 113.736L147.704 108.946L143.481 107.241L144.061 106.153Z" fill="white"/>
<path d="M139.493 114.977L148.407 119.898L144.757 124.841L143.8 124.313L146.717 120.361L143.705 118.698L140.977 122.394L140.019 121.865L142.748 118.17L139.718 116.498L136.754 120.513L135.796 119.985L139.493 114.977Z" fill="white"/>
<path d="M128.274 138.624L129.244 137.863C129.558 138.064 129.883 138.201 130.22 138.274C130.555 138.349 130.89 138.37 131.225 138.337C131.56 138.308 131.883 138.229 132.195 138.101C132.507 137.973 132.796 137.805 133.062 137.596C133.548 137.216 133.875 136.763 134.043 136.239C134.21 135.717 134.19 135.155 133.984 134.553C133.776 133.953 133.354 133.348 132.717 132.738C132.081 132.128 131.429 131.703 130.762 131.463C130.092 131.226 129.449 131.152 128.832 131.243C128.214 131.337 127.662 131.574 127.177 131.954C126.911 132.163 126.689 132.395 126.51 132.652C126.332 132.908 126.208 133.178 126.139 133.462C126.07 133.75 126.062 134.042 126.115 134.338C126.167 134.639 126.292 134.933 126.488 135.221L125.518 135.982C125.215 135.565 125.012 135.138 124.908 134.702C124.805 134.266 124.792 133.836 124.871 133.412C124.952 132.99 125.117 132.587 125.367 132.203C125.614 131.822 125.94 131.473 126.344 131.156C127.027 130.62 127.788 130.29 128.626 130.167C129.465 130.043 130.319 130.132 131.189 130.434C132.058 130.736 132.881 131.259 133.656 132.002C134.431 132.745 134.949 133.507 135.208 134.287C135.468 135.068 135.485 135.814 135.259 136.524C135.033 137.235 134.578 137.859 133.895 138.394C133.491 138.711 133.057 138.957 132.595 139.132C132.13 139.309 131.65 139.411 131.155 139.436C130.662 139.464 130.171 139.411 129.682 139.278C129.194 139.147 128.725 138.929 128.274 138.624Z" fill="white"/>
<path d="M122.876 134.397L129.22 142.361L128.159 142.989L125.334 139.442L120.661 142.206L123.486 145.753L122.425 146.38L116.081 138.417L117.142 137.789L119.98 141.351L124.652 138.587L121.815 135.025L122.876 134.397Z" fill="white"/>
<path d="M115.505 140.137L116.693 139.628L118.473 149.843L117.303 150.343L108.649 143.071L109.837 142.562L117.026 148.725L117.099 148.694L115.505 140.137ZM117.104 143.74L112.314 145.79L111.753 144.851L116.543 142.801L117.104 143.74Z" fill="white"/>
<path d="M103.914 155.362L100.031 145.949L101.177 145.615L109.55 151.448L109.646 151.42L106.597 144.03L107.781 143.684L111.663 153.097L110.518 153.431L102.118 147.585L102.022 147.613L105.078 155.022L103.914 155.362Z" fill="white"/>
<path d="M94.0005 154.251C94.1884 154.558 94.4023 154.826 94.6423 155.054C94.8797 155.285 95.142 155.472 95.429 155.615C95.7128 155.759 96.0186 155.853 96.3464 155.899C96.6742 155.944 97.0195 155.937 97.3823 155.876C97.9772 155.776 98.4809 155.534 98.8934 155.15C99.306 154.766 99.5835 154.255 99.7261 153.618C99.8687 152.981 99.8346 152.234 99.6237 151.378C99.4129 150.522 99.0895 149.824 98.6535 149.284C98.2175 148.743 97.7139 148.364 97.1425 148.145C96.5712 147.925 95.975 147.868 95.3539 147.972C94.7786 148.069 94.3017 148.274 93.9231 148.589C93.5421 148.908 93.2837 149.31 93.1479 149.795C93.0097 150.284 93.015 150.831 93.1641 151.436L92.7724 151.421L95.7927 150.915L96.0543 151.977L92.2299 152.618L91.9683 151.556C91.7678 150.742 91.7699 150.004 91.9747 149.343C92.1762 148.683 92.545 148.135 93.0812 147.7C93.6149 147.269 94.2805 146.986 95.078 146.852C95.9671 146.703 96.7991 146.778 97.5739 147.077C98.3455 147.377 99.0127 147.875 99.5757 148.571C100.135 149.268 100.544 150.138 100.8 151.181C100.993 151.963 101.06 152.684 101.001 153.344C100.94 154.007 100.768 154.592 100.484 155.099C100.2 155.606 99.8196 156.022 99.3414 156.346C98.8632 156.671 98.3021 156.888 97.6581 156.996C97.1286 157.085 96.6156 157.089 96.1191 157.008C95.6202 156.93 95.1557 156.779 94.7256 156.553C94.293 156.33 93.907 156.042 93.5676 155.686C93.229 155.334 92.9549 154.926 92.7453 154.462L94.0005 154.251Z" fill="white"/>
<path d="M89.4379 147.83L90.3183 157.973L84.1816 158.29L84.087 157.201L88.9924 156.947L88.6949 153.52L84.1073 153.757L84.0127 152.667L88.6003 152.43L88.3011 148.983L83.3163 149.24L83.2217 148.151L89.4379 147.83Z" fill="white"/>
<path d="M71.2396 65.164C70.9889 65.2127 70.7431 65.3606 70.5563 65.5753C70.3694 65.79 70.2568 66.0538 70.2432 66.3088L69.8334 74.002C69.8245 74.1301 69.8405 74.2525 69.8808 74.3621C69.921 74.4716 69.9845 74.5662 70.0676 74.6402C70.1508 74.7142 70.2518 74.7662 70.365 74.7931C70.4781 74.82 70.601 74.8214 70.7266 74.797C70.8521 74.7727 70.9777 74.7232 71.0961 74.6513C71.2145 74.5795 71.3233 74.4868 71.4162 74.3787C71.509 74.2706 71.584 74.1492 71.6369 74.0215C71.6897 73.8939 71.7193 73.7627 71.7239 73.6354L72.01 68.2636L80.3831 75.5519C80.5508 75.6979 80.7859 75.7526 81.0366 75.704C81.2874 75.6554 81.5332 75.5074 81.7201 75.2927C81.907 75.078 82.0196 74.8141 82.0332 74.559C82.0468 74.304 81.9602 74.0787 81.7925 73.9328L73.4194 66.6445L78.7004 65.6205C78.9485 65.568 79.1903 65.419 79.3736 65.2055C79.5569 64.9919 79.6672 64.731 79.6806 64.4789C79.694 64.2267 79.6096 64.0035 79.4454 63.8574C79.2812 63.7113 79.0505 63.6538 78.8029 63.6975L71.2396 65.164Z" fill="white"/>
<path d="M49.1884 105.121L47.2451 105.436L49.1514 94.8115L51.399 94.4465L56.574 103.921L54.6307 104.237L50.6491 96.6837L50.5706 96.6965L49.1884 105.121ZM48.6124 101.17L53.9123 100.309L54.1497 101.772L48.8498 102.632L48.6124 101.17ZM58.2782 106.546L56.5953 96.1816L58.3423 95.8979L58.5447 97.1444L58.6477 97.1276C58.7096 96.9296 58.8072 96.7139 58.9406 96.4807C59.0734 96.2443 59.2702 96.0293 59.5309 95.8359C59.7911 95.6392 60.142 95.505 60.5837 95.4332C61.166 95.3387 61.7153 95.4023 62.2315 95.624C62.7504 95.842 63.1942 96.2182 63.5631 96.7526C63.9347 97.2832 64.1884 97.9673 64.3244 98.8048C64.4588 99.6325 64.4373 100.358 64.2598 100.981C64.0822 101.604 63.7843 102.106 63.3658 102.486C62.9474 102.866 62.4421 103.105 61.85 103.201C61.4181 103.271 61.0482 103.257 60.7402 103.159C60.4322 103.062 60.1751 102.925 59.9687 102.751C59.7651 102.572 59.601 102.399 59.4764 102.231L59.4028 102.243L60.0546 106.257L58.2782 106.546ZM58.9493 99.6675C59.0285 100.155 59.1665 100.571 59.3634 100.915C59.5636 101.258 59.8113 101.512 60.1064 101.676C60.4044 101.835 60.7415 101.885 61.1177 101.824C61.5103 101.76 61.8221 101.602 62.0531 101.35C62.2835 101.094 62.4361 100.772 62.5107 100.384C62.5881 99.9917 62.5885 99.5602 62.512 99.089C62.4361 98.6212 62.3015 98.2166 62.1084 97.8753C61.9153 97.5339 61.6696 97.2817 61.3711 97.1186C61.0726 96.9555 60.7255 96.9061 60.3296 96.9704C59.9501 97.032 59.6441 97.1841 59.4115 97.4267C59.1789 97.6693 59.0231 97.9817 58.9441 98.3639C58.8684 98.7455 58.8702 99.1801 58.9493 99.6675ZM66.915 105.143L65.2321 94.7792L66.9792 94.4955L67.1815 95.742L67.2846 95.7252C67.3465 95.5272 67.4441 95.3115 67.5775 95.0783C67.7103 94.8418 67.9071 94.6269 68.1678 94.4335C68.428 94.2368 68.7789 94.1025 69.2206 94.0308C69.8029 93.9363 70.3522 93.9999 70.8683 94.2216C71.3873 94.4396 71.8311 94.8158 72.2 95.3502C72.5715 95.8808 72.8253 96.5649 72.9613 97.4024C73.0957 98.2301 73.0742 98.9556 72.8966 99.5787C72.7191 100.202 72.4212 100.704 72.0027 101.084C71.5843 101.464 71.079 101.702 70.4869 101.798C70.055 101.868 69.6851 101.855 69.3771 101.757C69.0691 101.659 68.8119 101.523 68.6056 101.348C68.402 101.17 68.2379 100.997 68.1133 100.829L68.0397 100.841L68.6915 104.855L66.915 105.143ZM67.5862 98.2651C67.6654 98.7526 67.8034 99.1684 68.0003 99.5125C68.2005 99.856 68.4481 100.11 68.7433 100.273C69.0413 100.433 69.3783 100.482 69.7546 100.421C70.1472 100.358 70.4589 100.2 70.6899 99.9471C70.9204 99.6914 71.073 99.3695 71.1476 98.9813C71.225 98.5893 71.2254 98.1577 71.1489 97.6866C71.073 97.2188 70.9384 96.8142 70.7453 96.4728C70.5522 96.1315 70.3064 95.8793 70.008 95.7162C69.7095 95.5531 69.3624 95.5037 68.9665 95.568C68.587 95.6296 68.281 95.7817 68.0484 96.0243C67.8158 96.2669 67.66 96.5793 67.581 96.9615C67.5053 97.3431 67.5071 97.7777 67.5862 98.2651ZM75.2375 90.5758L76.8694 100.626L75.093 100.914L73.4611 90.8642L75.2375 90.5758ZM80.2593 102.977C80.0172 103.016 79.7899 103.033 79.5774 103.027C79.3687 103.024 79.1999 103.008 79.0709 102.978L79.2584 101.527C79.529 101.561 79.7655 101.559 79.9678 101.523C80.1701 101.487 80.3381 101.394 80.4717 101.245C80.609 101.098 80.7086 100.874 80.7703 100.572L80.8563 100.14L76.8735 92.8889L78.7579 92.5829L81.4195 97.9934L81.498 97.9806L82.3158 92.0052L84.2051 91.6985L82.5592 100.639C82.4833 101.061 82.3524 101.433 82.1663 101.755C81.9808 102.081 81.7317 102.346 81.4192 102.552C81.1105 102.76 80.7238 102.901 80.2593 102.977ZM96.7917 87.0759L98.4236 97.1261L96.8042 97.3891L90.957 91.3123L90.8736 91.3258L91.9852 98.1716L90.1646 98.4672L88.5327 88.417L90.1619 88.1524L96.0049 94.2349L96.0932 94.2206L94.9809 87.37L96.7917 87.0759ZM103.641 96.4301C102.905 96.5496 102.24 96.4913 101.648 96.255C101.056 96.0188 100.563 95.6337 100.171 95.0997C99.7819 94.5652 99.5242 93.9086 99.3978 93.13C99.2714 92.3513 99.3078 91.6453 99.5072 91.0119C99.7098 90.3779 100.055 89.8552 100.542 89.4437C101.029 89.0321 101.641 88.7666 102.377 88.6471C103.113 88.5276 103.777 88.5859 104.37 88.8222C104.962 89.0584 105.453 89.4454 105.843 89.9832C106.235 90.5205 106.495 91.1784 106.621 91.957C106.748 92.7357 106.709 93.4403 106.506 94.071C106.306 94.7011 105.963 95.222 105.476 95.6335C104.988 96.045 104.377 96.3106 103.641 96.4301ZM103.419 95.0054C103.819 94.9406 104.134 94.7768 104.367 94.514C104.599 94.248 104.75 93.9179 104.821 93.5237C104.894 93.129 104.894 92.7026 104.82 92.2446C104.745 91.7833 104.61 91.377 104.415 91.0259C104.223 90.6709 103.975 90.4039 103.671 90.225C103.366 90.0461 103.015 89.9891 102.615 90.0539C102.206 90.1203 101.884 90.2868 101.649 90.5533C101.417 90.8194 101.264 91.1514 101.191 91.5494C101.121 91.9436 101.123 92.3713 101.198 92.8326C101.272 93.2906 101.405 93.6955 101.597 94.0472C101.791 94.3984 102.041 94.6634 102.345 94.8423C102.652 95.0174 103.01 95.0718 103.419 95.0054ZM110.076 95.2341L106.722 88.0422L108.533 87.7482L110.719 92.833L110.787 92.8218L111.281 87.302L113.072 87.0111L115.283 92.0617L115.356 92.0497L115.806 86.5673L117.621 86.2725L116.711 94.1568L114.861 94.4572L112.62 89.5928L112.517 89.6096L111.931 94.9329L110.076 95.2341Z" fill="white"/>
</svg>
