<svg width="52" height="52" viewBox="0 0 52 52" fill="none" xmlns="http://www.w3.org/2000/svg">
<path d="M0 26C0 11.6406 11.6406 0 26 0C40.3594 0 52 11.6406 52 26C52 40.3594 40.3594 52 26 52C11.6406 52 0 40.3594 0 26Z" fill="white"/>
<mask id="mask0_421_1410" style="mask-type:alpha" maskUnits="userSpaceOnUse" x="12" y="12" width="28" height="28">
<rect x="12" y="12" width="28" height="28" fill="#D9D9D9"/>
</mask>
<g mask="url(#mask0_421_1410)">
<path d="M24.7459 28.3917L31.3667 21.8L29.7042 20.1375L24.7459 25.0958L22.2667 22.6167L20.6334 24.25L24.7459 28.3917ZM13.1667 36.5V34.1667H38.8334V36.5H13.1667ZM16.6667 33C16.0251 33 15.4758 32.7715 15.0188 32.3146C14.5619 31.8576 14.3334 31.3083 14.3334 30.6667V17.8333C14.3334 17.1917 14.5619 16.6424 15.0188 16.1854C15.4758 15.7285 16.0251 15.5 16.6667 15.5H35.3334C35.9751 15.5 36.5244 15.7285 36.9813 16.1854C37.4383 16.6424 37.6667 17.1917 37.6667 17.8333V30.6667C37.6667 31.3083 37.4383 31.8576 36.9813 32.3146C36.5244 32.7715 35.9751 33 35.3334 33H16.6667ZM16.6667 30.6667H35.3334V17.8333H16.6667V30.6667Z" fill="#0066FF"/>
</g>
</svg>
