<svg width="40" height="40" viewBox="0 0 40 40" fill="none" xmlns="http://www.w3.org/2000/svg">
<mask id="mask0_427_2492" style="mask-type:alpha" maskUnits="userSpaceOnUse" x="0" y="0" width="40" height="40">
<rect width="40" height="40" fill="#D9D9D9"/>
</mask>
<g mask="url(#mask0_427_2492)">
<path d="M1.66675 33.3332V28.6665C1.66675 27.7221 1.9098 26.854 2.39591 26.0623C2.88203 25.2707 3.52786 24.6665 4.33341 24.2498C6.05564 23.3887 7.80564 22.7429 9.58342 22.3123C11.3612 21.8818 13.1667 21.6665 15.0001 21.6665C16.8334 21.6665 18.639 21.8818 20.4167 22.3123C22.1945 22.7429 23.9445 23.3887 25.6667 24.2498C26.4723 24.6665 27.1181 25.2707 27.6042 26.0623C28.0904 26.854 28.3334 27.7221 28.3334 28.6665V33.3332H1.66675ZM31.6667 33.3332V28.3332C31.6667 27.1109 31.3265 25.9373 30.6459 24.8123C29.9654 23.6873 29.0001 22.7221 27.7501 21.9165C29.1667 22.0832 30.5001 22.3679 31.7501 22.7707C33.0001 23.1734 34.1667 23.6665 35.2501 24.2498C36.2501 24.8054 37.014 25.4234 37.5417 26.104C38.0695 26.7846 38.3334 27.5276 38.3334 28.3332V33.3332H31.6667ZM15.0001 19.9998C13.1667 19.9998 11.5973 19.3471 10.2917 18.0415C8.98619 16.7359 8.33342 15.1665 8.33342 13.3332C8.33342 11.4998 8.98619 9.93039 10.2917 8.62484C11.5973 7.31928 13.1667 6.6665 15.0001 6.6665C16.8334 6.6665 18.4029 7.31928 19.7084 8.62484C21.014 9.93039 21.6667 11.4998 21.6667 13.3332C21.6667 15.1665 21.014 16.7359 19.7084 18.0415C18.4029 19.3471 16.8334 19.9998 15.0001 19.9998ZM31.6667 13.3332C31.6667 15.1665 31.014 16.7359 29.7084 18.0415C28.4029 19.3471 26.8334 19.9998 25.0001 19.9998C24.6945 19.9998 24.3056 19.9651 23.8334 19.8957C23.3612 19.8262 22.9723 19.7498 22.6667 19.6665C23.4167 18.7776 23.9931 17.7915 24.3959 16.7082C24.7987 15.6248 25.0001 14.4998 25.0001 13.3332C25.0001 12.1665 24.7987 11.0415 24.3959 9.95817C23.9931 8.87484 23.4167 7.88873 22.6667 6.99984C23.0556 6.86095 23.4445 6.77067 23.8334 6.729C24.2223 6.68734 24.6112 6.6665 25.0001 6.6665C26.8334 6.6665 28.4029 7.31928 29.7084 8.62484C31.014 9.93039 31.6667 11.4998 31.6667 13.3332ZM5.00008 29.9998H25.0001V28.6665C25.0001 28.3609 24.9237 28.0832 24.7709 27.8332C24.6181 27.5832 24.4167 27.3887 24.1667 27.2498C22.6667 26.4998 21.1529 25.9373 19.6251 25.5623C18.0973 25.1873 16.5556 24.9998 15.0001 24.9998C13.4445 24.9998 11.9029 25.1873 10.3751 25.5623C8.8473 25.9373 7.33342 26.4998 5.83342 27.2498C5.58341 27.3887 5.38203 27.5832 5.22925 27.8332C5.07647 28.0832 5.00008 28.3609 5.00008 28.6665V29.9998ZM15.0001 16.6665C15.9167 16.6665 16.7015 16.3401 17.3542 15.6873C18.007 15.0346 18.3334 14.2498 18.3334 13.3332C18.3334 12.4165 18.007 11.6318 17.3542 10.979C16.7015 10.3262 15.9167 9.99984 15.0001 9.99984C14.0834 9.99984 13.2987 10.3262 12.6459 10.979C11.9931 11.6318 11.6667 12.4165 11.6667 13.3332C11.6667 14.2498 11.9931 15.0346 12.6459 15.6873C13.2987 16.3401 14.0834 16.6665 15.0001 16.6665Z" fill="white"/>
</g>
</svg>
