<svg width="40" height="40" viewBox="0 0 40 40" fill="none" xmlns="http://www.w3.org/2000/svg">
<mask id="mask0_427_2504" style="mask-type:alpha" maskUnits="userSpaceOnUse" x="0" y="0" width="40" height="40">
<rect width="40" height="40" fill="#D9D9D9"/>
</mask>
<g mask="url(#mask0_427_2504)">
<path d="M17.6666 27.6668L29.4166 15.9168L27.0833 13.5835L17.6666 23.0002L12.9166 18.2502L10.5833 20.5835L17.6666 27.6668ZM19.9999 36.6668C17.6944 36.6668 15.5277 36.2293 13.4999 35.3543C11.4721 34.4793 9.70825 33.2918 8.20825 31.7918C6.70825 30.2918 5.52075 28.5279 4.64575 26.5002C3.77075 24.4724 3.33325 22.3057 3.33325 20.0002C3.33325 17.6946 3.77075 15.5279 4.64575 13.5002C5.52075 11.4724 6.70825 9.7085 8.20825 8.2085C9.70825 6.7085 11.4721 5.521 13.4999 4.646C15.5277 3.771 17.6944 3.3335 19.9999 3.3335C22.3055 3.3335 24.4721 3.771 26.4999 4.646C28.5277 5.521 30.2916 6.7085 31.7916 8.2085C33.2916 9.7085 34.4791 11.4724 35.3541 13.5002C36.2291 15.5279 36.6666 17.6946 36.6666 20.0002C36.6666 22.3057 36.2291 24.4724 35.3541 26.5002C34.4791 28.5279 33.2916 30.2918 31.7916 31.7918C30.2916 33.2918 28.5277 34.4793 26.4999 35.3543C24.4721 36.2293 22.3055 36.6668 19.9999 36.6668ZM19.9999 33.3335C23.7221 33.3335 26.8749 32.0418 29.4583 29.4585C32.0416 26.8752 33.3333 23.7224 33.3333 20.0002C33.3333 16.2779 32.0416 13.1252 29.4583 10.5418C26.8749 7.9585 23.7221 6.66683 19.9999 6.66683C16.2777 6.66683 13.1249 7.9585 10.5416 10.5418C7.95825 13.1252 6.66659 16.2779 6.66659 20.0002C6.66659 23.7224 7.95825 26.8752 10.5416 29.4585C13.1249 32.0418 16.2777 33.3335 19.9999 33.3335Z" fill="white"/>
</g>
</svg>
