<svg width="40" height="40" viewBox="0 0 40 40" fill="none" xmlns="http://www.w3.org/2000/svg">
<mask id="mask0_427_2510" style="mask-type:alpha" maskUnits="userSpaceOnUse" x="0" y="0" width="40" height="40">
<rect width="40" height="40" fill="#D9D9D9"/>
</mask>
<g mask="url(#mask0_427_2510)">
<path d="M14.75 28.0415L20 24.8748L25.25 28.0832L23.875 22.0832L28.5 18.0832L22.4167 17.5415L20 11.8748L17.5834 17.4998L11.5 18.0415L16.125 22.0832L14.75 28.0415ZM9.70837 34.9998L12.4167 23.2915L3.33337 15.4165L15.3334 14.3748L20 3.33317L24.6667 14.3748L36.6667 15.4165L27.5834 23.2915L30.2917 34.9998L20 28.7915L9.70837 34.9998ZM28.75 11.6665L29.625 7.95817L26.6667 5.49984L30.5834 5.1665L32.0834 1.6665L33.5834 5.1665L37.5 5.49984L34.5417 7.95817L35.4167 11.6665L32.0834 9.70817L28.75 11.6665Z" fill="white"/>
</g>
</svg>
