<svg width="40" height="40" viewBox="0 0 40 40" fill="none" xmlns="http://www.w3.org/2000/svg">
<mask id="mask0_142_532" style="mask-type:alpha" maskUnits="userSpaceOnUse" x="0" y="0" width="40" height="40">
<path d="M0 0H40V40H0V0Z" fill="#D9D9D9"/>
</mask>
<g mask="url(#mask0_142_532)">
<path d="M20 36.6667C17.6945 36.6667 15.5278 36.2292 13.5 35.3542C11.4723 34.4792 9.70837 33.2917 8.20837 31.7917C6.70837 30.2917 5.52087 28.5278 4.64587 26.5C3.77087 24.4723 3.33337 22.3056 3.33337 20C3.33337 17.6945 3.77087 15.5278 4.64587 13.5C5.52087 11.4723 6.70837 9.70837 8.20837 8.20837C9.70837 6.70837 11.4723 5.52087 13.5 4.64587C15.5278 3.77087 17.6945 3.33337 20 3.33337C24.2223 3.33337 27.882 4.69448 30.9792 7.41671C34.0764 10.1389 35.9167 13.5278 36.5 17.5834C35.9445 17.3056 35.3681 17.0903 34.7709 16.9375C34.1737 16.7848 33.5556 16.6945 32.9167 16.6667C32.3889 14.6389 31.4375 12.8334 30.0625 11.25C28.6875 9.66671 27 8.47226 25 7.66671V8.33337C25 9.25004 24.6737 10.0348 24.0209 10.6875C23.3681 11.3403 22.5834 11.6667 21.6667 11.6667H18.3334V15C18.3334 15.4723 18.1737 15.8681 17.8542 16.1875C17.5348 16.507 17.1389 16.6667 16.6667 16.6667H13.3334V20H23.3334C23.6389 20 23.9237 20.0764 24.1875 20.2292C24.4514 20.382 24.6528 20.5973 24.7917 20.875C24.3195 21.625 23.9584 22.4167 23.7084 23.25C23.4584 24.0834 23.3334 24.9445 23.3334 25.8334C23.3334 27.5834 23.7848 29.2084 24.6875 30.7084C25.5903 32.2084 26.5139 33.6112 27.4584 34.9167C26.3195 35.4723 25.125 35.9028 23.875 36.2084C22.625 36.5139 21.3334 36.6667 20 36.6667ZM18.3334 33.25V30C17.4167 30 16.632 29.6737 15.9792 29.0209C15.3264 28.3681 15 27.5834 15 26.6667V25L7.00004 17C6.91671 17.5 6.84032 18 6.77087 18.5C6.70143 19 6.66671 19.5 6.66671 20C6.66671 23.3612 7.77087 26.3056 9.97921 28.8334C12.1875 31.3612 14.9723 32.8334 18.3334 33.25ZM32.5 36.6667C32.3056 36.6667 32.1389 36.6112 32 36.5C31.8612 36.3889 31.7639 36.25 31.7084 36.0834C31.4028 35.1112 30.9723 34.2084 30.4167 33.375C29.8612 32.5417 29.2639 31.7223 28.625 30.9167C28.0417 30.1945 27.5695 29.4028 27.2084 28.5417C26.8473 27.6806 26.6667 26.7778 26.6667 25.8334C26.6667 24.2223 27.2362 22.8473 28.375 21.7084C29.5139 20.5695 30.8889 20 32.5 20C34.1112 20 35.4862 20.5695 36.625 21.7084C37.7639 22.8473 38.3334 24.2223 38.3334 25.8334C38.3334 26.7778 38.1459 27.6737 37.7709 28.5209C37.3959 29.3681 36.9306 30.1667 36.375 30.9167C35.7362 31.7223 35.1389 32.5417 34.5834 33.375C34.0278 34.2084 33.5973 35.1112 33.2917 36.0834C33.2362 36.25 33.1389 36.3889 33 36.5C32.8612 36.6112 32.6945 36.6667 32.5 36.6667ZM32.5 31.9584C32.7778 31.4862 33.0834 31.0487 33.4167 30.6459C33.75 30.2431 34.0695 29.8334 34.375 29.4167C34.7639 28.8889 35.1042 28.3264 35.3959 27.7292C35.6875 27.132 35.8334 26.5 35.8334 25.8334C35.8334 24.9167 35.507 24.132 34.8542 23.4792C34.2014 22.8264 33.4167 22.5 32.5 22.5C31.5834 22.5 30.7987 22.8264 30.1459 23.4792C29.4931 24.132 29.1667 24.9167 29.1667 25.8334C29.1667 26.5 29.3125 27.132 29.6042 27.7292C29.8959 28.3264 30.2362 28.8889 30.625 29.4167C30.9584 29.8334 31.2848 30.2431 31.6042 30.6459C31.9237 31.0487 32.2223 31.4862 32.5 31.9584ZM32.5 27.9167C31.9167 27.9167 31.4237 27.7153 31.0209 27.3125C30.6181 26.9098 30.4167 26.4167 30.4167 25.8334C30.4167 25.25 30.6181 24.757 31.0209 24.3542C31.4237 23.9514 31.9167 23.75 32.5 23.75C33.0834 23.75 33.5764 23.9514 33.9792 24.3542C34.382 24.757 34.5834 25.25 34.5834 25.8334C34.5834 26.4167 34.382 26.9098 33.9792 27.3125C33.5764 27.7153 33.0834 27.9167 32.5 27.9167Z" fill="#00B556"/>
</g>
</svg>
