<svg width="52" height="52" viewBox="0 0 52 52" fill="none" xmlns="http://www.w3.org/2000/svg">
<path d="M0 10C0 4.47715 4.47715 0 10 0H42C47.5228 0 52 4.47715 52 10V42C52 47.5228 47.5228 52 42 52H10C4.47715 52 0 47.5228 0 42V10Z" fill="#00BC96"/>
<mask id="mask0_148_696" style="mask-type:alpha" maskUnits="userSpaceOnUse" x="12" y="12" width="28" height="28">
<path d="M12 12H40V40H12V12Z" fill="#D9D9D9"/>
</mask>
<g mask="url(#mask0_148_696)">
<path d="M21.3334 27.1666H30.6667V24.8333H21.3334V27.1666ZM21.3334 30.6666H30.6667V28.3333H21.3334V30.6666ZM21.3334 34.1666H27.1667V31.8333H21.3334V34.1666ZM19.0001 37.6666C18.3584 37.6666 17.8091 37.4381 17.3522 36.9812C16.8952 36.5242 16.6667 35.9749 16.6667 35.3333V16.6666C16.6667 16.0249 16.8952 15.4756 17.3522 15.0187C17.8091 14.5617 18.3584 14.3333 19.0001 14.3333H28.3334L35.3334 21.3333V35.3333C35.3334 35.9749 35.1049 36.5242 34.648 36.9812C34.1911 37.4381 33.6417 37.6666 33.0001 37.6666H19.0001ZM27.1667 22.4999V16.6666H19.0001V35.3333H33.0001V22.4999H27.1667Z" fill="white"/>
</g>
</svg>
