<svg width="40" height="40" viewBox="0 0 40 40" fill="none" xmlns="http://www.w3.org/2000/svg">
<mask id="mask0_142_526" style="mask-type:alpha" maskUnits="userSpaceOnUse" x="0" y="0" width="40" height="40">
<path d="M0 0H40V40H0V0Z" fill="#D9D9D9"/>
</mask>
<g mask="url(#mask0_142_526)">
<path d="M19.7916 33.3334C19.9027 33.3334 20.0138 33.3056 20.1249 33.25C20.236 33.1945 20.3193 33.1389 20.3749 33.0834L34.0416 19.4167C34.3749 19.0834 34.618 18.7084 34.7707 18.2917C34.9235 17.875 34.9999 17.4584 34.9999 17.0417C34.9999 16.5973 34.9235 16.1737 34.7707 15.7709C34.618 15.3681 34.3749 15.0139 34.0416 14.7084L26.9582 7.62504C26.6527 7.29171 26.2985 7.04865 25.8957 6.89587C25.493 6.7431 25.0693 6.66671 24.6249 6.66671C24.2082 6.66671 23.7916 6.7431 23.3749 6.89587C22.9582 7.04865 22.5832 7.29171 22.2499 7.62504L21.7916 8.08337L24.8749 11.2084C25.2916 11.5973 25.5971 12.0417 25.7916 12.5417C25.986 13.0417 26.0832 13.5695 26.0832 14.125C26.0832 15.2917 25.6874 16.2709 24.8957 17.0625C24.1041 17.8542 23.1249 18.25 21.9582 18.25C21.4027 18.25 20.868 18.1528 20.3541 17.9584C19.8402 17.7639 19.3888 17.4723 18.9999 17.0834L15.8749 14L8.58323 21.2917C8.4999 21.375 8.4374 21.4653 8.39574 21.5625C8.35407 21.6598 8.33323 21.7639 8.33323 21.875C8.33323 22.0973 8.41657 22.2987 8.58323 22.4792C8.7499 22.6598 8.94435 22.75 9.16657 22.75C9.27768 22.75 9.38879 22.7223 9.4999 22.6667C9.61101 22.6112 9.69435 22.5556 9.7499 22.5L15.4166 16.8334L17.7499 19.1667L12.1249 24.8334C12.0416 24.9167 11.9791 25.007 11.9374 25.1042C11.8957 25.2014 11.8749 25.3056 11.8749 25.4167C11.8749 25.6389 11.9582 25.8334 12.1249 26C12.2916 26.1667 12.486 26.25 12.7082 26.25C12.8193 26.25 12.9305 26.2223 13.0416 26.1667C13.1527 26.1112 13.236 26.0556 13.2916 26L18.9582 20.375L21.2916 22.7084L15.6666 28.375C15.5832 28.4306 15.5207 28.5139 15.4791 28.625C15.4374 28.7362 15.4166 28.8473 15.4166 28.9584C15.4166 29.1806 15.4999 29.375 15.6666 29.5417C15.8332 29.7084 16.0277 29.7917 16.2499 29.7917C16.361 29.7917 16.4652 29.7709 16.5624 29.7292C16.6596 29.6875 16.7499 29.625 16.8332 29.5417L22.4999 23.9167L24.8332 26.25L19.1666 31.9167C19.0832 32 19.0207 32.0903 18.9791 32.1875C18.9374 32.2848 18.9166 32.3889 18.9166 32.5C18.9166 32.7223 19.0068 32.9167 19.1874 33.0834C19.368 33.25 19.5693 33.3334 19.7916 33.3334ZM19.7499 36.6667C18.7221 36.6667 17.8124 36.3264 17.0207 35.6459C16.2291 34.9653 15.7638 34.1112 15.6249 33.0834C14.6805 32.9445 13.8888 32.5556 13.2499 31.9167C12.611 31.2778 12.2221 30.4862 12.0832 29.5417C11.1388 29.4028 10.3541 29.007 9.72907 28.3542C9.10407 27.7014 8.72212 26.9167 8.58323 26C7.52768 25.8612 6.66657 25.4028 5.9999 24.625C5.33324 23.8473 4.9999 22.9306 4.9999 21.875C4.9999 21.3195 5.10407 20.7848 5.3124 20.2709C5.52074 19.757 5.81935 19.3056 6.20824 18.9167L15.8749 9.29171L21.3332 14.75C21.3888 14.8334 21.4721 14.8959 21.5832 14.9375C21.6943 14.9792 21.8055 15 21.9166 15C22.1666 15 22.3749 14.9237 22.5416 14.7709C22.7082 14.6181 22.7916 14.4167 22.7916 14.1667C22.7916 14.0556 22.7707 13.9445 22.7291 13.8334C22.6874 13.7223 22.6249 13.6389 22.5416 13.5834L16.5832 7.62504C16.2777 7.29171 15.9235 7.04865 15.5207 6.89587C15.118 6.7431 14.6943 6.66671 14.2499 6.66671C13.8332 6.66671 13.4166 6.7431 12.9999 6.89587C12.5832 7.04865 12.2082 7.29171 11.8749 7.62504L5.9999 13.5417C5.7499 13.7917 5.54157 14.0834 5.3749 14.4167C5.20824 14.75 5.09712 15.0834 5.04157 15.4167C4.98601 15.75 4.98601 16.0903 5.04157 16.4375C5.09712 16.7848 5.20824 17.1112 5.3749 17.4167L2.95824 19.8334C2.48601 19.1945 2.13879 18.4931 1.91657 17.7292C1.69435 16.9653 1.61101 16.1945 1.66657 15.4167C1.72212 14.6389 1.91657 13.882 2.2499 13.1459C2.58324 12.4098 3.04157 11.75 3.6249 11.1667L9.4999 5.29171C10.1666 4.65282 10.9096 4.16671 11.7291 3.83337C12.5485 3.50004 13.3888 3.33337 14.2499 3.33337C15.111 3.33337 15.9513 3.50004 16.7707 3.83337C17.5902 4.16671 18.3193 4.65282 18.9582 5.29171L19.4166 5.75004L19.8749 5.29171C20.5416 4.65282 21.2846 4.16671 22.1041 3.83337C22.9235 3.50004 23.7638 3.33337 24.6249 3.33337C25.486 3.33337 26.3263 3.50004 27.1457 3.83337C27.9652 4.16671 28.6943 4.65282 29.3332 5.29171L36.3749 12.3334C37.0138 12.9723 37.4999 13.7084 37.8332 14.5417C38.1666 15.375 38.3332 16.2223 38.3332 17.0834C38.3332 17.9445 38.1666 18.7848 37.8332 19.6042C37.4999 20.4237 37.0138 21.1528 36.3749 21.7917L22.7082 35.4167C22.3193 35.8056 21.868 36.1112 21.3541 36.3334C20.8402 36.5556 20.3055 36.6667 19.7499 36.6667Z" fill="white"/>
</g>
</svg>
