<svg width="52" height="52" viewBox="0 0 52 52" fill="none" xmlns="http://www.w3.org/2000/svg">
<path d="M0 26C0 11.6406 11.6406 0 26 0C40.3594 0 52 11.6406 52 26C52 40.3594 40.3594 52 26 52C11.6406 52 0 40.3594 0 26Z" fill="white"/>
<mask id="mask0_421_1446" style="mask-type:alpha" maskUnits="userSpaceOnUse" x="12" y="12" width="28" height="28">
<rect x="12" y="12" width="28" height="28" fill="#D9D9D9"/>
</mask>
<g mask="url(#mask0_421_1446)">
<path d="M26 37.6668C25.3583 37.6668 24.809 37.4384 24.3521 36.9814C23.8951 36.5245 23.6667 35.9752 23.6667 35.3335H28.3333C28.3333 35.9752 28.1049 36.5245 27.6479 36.9814C27.191 37.4384 26.6417 37.6668 26 37.6668ZM21.3333 34.1668V31.8335H30.6667V34.1668H21.3333ZM21.625 30.6668C20.2833 29.8696 19.2188 28.8002 18.4312 27.4585C17.6438 26.1168 17.25 24.6585 17.25 23.0835C17.25 20.6529 18.1007 18.587 19.8021 16.8856C21.5035 15.1842 23.5694 14.3335 26 14.3335C28.4306 14.3335 30.4965 15.1842 32.1979 16.8856C33.8993 18.587 34.75 20.6529 34.75 23.0835C34.75 24.6585 34.3562 26.1168 33.5688 27.4585C32.7812 28.8002 31.7167 29.8696 30.375 30.6668H21.625ZM22.325 28.3335H29.675C30.55 27.7113 31.2257 26.9432 31.7021 26.0293C32.1785 25.1154 32.4167 24.1335 32.4167 23.0835C32.4167 21.2946 31.7944 19.7779 30.55 18.5335C29.3056 17.2891 27.7889 16.6668 26 16.6668C24.2111 16.6668 22.6944 17.2891 21.45 18.5335C20.2056 19.7779 19.5833 21.2946 19.5833 23.0835C19.5833 24.1335 19.8215 25.1154 20.2979 26.0293C20.7743 26.9432 21.45 27.7113 22.325 28.3335Z" fill="#0066FF"/>
</g>
</svg>
