<svg width="52" height="52" viewBox="0 0 52 52" fill="none" xmlns="http://www.w3.org/2000/svg">
<path d="M0 26C0 11.6406 11.6406 0 26 0C40.3594 0 52 11.6406 52 26C52 40.3594 40.3594 52 26 52C11.6406 52 0 40.3594 0 26Z" fill="url(#paint0_linear_405_988)"/>
<mask id="mask0_405_988" style="mask-type:alpha" maskUnits="userSpaceOnUse" x="12" y="12" width="28" height="28">
<rect x="12" y="12" width="28" height="28" fill="#D9D9D9"/>
</mask>
<g mask="url(#mask0_405_988)">
<path d="M25.6499 33C23.7833 32.9028 22.2083 32.1834 20.9249 30.8417C19.6416 29.5 18.9999 27.8862 18.9999 26C18.9999 24.0556 19.6805 22.4028 21.0416 21.0417C22.4027 19.6806 24.0555 19 25.9999 19C27.886 19 29.4999 19.6417 30.8416 20.925C32.1833 22.2084 32.9027 23.7834 32.9999 25.65L30.5499 24.9209C30.2971 23.8709 29.7527 23.0105 28.9166 22.3396C28.0805 21.6688 27.1083 21.3334 25.9999 21.3334C24.7166 21.3334 23.618 21.7903 22.7041 22.7042C21.7902 23.6181 21.3333 24.7167 21.3333 26C21.3333 27.1084 21.6687 28.0806 22.3395 28.9167C23.0103 29.7528 23.8708 30.2973 24.9208 30.55L25.6499 33ZM27.0499 37.6084C26.8749 37.6473 26.6999 37.6667 26.5249 37.6667H25.9999C24.386 37.6667 22.8694 37.3605 21.4499 36.748C20.0305 36.1355 18.7958 35.3042 17.7458 34.2542C16.6958 33.2042 15.8645 31.9695 15.252 30.55C14.6395 29.1306 14.3333 27.6139 14.3333 26C14.3333 24.3862 14.6395 22.8695 15.252 21.45C15.8645 20.0306 16.6958 18.7959 17.7458 17.7459C18.7958 16.6959 20.0305 15.8646 21.4499 15.2521C22.8694 14.6396 24.386 14.3334 25.9999 14.3334C27.6138 14.3334 29.1305 14.6396 30.5499 15.2521C31.9694 15.8646 33.2041 16.6959 34.2541 17.7459C35.3041 18.7959 36.1353 20.0306 36.7478 21.45C37.3603 22.8695 37.6666 24.3862 37.6666 26V26.525C37.6666 26.7 37.6471 26.875 37.6083 27.05L35.3333 26.35V26C35.3333 23.3945 34.4291 21.1875 32.6208 19.3792C30.8124 17.5709 28.6055 16.6667 25.9999 16.6667C23.3944 16.6667 21.1874 17.5709 19.3791 19.3792C17.5708 21.1875 16.6666 23.3945 16.6666 26C16.6666 28.6056 17.5708 30.8125 19.3791 32.6209C21.1874 34.4292 23.3944 35.3334 25.9999 35.3334H26.3499L27.0499 37.6084ZM35.9458 38.25L30.9583 33.2625L29.4999 37.6667L25.9999 26L37.6666 29.5L33.2624 30.9584L38.2499 35.9459L35.9458 38.25Z" fill="white"/>
</g>
<defs>
<linearGradient id="paint0_linear_405_988" x1="0" y1="0" x2="52" y2="52" gradientUnits="userSpaceOnUse">
<stop stop-color="#00BC7D"/>
<stop offset="1" stop-color="#2B7FFF"/>
</linearGradient>
</defs>
</svg>
