<svg width="309" height="34" viewBox="0 0 309 34" fill="none" xmlns="http://www.w3.org/2000/svg">
<path d="M0 17C0 7.61116 7.61116 0 17 0H292C301.389 0 309 7.61116 309 17C309 26.3888 301.389 34 292 34H17C7.61115 34 0 26.3888 0 17Z" fill="#E6FFE6"/>
<mask id="mask0_425_2445" style="mask-type:alpha" maskUnits="userSpaceOnUse" x="12" y="8" width="18" height="18">
<rect x="12" y="8" width="18" height="18" fill="#D9D9D9"/>
</mask>
<g mask="url(#mask0_425_2445)">
<path d="M21 23.7498L19.9125 22.7748C18.65 21.6373 17.6062 20.6561 16.7812 19.8311C15.9562 19.0061 15.3 18.2654 14.8125 17.6092C14.325 16.9529 13.9844 16.3498 13.7906 15.7998C13.5969 15.2498 13.5 14.6873 13.5 14.1123C13.5 12.9373 13.8937 11.9561 14.6813 11.1686C15.4688 10.3811 16.45 9.9873 17.625 9.9873C18.275 9.9873 18.8937 10.1248 19.4812 10.3998C20.0687 10.6748 20.575 11.0623 21 11.5623C21.425 11.0623 21.9313 10.6748 22.5188 10.3998C23.1063 10.1248 23.725 9.9873 24.375 9.9873C25.55 9.9873 26.5313 10.3811 27.3188 11.1686C28.1063 11.9561 28.5 12.9373 28.5 14.1123C28.5 14.6873 28.4031 15.2498 28.2094 15.7998C28.0156 16.3498 27.675 16.9529 27.1875 17.6092C26.7 18.2654 26.0437 19.0061 25.2188 19.8311C24.3938 20.6561 23.35 21.6373 22.0875 22.7748L21 23.7498ZM21 21.7248C22.2 20.6498 23.1875 19.7279 23.9625 18.9592C24.7375 18.1904 25.35 17.5217 25.8 16.9529C26.25 16.3842 26.5625 15.8779 26.7375 15.4342C26.9125 14.9904 27 14.5498 27 14.1123C27 13.3623 26.75 12.7373 26.25 12.2373C25.75 11.7373 25.125 11.4873 24.375 11.4873C23.7875 11.4873 23.2437 11.6529 22.7437 11.9842C22.2437 12.3154 21.9 12.7373 21.7125 13.2498H20.2875C20.1 12.7373 19.7563 12.3154 19.2563 11.9842C18.7562 11.6529 18.2125 11.4873 17.625 11.4873C16.875 11.4873 16.25 11.7373 15.75 12.2373C15.25 12.7373 15 13.3623 15 14.1123C15 14.5498 15.0875 14.9904 15.2625 15.4342C15.4375 15.8779 15.75 16.3842 16.2 16.9529C16.65 17.5217 17.2625 18.1904 18.0375 18.9592C18.8125 19.7279 19.8 20.6498 21 21.7248Z" fill="#088E48"/>
</g>
<path d="M42.9482 16.75V17.2969C42.9482 18.0488 42.8503 18.7233 42.6543 19.3203C42.4583 19.9173 42.1781 20.4255 41.8135 20.8447C41.4535 21.264 41.0205 21.5853 40.5146 21.8086C40.0088 22.0273 39.4482 22.1367 38.833 22.1367C38.2223 22.1367 37.6641 22.0273 37.1582 21.8086C36.6569 21.5853 36.2217 21.264 35.8525 20.8447C35.4834 20.4255 35.1963 19.9173 34.9912 19.3203C34.7907 18.7233 34.6904 18.0488 34.6904 17.2969V16.75C34.6904 15.998 34.7907 15.3258 34.9912 14.7334C35.1917 14.1364 35.4743 13.6283 35.8389 13.209C36.208 12.7852 36.6432 12.4639 37.1445 12.2451C37.6504 12.0218 38.2087 11.9102 38.8193 11.9102C39.4346 11.9102 39.9951 12.0218 40.501 12.2451C41.0068 12.4639 41.4421 12.7852 41.8066 13.209C42.1712 13.6283 42.4515 14.1364 42.6475 14.7334C42.848 15.3258 42.9482 15.998 42.9482 16.75ZM41.2324 17.2969V16.7363C41.2324 16.1803 41.1777 15.6904 41.0684 15.2666C40.9635 14.8382 40.8063 14.4805 40.5967 14.1934C40.3916 13.9017 40.1387 13.6829 39.8379 13.5371C39.5371 13.3867 39.1976 13.3115 38.8193 13.3115C38.4411 13.3115 38.1038 13.3867 37.8076 13.5371C37.5114 13.6829 37.2585 13.9017 37.0488 14.1934C36.8438 14.4805 36.6865 14.8382 36.5771 15.2666C36.4678 15.6904 36.4131 16.1803 36.4131 16.7363V17.2969C36.4131 17.8529 36.4678 18.3451 36.5771 18.7734C36.6865 19.2018 36.846 19.5641 37.0557 19.8604C37.2699 20.152 37.5251 20.373 37.8213 20.5234C38.1175 20.6693 38.4548 20.7422 38.833 20.7422C39.2158 20.7422 39.5553 20.6693 39.8516 20.5234C40.1478 20.373 40.3984 20.152 40.6035 19.8604C40.8086 19.5641 40.9635 19.2018 41.0684 18.7734C41.1777 18.3451 41.2324 17.8529 41.2324 17.2969ZM48.9502 20.2568V14.6035H50.6045V22H49.0459L48.9502 20.2568ZM49.1826 18.7188L49.7363 18.7051C49.7363 19.2018 49.6816 19.6598 49.5723 20.0791C49.4629 20.4938 49.2943 20.8561 49.0664 21.166C48.8385 21.4714 48.5469 21.7106 48.1914 21.8838C47.8359 22.0524 47.4098 22.1367 46.9131 22.1367C46.5531 22.1367 46.2227 22.0843 45.9219 21.9795C45.6211 21.8747 45.3613 21.7129 45.1426 21.4941C44.9284 21.2754 44.762 20.9906 44.6436 20.6396C44.5251 20.2887 44.4658 19.8695 44.4658 19.3818V14.6035H46.1133V19.3955C46.1133 19.6644 46.1452 19.89 46.209 20.0723C46.2728 20.25 46.3594 20.3936 46.4688 20.5029C46.5781 20.6123 46.7057 20.6898 46.8516 20.7354C46.9974 20.7809 47.1523 20.8037 47.3164 20.8037C47.7858 20.8037 48.1549 20.7126 48.4238 20.5303C48.6973 20.3434 48.891 20.0928 49.0049 19.7783C49.1234 19.4639 49.1826 19.1107 49.1826 18.7188ZM53.9473 16.0117V22H52.2998V14.6035H53.8721L53.9473 16.0117ZM56.21 14.5557L56.1963 16.0869C56.096 16.0687 55.9867 16.055 55.8682 16.0459C55.7542 16.0368 55.6403 16.0322 55.5264 16.0322C55.2438 16.0322 54.9954 16.0732 54.7812 16.1553C54.5671 16.2327 54.387 16.3467 54.2412 16.4971C54.0999 16.6429 53.9906 16.8206 53.9131 17.0303C53.8356 17.2399 53.79 17.4746 53.7764 17.7344L53.4004 17.7617C53.4004 17.2969 53.446 16.8662 53.5371 16.4697C53.6283 16.0732 53.765 15.7246 53.9473 15.4238C54.1341 15.123 54.3665 14.8883 54.6445 14.7197C54.9271 14.5511 55.2529 14.4668 55.6221 14.4668C55.7223 14.4668 55.8294 14.4759 55.9434 14.4941C56.0618 14.5124 56.1507 14.5329 56.21 14.5557ZM66.7715 18.7598H68.4805C68.4258 19.4115 68.2435 19.9925 67.9336 20.5029C67.6237 21.0088 67.1885 21.4076 66.6279 21.6992C66.0674 21.9909 65.3861 22.1367 64.584 22.1367C63.9688 22.1367 63.415 22.0273 62.9229 21.8086C62.4307 21.5853 62.0091 21.2708 61.6582 20.8652C61.3073 20.4551 61.0384 19.9606 60.8516 19.3818C60.6693 18.8031 60.5781 18.1559 60.5781 17.4404V16.6133C60.5781 15.8978 60.6715 15.2507 60.8584 14.6719C61.0498 14.0931 61.3232 13.5986 61.6787 13.1885C62.0342 12.7738 62.4603 12.457 62.957 12.2383C63.4583 12.0195 64.0212 11.9102 64.6455 11.9102C65.4385 11.9102 66.1084 12.056 66.6553 12.3477C67.2021 12.6393 67.626 13.0426 67.9268 13.5576C68.2321 14.0726 68.4189 14.6628 68.4873 15.3281H66.7783C66.7327 14.8997 66.6325 14.5329 66.4775 14.2275C66.3271 13.9222 66.1038 13.6898 65.8076 13.5303C65.5114 13.3662 65.124 13.2842 64.6455 13.2842C64.2536 13.2842 63.9118 13.3571 63.6201 13.5029C63.3285 13.6488 63.0846 13.863 62.8887 14.1455C62.6927 14.4281 62.5446 14.7767 62.4443 15.1914C62.3486 15.6016 62.3008 16.071 62.3008 16.5996V17.4404C62.3008 17.9417 62.3441 18.3975 62.4307 18.8076C62.5218 19.2132 62.6585 19.5618 62.8408 19.8535C63.0277 20.1452 63.2646 20.3708 63.5518 20.5303C63.8389 20.6898 64.1829 20.7695 64.584 20.7695C65.0716 20.7695 65.4658 20.6921 65.7666 20.5371C66.0719 20.3822 66.3021 20.1566 66.457 19.8604C66.6165 19.5596 66.7214 19.1927 66.7715 18.7598ZM69.5605 18.3838V18.2266C69.5605 17.6934 69.638 17.1989 69.793 16.7432C69.9479 16.2829 70.1712 15.8841 70.4629 15.5469C70.7591 15.2051 71.1191 14.9408 71.543 14.7539C71.9714 14.5625 72.4544 14.4668 72.9922 14.4668C73.5345 14.4668 74.0176 14.5625 74.4414 14.7539C74.8698 14.9408 75.2321 15.2051 75.5283 15.5469C75.8245 15.8841 76.0501 16.2829 76.2051 16.7432C76.36 17.1989 76.4375 17.6934 76.4375 18.2266V18.3838C76.4375 18.917 76.36 19.4115 76.2051 19.8672C76.0501 20.3229 75.8245 20.7217 75.5283 21.0635C75.2321 21.4007 74.8721 21.665 74.4482 21.8564C74.0244 22.0433 73.5436 22.1367 73.0059 22.1367C72.4635 22.1367 71.9782 22.0433 71.5498 21.8564C71.126 21.665 70.766 21.4007 70.4697 21.0635C70.1735 20.7217 69.9479 20.3229 69.793 19.8672C69.638 19.4115 69.5605 18.917 69.5605 18.3838ZM71.208 18.2266V18.3838C71.208 18.7165 71.2422 19.0309 71.3105 19.3271C71.3789 19.6234 71.486 19.8831 71.6318 20.1064C71.7777 20.3298 71.9645 20.5052 72.1924 20.6328C72.4202 20.7604 72.6914 20.8242 73.0059 20.8242C73.3112 20.8242 73.5755 20.7604 73.7988 20.6328C74.0267 20.5052 74.2135 20.3298 74.3594 20.1064C74.5052 19.8831 74.6123 19.6234 74.6807 19.3271C74.7536 19.0309 74.79 18.7165 74.79 18.3838V18.2266C74.79 17.8984 74.7536 17.5885 74.6807 17.2969C74.6123 17.0007 74.5029 16.7386 74.3525 16.5107C74.2067 16.2829 74.0199 16.1051 73.792 15.9775C73.5687 15.8454 73.3021 15.7793 72.9922 15.7793C72.6823 15.7793 72.4134 15.8454 72.1855 15.9775C71.9622 16.1051 71.7777 16.2829 71.6318 16.5107C71.486 16.7386 71.3789 17.0007 71.3105 17.2969C71.2422 17.5885 71.208 17.8984 71.208 18.2266ZM79.4658 16.1074V22H77.8184V14.6035H79.3701L79.4658 16.1074ZM79.1992 18.0283L78.6387 18.0215C78.6387 17.5111 78.7025 17.0394 78.8301 16.6064C78.9577 16.1735 79.1445 15.7975 79.3906 15.4785C79.6367 15.1549 79.9421 14.9066 80.3066 14.7334C80.6758 14.5557 81.1019 14.4668 81.585 14.4668C81.9222 14.4668 82.2298 14.5169 82.5078 14.6172C82.7904 14.7129 83.0342 14.8656 83.2393 15.0752C83.4489 15.2848 83.6084 15.5537 83.7178 15.8818C83.8317 16.21 83.8887 16.6064 83.8887 17.0713V22H82.2412V17.2148C82.2412 16.8548 82.1865 16.5723 82.0771 16.3672C81.9723 16.1621 81.8197 16.0163 81.6191 15.9297C81.4232 15.8385 81.1885 15.793 80.915 15.793C80.6051 15.793 80.3408 15.8522 80.1221 15.9707C79.9079 16.0892 79.7324 16.251 79.5957 16.4561C79.459 16.6611 79.3587 16.8981 79.2949 17.167C79.2311 17.4359 79.1992 17.723 79.1992 18.0283ZM83.7861 17.5908L83.0137 17.7617C83.0137 17.3151 83.0752 16.8936 83.1982 16.4971C83.3258 16.096 83.5104 15.7451 83.752 15.4443C83.998 15.139 84.3011 14.8997 84.6611 14.7266C85.0212 14.5534 85.4336 14.4668 85.8984 14.4668C86.2767 14.4668 86.6139 14.5192 86.9102 14.624C87.2109 14.7243 87.4661 14.8838 87.6758 15.1025C87.8854 15.3213 88.0449 15.6061 88.1543 15.957C88.2637 16.3034 88.3184 16.7227 88.3184 17.2148V22H86.6641V17.208C86.6641 16.8343 86.6094 16.5449 86.5 16.3398C86.3952 16.1348 86.2448 15.9935 86.0488 15.916C85.8529 15.834 85.6182 15.793 85.3447 15.793C85.0895 15.793 84.8639 15.8408 84.668 15.9365C84.4766 16.0277 84.3148 16.1576 84.1826 16.3262C84.0505 16.4902 83.9502 16.6794 83.8818 16.8936C83.818 17.1077 83.7861 17.3402 83.7861 17.5908ZM91.6611 16.1074V22H90.0137V14.6035H91.5654L91.6611 16.1074ZM91.3945 18.0283L90.834 18.0215C90.834 17.5111 90.8978 17.0394 91.0254 16.6064C91.153 16.1735 91.3398 15.7975 91.5859 15.4785C91.832 15.1549 92.1374 14.9066 92.502 14.7334C92.8711 14.5557 93.2972 14.4668 93.7803 14.4668C94.1175 14.4668 94.4251 14.5169 94.7031 14.6172C94.9857 14.7129 95.2295 14.8656 95.4346 15.0752C95.6442 15.2848 95.8037 15.5537 95.9131 15.8818C96.027 16.21 96.084 16.6064 96.084 17.0713V22H94.4365V17.2148C94.4365 16.8548 94.3818 16.5723 94.2725 16.3672C94.1676 16.1621 94.015 16.0163 93.8145 15.9297C93.6185 15.8385 93.3838 15.793 93.1104 15.793C92.8005 15.793 92.5361 15.8522 92.3174 15.9707C92.1032 16.0892 91.9277 16.251 91.791 16.4561C91.6543 16.6611 91.554 16.8981 91.4902 17.167C91.4264 17.4359 91.3945 17.723 91.3945 18.0283ZM95.9814 17.5908L95.209 17.7617C95.209 17.3151 95.2705 16.8936 95.3936 16.4971C95.5212 16.096 95.7057 15.7451 95.9473 15.4443C96.1934 15.139 96.4964 14.8997 96.8564 14.7266C97.2165 14.5534 97.6289 14.4668 98.0938 14.4668C98.472 14.4668 98.8092 14.5192 99.1055 14.624C99.4062 14.7243 99.6615 14.8838 99.8711 15.1025C100.081 15.3213 100.24 15.6061 100.35 15.957C100.459 16.3034 100.514 16.7227 100.514 17.2148V22H98.8594V17.208C98.8594 16.8343 98.8047 16.5449 98.6953 16.3398C98.5905 16.1348 98.4401 15.9935 98.2441 15.916C98.0482 15.834 97.8135 15.793 97.54 15.793C97.2848 15.793 97.0592 15.8408 96.8633 15.9365C96.6719 16.0277 96.5101 16.1576 96.3779 16.3262C96.2458 16.4902 96.1455 16.6794 96.0771 16.8936C96.0133 17.1077 95.9814 17.3402 95.9814 17.5908ZM103.973 14.6035V22H102.318V14.6035H103.973ZM102.209 12.6621C102.209 12.4115 102.291 12.2041 102.455 12.04C102.624 11.8714 102.856 11.7871 103.152 11.7871C103.444 11.7871 103.674 11.8714 103.843 12.04C104.011 12.2041 104.096 12.4115 104.096 12.6621C104.096 12.9082 104.011 13.1133 103.843 13.2773C103.674 13.4414 103.444 13.5234 103.152 13.5234C102.856 13.5234 102.624 13.4414 102.455 13.2773C102.291 13.1133 102.209 12.9082 102.209 12.6621ZM109.168 14.6035V15.8066H104.998V14.6035H109.168ZM106.201 12.792H107.849V19.9561C107.849 20.1839 107.881 20.3594 107.944 20.4824C108.013 20.6009 108.106 20.6807 108.225 20.7217C108.343 20.7627 108.482 20.7832 108.642 20.7832C108.756 20.7832 108.865 20.7764 108.97 20.7627C109.075 20.749 109.159 20.7354 109.223 20.7217L109.229 21.9795C109.093 22.0205 108.933 22.057 108.751 22.0889C108.573 22.1208 108.368 22.1367 108.136 22.1367C107.757 22.1367 107.423 22.0706 107.131 21.9385C106.839 21.8018 106.611 21.5807 106.447 21.2754C106.283 20.9701 106.201 20.5645 106.201 20.0586V12.792ZM112.087 16.1074V22H110.439V14.6035H111.991L112.087 16.1074ZM111.82 18.0283L111.26 18.0215C111.26 17.5111 111.324 17.0394 111.451 16.6064C111.579 16.1735 111.766 15.7975 112.012 15.4785C112.258 15.1549 112.563 14.9066 112.928 14.7334C113.297 14.5557 113.723 14.4668 114.206 14.4668C114.543 14.4668 114.851 14.5169 115.129 14.6172C115.411 14.7129 115.655 14.8656 115.86 15.0752C116.07 15.2848 116.229 15.5537 116.339 15.8818C116.453 16.21 116.51 16.6064 116.51 17.0713V22H114.862V17.2148C114.862 16.8548 114.808 16.5723 114.698 16.3672C114.593 16.1621 114.441 16.0163 114.24 15.9297C114.044 15.8385 113.81 15.793 113.536 15.793C113.226 15.793 112.962 15.8522 112.743 15.9707C112.529 16.0892 112.354 16.251 112.217 16.4561C112.08 16.6611 111.98 16.8981 111.916 17.167C111.852 17.4359 111.82 17.723 111.82 18.0283ZM116.407 17.5908L115.635 17.7617C115.635 17.3151 115.696 16.8936 115.819 16.4971C115.947 16.096 116.132 15.7451 116.373 15.4443C116.619 15.139 116.922 14.8997 117.282 14.7266C117.642 14.5534 118.055 14.4668 118.52 14.4668C118.898 14.4668 119.235 14.5192 119.531 14.624C119.832 14.7243 120.087 14.8838 120.297 15.1025C120.507 15.3213 120.666 15.6061 120.775 15.957C120.885 16.3034 120.939 16.7227 120.939 17.2148V22H119.285V17.208C119.285 16.8343 119.23 16.5449 119.121 16.3398C119.016 16.1348 118.866 15.9935 118.67 15.916C118.474 15.834 118.239 15.793 117.966 15.793C117.711 15.793 117.485 15.8408 117.289 15.9365C117.098 16.0277 116.936 16.1576 116.804 16.3262C116.672 16.4902 116.571 16.6794 116.503 16.8936C116.439 17.1077 116.407 17.3402 116.407 17.5908ZM125.896 22.1367C125.349 22.1367 124.854 22.0479 124.412 21.8701C123.975 21.6878 123.601 21.4349 123.291 21.1113C122.986 20.7878 122.751 20.4072 122.587 19.9697C122.423 19.5322 122.341 19.0605 122.341 18.5547V18.2812C122.341 17.7025 122.425 17.1784 122.594 16.709C122.762 16.2396 122.997 15.8385 123.298 15.5059C123.599 15.1686 123.954 14.9111 124.364 14.7334C124.774 14.5557 125.219 14.4668 125.697 14.4668C126.226 14.4668 126.688 14.5557 127.085 14.7334C127.481 14.9111 127.81 15.1618 128.069 15.4854C128.334 15.8044 128.53 16.1849 128.657 16.627C128.789 17.069 128.855 17.5566 128.855 18.0898V18.7939H123.141V17.6113H127.229V17.4814C127.219 17.1852 127.16 16.9072 127.051 16.6475C126.946 16.3877 126.784 16.1781 126.565 16.0186C126.347 15.859 126.055 15.7793 125.69 15.7793C125.417 15.7793 125.173 15.8385 124.959 15.957C124.749 16.071 124.574 16.2373 124.433 16.4561C124.291 16.6748 124.182 16.9391 124.104 17.249C124.032 17.5544 123.995 17.8984 123.995 18.2812V18.5547C123.995 18.8783 124.038 19.179 124.125 19.457C124.216 19.7305 124.348 19.9697 124.521 20.1748C124.695 20.3799 124.904 20.5417 125.15 20.6602C125.396 20.7741 125.677 20.8311 125.991 20.8311C126.388 20.8311 126.741 20.7513 127.051 20.5918C127.361 20.4323 127.63 20.2067 127.857 19.915L128.726 20.7559C128.566 20.9883 128.359 21.2116 128.104 21.4258C127.848 21.6354 127.536 21.8063 127.167 21.9385C126.802 22.0706 126.379 22.1367 125.896 22.1367ZM131.774 16.1826V22H130.127V14.6035H131.679L131.774 16.1826ZM131.48 18.0283L130.947 18.0215C130.952 17.4974 131.025 17.0166 131.166 16.5791C131.312 16.1416 131.512 15.7656 131.768 15.4512C132.027 15.1367 132.337 14.8952 132.697 14.7266C133.057 14.5534 133.458 14.4668 133.9 14.4668C134.256 14.4668 134.577 14.5169 134.864 14.6172C135.156 14.7129 135.404 14.8701 135.609 15.0889C135.819 15.3076 135.979 15.5924 136.088 15.9434C136.197 16.2897 136.252 16.7158 136.252 17.2217V22H134.598V17.2148C134.598 16.8594 134.545 16.5791 134.44 16.374C134.34 16.1644 134.192 16.0163 133.996 15.9297C133.805 15.8385 133.565 15.793 133.278 15.793C132.996 15.793 132.743 15.8522 132.52 15.9707C132.296 16.0892 132.107 16.251 131.952 16.4561C131.802 16.6611 131.686 16.8981 131.604 17.167C131.521 17.4359 131.48 17.723 131.48 18.0283ZM141.324 14.6035V15.8066H137.154V14.6035H141.324ZM138.357 12.792H140.005V19.9561C140.005 20.1839 140.037 20.3594 140.101 20.4824C140.169 20.6009 140.262 20.6807 140.381 20.7217C140.499 20.7627 140.638 20.7832 140.798 20.7832C140.912 20.7832 141.021 20.7764 141.126 20.7627C141.231 20.749 141.315 20.7354 141.379 20.7217L141.386 21.9795C141.249 22.0205 141.09 22.057 140.907 22.0889C140.729 22.1208 140.524 22.1367 140.292 22.1367C139.914 22.1367 139.579 22.0706 139.287 21.9385C138.995 21.8018 138.768 21.5807 138.604 21.2754C138.439 20.9701 138.357 20.5645 138.357 20.0586V12.792ZM149.473 14.6035V15.8066H145.303V14.6035H149.473ZM146.506 12.792H148.153V19.9561C148.153 20.1839 148.185 20.3594 148.249 20.4824C148.317 20.6009 148.411 20.6807 148.529 20.7217C148.648 20.7627 148.787 20.7832 148.946 20.7832C149.06 20.7832 149.17 20.7764 149.274 20.7627C149.379 20.749 149.464 20.7354 149.527 20.7217L149.534 21.9795C149.397 22.0205 149.238 22.057 149.056 22.0889C148.878 22.1208 148.673 22.1367 148.44 22.1367C148.062 22.1367 147.727 22.0706 147.436 21.9385C147.144 21.8018 146.916 21.5807 146.752 21.2754C146.588 20.9701 146.506 20.5645 146.506 20.0586V12.792ZM150.266 18.3838V18.2266C150.266 17.6934 150.343 17.1989 150.498 16.7432C150.653 16.2829 150.876 15.8841 151.168 15.5469C151.464 15.2051 151.824 14.9408 152.248 14.7539C152.676 14.5625 153.16 14.4668 153.697 14.4668C154.24 14.4668 154.723 14.5625 155.146 14.7539C155.575 14.9408 155.937 15.2051 156.233 15.5469C156.53 15.8841 156.755 16.2829 156.91 16.7432C157.065 17.1989 157.143 17.6934 157.143 18.2266V18.3838C157.143 18.917 157.065 19.4115 156.91 19.8672C156.755 20.3229 156.53 20.7217 156.233 21.0635C155.937 21.4007 155.577 21.665 155.153 21.8564C154.729 22.0433 154.249 22.1367 153.711 22.1367C153.169 22.1367 152.683 22.0433 152.255 21.8564C151.831 21.665 151.471 21.4007 151.175 21.0635C150.879 20.7217 150.653 20.3229 150.498 19.8672C150.343 19.4115 150.266 18.917 150.266 18.3838ZM151.913 18.2266V18.3838C151.913 18.7165 151.947 19.0309 152.016 19.3271C152.084 19.6234 152.191 19.8831 152.337 20.1064C152.483 20.3298 152.67 20.5052 152.897 20.6328C153.125 20.7604 153.396 20.8242 153.711 20.8242C154.016 20.8242 154.281 20.7604 154.504 20.6328C154.732 20.5052 154.919 20.3298 155.064 20.1064C155.21 19.8831 155.317 19.6234 155.386 19.3271C155.459 19.0309 155.495 18.7165 155.495 18.3838V18.2266C155.495 17.8984 155.459 17.5885 155.386 17.2969C155.317 17.0007 155.208 16.7386 155.058 16.5107C154.912 16.2829 154.725 16.1051 154.497 15.9775C154.274 15.8454 154.007 15.7793 153.697 15.7793C153.387 15.7793 153.118 15.8454 152.891 15.9775C152.667 16.1051 152.483 16.2829 152.337 16.5107C152.191 16.7386 152.084 17.0007 152.016 17.2969C151.947 17.5885 151.913 17.8984 151.913 18.2266ZM168.688 20.6396V22H163.404V20.6396H168.688ZM163.89 12.0469V22H162.174V12.0469H163.89ZM167.998 16.2031V17.543H163.404V16.2031H167.998ZM168.654 12.0469V13.4141H163.404V12.0469H168.654ZM172.154 20.6943L173.966 14.6035H175.675L173.104 22H172.038L172.154 20.6943ZM170.767 14.6035L172.612 20.7217L172.701 22H171.635L169.051 14.6035H170.767ZM179.858 22.1367C179.312 22.1367 178.817 22.0479 178.375 21.8701C177.938 21.6878 177.564 21.4349 177.254 21.1113C176.949 20.7878 176.714 20.4072 176.55 19.9697C176.386 19.5322 176.304 19.0605 176.304 18.5547V18.2812C176.304 17.7025 176.388 17.1784 176.557 16.709C176.725 16.2396 176.96 15.8385 177.261 15.5059C177.562 15.1686 177.917 14.9111 178.327 14.7334C178.737 14.5557 179.182 14.4668 179.66 14.4668C180.189 14.4668 180.651 14.5557 181.048 14.7334C181.444 14.9111 181.772 15.1618 182.032 15.4854C182.297 15.8044 182.493 16.1849 182.62 16.627C182.752 17.069 182.818 17.5566 182.818 18.0898V18.7939H177.104V17.6113H181.191V17.4814C181.182 17.1852 181.123 16.9072 181.014 16.6475C180.909 16.3877 180.747 16.1781 180.528 16.0186C180.31 15.859 180.018 15.7793 179.653 15.7793C179.38 15.7793 179.136 15.8385 178.922 15.957C178.712 16.071 178.537 16.2373 178.396 16.4561C178.254 16.6748 178.145 16.9391 178.067 17.249C177.994 17.5544 177.958 17.8984 177.958 18.2812V18.5547C177.958 18.8783 178.001 19.179 178.088 19.457C178.179 19.7305 178.311 19.9697 178.484 20.1748C178.658 20.3799 178.867 20.5417 179.113 20.6602C179.359 20.7741 179.64 20.8311 179.954 20.8311C180.351 20.8311 180.704 20.7513 181.014 20.5918C181.324 20.4323 181.592 20.2067 181.82 19.915L182.688 20.7559C182.529 20.9883 182.322 21.2116 182.066 21.4258C181.811 21.6354 181.499 21.8063 181.13 21.9385C180.765 22.0706 180.341 22.1367 179.858 22.1367ZM185.758 16.0117V22H184.11V14.6035H185.683L185.758 16.0117ZM188.021 14.5557L188.007 16.0869C187.907 16.0687 187.797 16.055 187.679 16.0459C187.565 16.0368 187.451 16.0322 187.337 16.0322C187.054 16.0322 186.806 16.0732 186.592 16.1553C186.378 16.2327 186.198 16.3467 186.052 16.4971C185.91 16.6429 185.801 16.8206 185.724 17.0303C185.646 17.2399 185.601 17.4746 185.587 17.7344L185.211 17.7617C185.211 17.2969 185.257 16.8662 185.348 16.4697C185.439 16.0732 185.576 15.7246 185.758 15.4238C185.945 15.123 186.177 14.8883 186.455 14.7197C186.738 14.5511 187.063 14.4668 187.433 14.4668C187.533 14.4668 187.64 14.4759 187.754 14.4941C187.872 14.5124 187.961 14.5329 188.021 14.5557ZM191.322 21.1934L193.332 14.6035H195.096L192.129 23.1279C192.061 23.3102 191.972 23.5085 191.862 23.7227C191.753 23.9368 191.609 24.1396 191.432 24.3311C191.258 24.527 191.042 24.6842 190.782 24.8027C190.522 24.9258 190.208 24.9873 189.839 24.9873C189.693 24.9873 189.552 24.9736 189.415 24.9463C189.283 24.9235 189.158 24.8984 189.039 24.8711L189.032 23.6133C189.078 23.6178 189.132 23.6224 189.196 23.627C189.265 23.6315 189.319 23.6338 189.36 23.6338C189.634 23.6338 189.862 23.5996 190.044 23.5312C190.226 23.4674 190.374 23.3626 190.488 23.2168C190.607 23.071 190.707 22.875 190.789 22.6289L191.322 21.1934ZM190.188 14.6035L191.944 20.1406L192.238 21.877L191.097 22.1709L188.41 14.6035H190.188ZM203.47 18.2881H200.879V16.9277H203.47C203.921 16.9277 204.285 16.8548 204.563 16.709C204.841 16.5632 205.044 16.3626 205.172 16.1074C205.304 15.8477 205.37 15.5514 205.37 15.2188C205.37 14.9043 205.304 14.6104 205.172 14.3369C205.044 14.0589 204.841 13.8356 204.563 13.667C204.285 13.4984 203.921 13.4141 203.47 13.4141H201.405V22H199.689V12.0469H203.47C204.24 12.0469 204.894 12.1836 205.432 12.457C205.974 12.7259 206.386 13.0996 206.669 13.5781C206.951 14.0521 207.093 14.5944 207.093 15.2051C207.093 15.8477 206.951 16.3991 206.669 16.8594C206.386 17.3197 205.974 17.6729 205.432 17.9189C204.894 18.165 204.24 18.2881 203.47 18.2881ZM212.555 20.5166V16.9893C212.555 16.7249 212.507 16.4971 212.411 16.3057C212.315 16.1143 212.17 15.9661 211.974 15.8613C211.782 15.7565 211.541 15.7041 211.249 15.7041C210.98 15.7041 210.748 15.7497 210.552 15.8408C210.356 15.932 210.203 16.055 210.094 16.21C209.984 16.3649 209.93 16.5404 209.93 16.7363H208.289C208.289 16.4447 208.36 16.1621 208.501 15.8887C208.642 15.6152 208.847 15.3714 209.116 15.1572C209.385 14.943 209.706 14.7744 210.08 14.6514C210.454 14.5283 210.873 14.4668 211.338 14.4668C211.894 14.4668 212.386 14.5602 212.814 14.7471C213.247 14.9339 213.587 15.2165 213.833 15.5947C214.084 15.9684 214.209 16.4378 214.209 17.0029V20.291C214.209 20.6283 214.232 20.9313 214.277 21.2002C214.327 21.4645 214.398 21.6947 214.489 21.8906V22H212.801C212.723 21.8223 212.662 21.5967 212.616 21.3232C212.575 21.0452 212.555 20.7764 212.555 20.5166ZM212.794 17.502L212.808 18.5205H211.625C211.32 18.5205 211.051 18.5501 210.818 18.6094C210.586 18.6641 210.392 18.7461 210.237 18.8555C210.082 18.9648 209.966 19.097 209.889 19.252C209.811 19.4069 209.772 19.5824 209.772 19.7783C209.772 19.9743 209.818 20.1543 209.909 20.3184C210 20.4779 210.132 20.6032 210.306 20.6943C210.483 20.7855 210.698 20.8311 210.948 20.8311C211.285 20.8311 211.579 20.7627 211.83 20.626C212.085 20.4847 212.286 20.3138 212.432 20.1133C212.577 19.9082 212.655 19.7145 212.664 19.5322L213.197 20.2637C213.143 20.4505 213.049 20.651 212.917 20.8652C212.785 21.0794 212.612 21.2845 212.397 21.4805C212.188 21.6719 211.935 21.8291 211.639 21.9521C211.347 22.0752 211.01 22.1367 210.627 22.1367C210.144 22.1367 209.713 22.041 209.335 21.8496C208.957 21.6536 208.66 21.3916 208.446 21.0635C208.232 20.7308 208.125 20.3548 208.125 19.9355C208.125 19.5436 208.198 19.1973 208.344 18.8965C208.494 18.5911 208.713 18.3359 209 18.1309C209.292 17.9258 209.647 17.7708 210.066 17.666C210.486 17.5566 210.964 17.502 211.502 17.502H212.794ZM217.593 11.5V22H215.938V11.5H217.593ZM222.187 14.6035L218.967 18.1719L217.203 19.9766L216.772 18.582L218.105 16.9346L220.197 14.6035H222.187ZM220.553 22L218.153 18.5273L219.192 17.3721L222.46 22H220.553ZM224.996 14.6035V22H223.342V14.6035H224.996ZM223.232 12.6621C223.232 12.4115 223.314 12.2041 223.479 12.04C223.647 11.8714 223.88 11.7871 224.176 11.7871C224.467 11.7871 224.698 11.8714 224.866 12.04C225.035 12.2041 225.119 12.4115 225.119 12.6621C225.119 12.9082 225.035 13.1133 224.866 13.2773C224.698 13.4414 224.467 13.5234 224.176 13.5234C223.88 13.5234 223.647 13.4414 223.479 13.2773C223.314 13.1133 223.232 12.9082 223.232 12.6621ZM230.95 19.9971C230.95 19.833 230.909 19.6849 230.827 19.5527C230.745 19.416 230.588 19.293 230.355 19.1836C230.128 19.0742 229.79 18.974 229.344 18.8828C228.952 18.7962 228.592 18.6937 228.264 18.5752C227.94 18.4521 227.662 18.304 227.43 18.1309C227.197 17.9577 227.017 17.7526 226.89 17.5156C226.762 17.2786 226.698 17.0052 226.698 16.6953C226.698 16.3945 226.764 16.1097 226.896 15.8408C227.029 15.5719 227.218 15.335 227.464 15.1299C227.71 14.9248 228.008 14.763 228.359 14.6445C228.715 14.526 229.111 14.4668 229.549 14.4668C230.169 14.4668 230.7 14.5716 231.142 14.7812C231.588 14.9863 231.93 15.2666 232.167 15.6221C232.404 15.973 232.522 16.3695 232.522 16.8115H230.875C230.875 16.6156 230.825 16.4333 230.725 16.2646C230.629 16.0915 230.483 15.9525 230.287 15.8477C230.091 15.7383 229.845 15.6836 229.549 15.6836C229.266 15.6836 229.032 15.7292 228.845 15.8203C228.662 15.9069 228.526 16.0208 228.435 16.1621C228.348 16.3034 228.305 16.4583 228.305 16.627C228.305 16.75 228.327 16.8617 228.373 16.9619C228.423 17.0576 228.505 17.1465 228.619 17.2285C228.733 17.306 228.888 17.3789 229.084 17.4473C229.285 17.5156 229.535 17.5817 229.836 17.6455C230.401 17.764 230.886 17.9167 231.292 18.1035C231.702 18.2858 232.017 18.5228 232.235 18.8145C232.454 19.1016 232.563 19.4661 232.563 19.9082C232.563 20.2363 232.493 20.5371 232.352 20.8105C232.215 21.0794 232.014 21.3141 231.75 21.5146C231.486 21.7106 231.169 21.8633 230.8 21.9727C230.435 22.082 230.025 22.1367 229.569 22.1367C228.899 22.1367 228.332 22.0182 227.867 21.7812C227.402 21.5397 227.049 21.2321 226.808 20.8584C226.571 20.4801 226.452 20.0882 226.452 19.6826H228.045C228.063 19.988 228.147 20.2318 228.298 20.4141C228.453 20.5918 228.644 20.7217 228.872 20.8037C229.104 20.8812 229.344 20.9199 229.59 20.9199C229.886 20.9199 230.134 20.8812 230.335 20.8037C230.535 20.7217 230.688 20.6123 230.793 20.4756C230.898 20.3343 230.95 20.1748 230.95 19.9971ZM237.396 14.6035V15.8066H233.227V14.6035H237.396ZM234.43 12.792H236.077V19.9561C236.077 20.1839 236.109 20.3594 236.173 20.4824C236.241 20.6009 236.335 20.6807 236.453 20.7217C236.572 20.7627 236.711 20.7832 236.87 20.7832C236.984 20.7832 237.093 20.7764 237.198 20.7627C237.303 20.749 237.387 20.7354 237.451 20.7217L237.458 21.9795C237.321 22.0205 237.162 22.057 236.979 22.0889C236.802 22.1208 236.597 22.1367 236.364 22.1367C235.986 22.1367 235.651 22.0706 235.359 21.9385C235.068 21.8018 234.84 21.5807 234.676 21.2754C234.512 20.9701 234.43 20.5645 234.43 20.0586V12.792ZM242.838 20.5166V16.9893C242.838 16.7249 242.79 16.4971 242.694 16.3057C242.599 16.1143 242.453 15.9661 242.257 15.8613C242.065 15.7565 241.824 15.7041 241.532 15.7041C241.263 15.7041 241.031 15.7497 240.835 15.8408C240.639 15.932 240.486 16.055 240.377 16.21C240.268 16.3649 240.213 16.5404 240.213 16.7363H238.572C238.572 16.4447 238.643 16.1621 238.784 15.8887C238.925 15.6152 239.131 15.3714 239.399 15.1572C239.668 14.943 239.99 14.7744 240.363 14.6514C240.737 14.5283 241.156 14.4668 241.621 14.4668C242.177 14.4668 242.669 14.5602 243.098 14.7471C243.531 14.9339 243.87 15.2165 244.116 15.5947C244.367 15.9684 244.492 16.4378 244.492 17.0029V20.291C244.492 20.6283 244.515 20.9313 244.561 21.2002C244.611 21.4645 244.681 21.6947 244.772 21.8906V22H243.084C243.007 21.8223 242.945 21.5967 242.899 21.3232C242.858 21.0452 242.838 20.7764 242.838 20.5166ZM243.077 17.502L243.091 18.5205H241.908C241.603 18.5205 241.334 18.5501 241.102 18.6094C240.869 18.6641 240.675 18.7461 240.521 18.8555C240.366 18.9648 240.249 19.097 240.172 19.252C240.094 19.4069 240.056 19.5824 240.056 19.7783C240.056 19.9743 240.101 20.1543 240.192 20.3184C240.284 20.4779 240.416 20.6032 240.589 20.6943C240.767 20.7855 240.981 20.8311 241.231 20.8311C241.569 20.8311 241.863 20.7627 242.113 20.626C242.368 20.4847 242.569 20.3138 242.715 20.1133C242.861 19.9082 242.938 19.7145 242.947 19.5322L243.48 20.2637C243.426 20.4505 243.332 20.651 243.2 20.8652C243.068 21.0794 242.895 21.2845 242.681 21.4805C242.471 21.6719 242.218 21.8291 241.922 21.9521C241.63 22.0752 241.293 22.1367 240.91 22.1367C240.427 22.1367 239.996 22.041 239.618 21.8496C239.24 21.6536 238.944 21.3916 238.729 21.0635C238.515 20.7308 238.408 20.3548 238.408 19.9355C238.408 19.5436 238.481 19.1973 238.627 18.8965C238.777 18.5911 238.996 18.3359 239.283 18.1309C239.575 17.9258 239.93 17.7708 240.35 17.666C240.769 17.5566 241.247 17.502 241.785 17.502H243.077ZM247.849 16.1826V22H246.201V14.6035H247.753L247.849 16.1826ZM247.555 18.0283L247.021 18.0215C247.026 17.4974 247.099 17.0166 247.24 16.5791C247.386 16.1416 247.587 15.7656 247.842 15.4512C248.102 15.1367 248.411 14.8952 248.771 14.7266C249.132 14.5534 249.533 14.4668 249.975 14.4668C250.33 14.4668 250.651 14.5169 250.938 14.6172C251.23 14.7129 251.479 14.8701 251.684 15.0889C251.893 15.3076 252.053 15.5924 252.162 15.9434C252.271 16.2897 252.326 16.7158 252.326 17.2217V22H250.672V17.2148C250.672 16.8594 250.619 16.5791 250.515 16.374C250.414 16.1644 250.266 16.0163 250.07 15.9297C249.879 15.8385 249.64 15.793 249.353 15.793C249.07 15.793 248.817 15.8522 248.594 15.9707C248.37 16.0892 248.181 16.251 248.026 16.4561C247.876 16.6611 247.76 16.8981 247.678 17.167C247.596 17.4359 247.555 17.723 247.555 18.0283ZM255.771 14.6035V22H254.117V14.6035H255.771ZM254.008 12.6621C254.008 12.4115 254.09 12.2041 254.254 12.04C254.423 11.8714 254.655 11.7871 254.951 11.7871C255.243 11.7871 255.473 11.8714 255.642 12.04C255.81 12.2041 255.895 12.4115 255.895 12.6621C255.895 12.9082 255.81 13.1133 255.642 13.2773C255.473 13.4414 255.243 13.5234 254.951 13.5234C254.655 13.5234 254.423 13.4414 254.254 13.2773C254.09 13.1133 254.008 12.9082 254.008 12.6621ZM262.177 12.0469L264.487 16.7979L266.798 12.0469H268.698L265.349 18.3359V22H263.619V18.3359L260.27 12.0469H262.177ZM268.855 18.3838V18.2266C268.855 17.6934 268.933 17.1989 269.088 16.7432C269.243 16.2829 269.466 15.8841 269.758 15.5469C270.054 15.2051 270.414 14.9408 270.838 14.7539C271.266 14.5625 271.749 14.4668 272.287 14.4668C272.829 14.4668 273.312 14.5625 273.736 14.7539C274.165 14.9408 274.527 15.2051 274.823 15.5469C275.119 15.8841 275.345 16.2829 275.5 16.7432C275.655 17.1989 275.732 17.6934 275.732 18.2266V18.3838C275.732 18.917 275.655 19.4115 275.5 19.8672C275.345 20.3229 275.119 20.7217 274.823 21.0635C274.527 21.4007 274.167 21.665 273.743 21.8564C273.319 22.0433 272.839 22.1367 272.301 22.1367C271.758 22.1367 271.273 22.0433 270.845 21.8564C270.421 21.665 270.061 21.4007 269.765 21.0635C269.468 20.7217 269.243 20.3229 269.088 19.8672C268.933 19.4115 268.855 18.917 268.855 18.3838ZM270.503 18.2266V18.3838C270.503 18.7165 270.537 19.0309 270.605 19.3271C270.674 19.6234 270.781 19.8831 270.927 20.1064C271.073 20.3298 271.259 20.5052 271.487 20.6328C271.715 20.7604 271.986 20.8242 272.301 20.8242C272.606 20.8242 272.87 20.7604 273.094 20.6328C273.322 20.5052 273.508 20.3298 273.654 20.1064C273.8 19.8831 273.907 19.6234 273.976 19.3271C274.049 19.0309 274.085 18.7165 274.085 18.3838V18.2266C274.085 17.8984 274.049 17.5885 273.976 17.2969C273.907 17.0007 273.798 16.7386 273.647 16.5107C273.502 16.2829 273.315 16.1051 273.087 15.9775C272.864 15.8454 272.597 15.7793 272.287 15.7793C271.977 15.7793 271.708 15.8454 271.48 15.9775C271.257 16.1051 271.073 16.2829 270.927 16.5107C270.781 16.7386 270.674 17.0007 270.605 17.2969C270.537 17.5885 270.503 17.8984 270.503 18.2266ZM281.563 20.2568V14.6035H283.218V22H281.659L281.563 20.2568ZM281.796 18.7188L282.35 18.7051C282.35 19.2018 282.295 19.6598 282.186 20.0791C282.076 20.4938 281.908 20.8561 281.68 21.166C281.452 21.4714 281.16 21.7106 280.805 21.8838C280.449 22.0524 280.023 22.1367 279.526 22.1367C279.166 22.1367 278.836 22.0843 278.535 21.9795C278.234 21.8747 277.975 21.7129 277.756 21.4941C277.542 21.2754 277.375 20.9906 277.257 20.6396C277.138 20.2887 277.079 19.8695 277.079 19.3818V14.6035H278.727V19.3955C278.727 19.6644 278.758 19.89 278.822 20.0723C278.886 20.25 278.973 20.3936 279.082 20.5029C279.191 20.6123 279.319 20.6898 279.465 20.7354C279.611 20.7809 279.766 20.8037 279.93 20.8037C280.399 20.8037 280.768 20.7126 281.037 20.5303C281.311 20.3434 281.504 20.0928 281.618 19.7783C281.737 19.4639 281.796 19.1107 281.796 18.7188ZM288.297 14.6035V15.8066H284.127V14.6035H288.297ZM285.33 12.792H286.978V19.9561C286.978 20.1839 287.009 20.3594 287.073 20.4824C287.142 20.6009 287.235 20.6807 287.354 20.7217C287.472 20.7627 287.611 20.7832 287.771 20.7832C287.884 20.7832 287.994 20.7764 288.099 20.7627C288.203 20.749 288.288 20.7354 288.352 20.7217L288.358 21.9795C288.222 22.0205 288.062 22.057 287.88 22.0889C287.702 22.1208 287.497 22.1367 287.265 22.1367C286.886 22.1367 286.551 22.0706 286.26 21.9385C285.968 21.8018 285.74 21.5807 285.576 21.2754C285.412 20.9701 285.33 20.5645 285.33 20.0586V12.792ZM291.195 11.5V22H289.555V11.5H291.195ZM290.908 18.0283L290.375 18.0215C290.38 17.5111 290.45 17.0394 290.587 16.6064C290.728 16.1735 290.924 15.7975 291.175 15.4785C291.43 15.1549 291.735 14.9066 292.091 14.7334C292.446 14.5557 292.84 14.4668 293.273 14.4668C293.638 14.4668 293.966 14.5169 294.258 14.6172C294.554 14.7174 294.809 14.8792 295.023 15.1025C295.238 15.3213 295.399 15.6084 295.509 15.9639C295.623 16.3148 295.68 16.7432 295.68 17.249V22H294.025V17.2354C294.025 16.8799 293.973 16.5973 293.868 16.3877C293.768 16.1781 293.62 16.0277 293.424 15.9365C293.228 15.8408 292.989 15.793 292.706 15.793C292.41 15.793 292.148 15.8522 291.92 15.9707C291.697 16.0892 291.51 16.251 291.359 16.4561C291.209 16.6611 291.095 16.8981 291.018 17.167C290.945 17.4359 290.908 17.723 290.908 18.0283Z" fill="#088E48"/>
</svg>
