<svg width="52" height="52" viewBox="0 0 52 52" fill="none" xmlns="http://www.w3.org/2000/svg">
<path d="M0 26C0 11.6406 11.6406 0 26 0C40.3594 0 52 11.6406 52 26C52 40.3594 40.3594 52 26 52C11.6406 52 0 40.3594 0 26Z" fill="url(#paint0_linear_405_980)"/>
<mask id="mask0_405_980" style="mask-type:alpha" maskUnits="userSpaceOnUse" x="12" y="12" width="28" height="28">
<rect x="12" y="12" width="28" height="28" fill="#D9D9D9"/>
</mask>
<g mask="url(#mask0_405_980)">
<path d="M35.2751 30.6084L33.4667 28.8001C34.3223 28.0028 34.9931 27.0598 35.4792 25.9709C35.9654 24.882 36.2084 23.7251 36.2084 22.5001C36.2084 21.2751 35.9654 20.1278 35.4792 19.0584C34.9931 17.9889 34.3223 17.0556 33.4667 16.2584L35.2751 14.3917C36.364 15.4223 37.2292 16.6376 37.8709 18.0376C38.5126 19.4376 38.8334 20.9251 38.8334 22.5001C38.8334 24.0751 38.5126 25.5626 37.8709 26.9626C37.2292 28.3626 36.364 29.5778 35.2751 30.6084ZM31.5417 26.8751L29.6751 25.0084C30.0251 24.6778 30.307 24.3035 30.5209 23.8855C30.7348 23.4674 30.8417 23.0056 30.8417 22.5001C30.8417 21.9945 30.7348 21.5327 30.5209 21.1146C30.307 20.6966 30.0251 20.3223 29.6751 19.9917L31.5417 18.1251C32.164 18.6889 32.6501 19.3452 33.0001 20.0938C33.3501 20.8424 33.5251 21.6445 33.5251 22.5001C33.5251 23.3556 33.3501 24.1577 33.0001 24.9063C32.6501 25.6549 32.164 26.3112 31.5417 26.8751ZM22.5001 27.1667C21.2167 27.1667 20.1181 26.7098 19.2042 25.7959C18.2904 24.882 17.8334 23.7834 17.8334 22.5001C17.8334 21.2167 18.2904 20.1181 19.2042 19.2042C20.1181 18.2903 21.2167 17.8334 22.5001 17.8334C23.7834 17.8334 24.882 18.2903 25.7959 19.2042C26.7098 20.1181 27.1667 21.2167 27.1667 22.5001C27.1667 23.7834 26.7098 24.882 25.7959 25.7959C24.882 26.7098 23.7834 27.1667 22.5001 27.1667ZM13.1667 36.5001V33.2334C13.1667 32.5917 13.332 31.9889 13.6626 31.4251C13.9931 30.8612 14.4501 30.4334 15.0334 30.1417C16.0251 29.6362 17.1431 29.2084 18.3876 28.8584C19.632 28.5084 21.0029 28.3334 22.5001 28.3334C23.9973 28.3334 25.3681 28.5084 26.6126 28.8584C27.857 29.2084 28.9751 29.6362 29.9667 30.1417C30.5501 30.4334 31.007 30.8612 31.3376 31.4251C31.6681 31.9889 31.8334 32.5917 31.8334 33.2334V36.5001H13.1667ZM15.5001 34.1667H29.5001V33.2334C29.5001 33.0195 29.4466 32.8251 29.3397 32.6501C29.2327 32.4751 29.0917 32.3389 28.9167 32.2417C28.2167 31.8917 27.3174 31.5417 26.2188 31.1917C25.1202 30.8417 23.8806 30.6667 22.5001 30.6667C21.1195 30.6667 19.8799 30.8417 18.7813 31.1917C17.6827 31.5417 16.7834 31.8917 16.0834 32.2417C15.9084 32.3389 15.7674 32.4751 15.6605 32.6501C15.5536 32.8251 15.5001 33.0195 15.5001 33.2334V34.1667ZM22.5001 24.8334C23.1417 24.8334 23.6911 24.6049 24.148 24.148C24.6049 23.691 24.8334 23.1417 24.8334 22.5001C24.8334 21.8584 24.6049 21.3091 24.148 20.8521C23.6911 20.3952 23.1417 20.1667 22.5001 20.1667C21.8584 20.1667 21.3091 20.3952 20.8522 20.8521C20.3952 21.3091 20.1667 21.8584 20.1667 22.5001C20.1667 23.1417 20.3952 23.691 20.8522 24.148C21.3091 24.6049 21.8584 24.8334 22.5001 24.8334Z" fill="white"/>
</g>
<defs>
<linearGradient id="paint0_linear_405_980" x1="0" y1="0" x2="52" y2="52" gradientUnits="userSpaceOnUse">
<stop stop-color="#00BC7D"/>
<stop offset="1" stop-color="#2B7FFF"/>
</linearGradient>
</defs>
</svg>
