<svg width="60" height="60" viewBox="0 0 60 60" fill="none" xmlns="http://www.w3.org/2000/svg">
<path d="M0 30C0 13.4315 13.4315 0 30 0C46.5685 0 60 13.4315 60 30C60 46.5685 46.5685 60 30 60C13.4315 60 0 46.5685 0 30Z" fill="#088E48"/>
<mask id="mask0_427_2749" style="mask-type:alpha" maskUnits="userSpaceOnUse" x="14" y="14" width="32" height="32">
<rect x="14" y="14" width="32" height="32" fill="#D9D9D9"/>
</mask>
<g mask="url(#mask0_427_2749)">
<path d="M27.7 30C27.0778 30 26.5667 29.7667 26.1667 29.3C25.7667 28.8333 25.6222 28.2889 25.7333 27.6667L26.1333 25.2667C26.3111 24.3111 26.7611 23.5278 27.4833 22.9167C28.2056 22.3056 29.0444 22 30 22C30.9778 22 31.8278 22.3056 32.55 22.9167C33.2722 23.5278 33.7222 24.3111 33.9 25.2667L34.3 27.6667C34.4111 28.2889 34.2667 28.8333 33.8667 29.3C33.4667 29.7667 32.9556 30 32.3333 30H27.7ZM28.5 27.3333H31.5333L31.2667 25.7C31.2222 25.3889 31.0778 25.1389 30.8333 24.95C30.5889 24.7611 30.3111 24.6667 30 24.6667C29.6889 24.6667 29.4167 24.7611 29.1833 24.95C28.95 25.1389 28.8111 25.3889 28.7667 25.7L28.5 27.3333ZM18.1333 31.3C17.6222 31.3222 17.1833 31.2222 16.8167 31C16.45 30.7778 16.2111 30.4333 16.1 29.9667C16.0556 29.7667 16.0444 29.5667 16.0667 29.3667C16.0889 29.1667 16.1444 28.9778 16.2333 28.8C16.2333 28.8222 16.2222 28.7778 16.2 28.6667C16.1556 28.6222 16.0444 28.3556 15.8667 27.8667C15.8222 27.6 15.8556 27.3444 15.9667 27.1C16.0778 26.8556 16.2222 26.6444 16.4 26.4667L16.4667 26.4C16.5111 25.9778 16.6833 25.6222 16.9833 25.3333C17.2833 25.0444 17.6556 24.9 18.1 24.9C18.1667 24.9 18.3778 24.9444 18.7333 25.0333L18.8333 25C18.9444 24.8889 19.0889 24.8056 19.2667 24.75C19.4444 24.6944 19.6333 24.6667 19.8333 24.6667C20.0778 24.6667 20.2944 24.7056 20.4833 24.7833C20.6722 24.8611 20.8222 24.9778 20.9333 25.1333C20.9556 25.1333 20.9722 25.1389 20.9833 25.15C20.9944 25.1611 21.0111 25.1667 21.0333 25.1667C21.3444 25.1889 21.6167 25.2833 21.85 25.45C22.0833 25.6167 22.2556 25.8444 22.3667 26.1333C22.4111 26.2889 22.4278 26.4389 22.4167 26.5833C22.4056 26.7278 22.3778 26.8667 22.3333 27C22.3333 27.0222 22.3444 27.0667 22.3667 27.1333C22.5222 27.2889 22.6444 27.4611 22.7333 27.65C22.8222 27.8389 22.8667 28.0333 22.8667 28.2333C22.8667 28.3222 22.8 28.5556 22.6667 28.9333C22.6444 28.9778 22.6444 29.0222 22.6667 29.0667L22.7333 29.6C22.7333 30.0667 22.5389 30.4667 22.15 30.8C21.7611 31.1333 21.2889 31.3 20.7333 31.3H18.1333ZM40.6667 31.3333C39.9333 31.3333 39.3056 31.0722 38.7833 30.55C38.2611 30.0278 38 29.4 38 28.6667C38 28.4 38.0389 28.15 38.1167 27.9167C38.1944 27.6833 38.3 27.4556 38.4333 27.2333L37.5 26.4C37.2778 26.2222 37.2389 26 37.3833 25.7333C37.5278 25.4667 37.7333 25.3333 38 25.3333H40.6667C41.4 25.3333 42.0278 25.5944 42.55 26.1167C43.0722 26.6389 43.3333 27.2667 43.3333 28V28.6667C43.3333 29.4 43.0722 30.0278 42.55 30.55C42.0278 31.0722 41.4 31.3333 40.6667 31.3333ZM14 38V35.9C14 34.9222 14.4944 34.1389 15.4833 33.55C16.4722 32.9611 17.7556 32.6667 19.3333 32.6667C19.6222 32.6667 19.9 32.6722 20.1667 32.6833C20.4333 32.6944 20.6889 32.7222 20.9333 32.7667C20.6222 33.2111 20.3889 33.6889 20.2333 34.2C20.0778 34.7111 20 35.2556 20 35.8333V38H14ZM22 38V35.8333C22 34.3889 22.7389 33.2222 24.2167 32.3333C25.6944 31.4444 27.6222 31 30 31C32.4 31 34.3333 31.4444 35.8 32.3333C37.2667 33.2222 38 34.3889 38 35.8333V38H22ZM40.6667 32.6667C42.2667 32.6667 43.5556 32.9611 44.5333 33.55C45.5111 34.1389 46 34.9222 46 35.9V38H40V35.8333C40 35.2556 39.9278 34.7111 39.7833 34.2C39.6389 33.6889 39.4222 33.2111 39.1333 32.7667C39.3778 32.7222 39.6278 32.6944 39.8833 32.6833C40.1389 32.6722 40.4 32.6667 40.6667 32.6667ZM30 33.6667C28.7333 33.6667 27.6 33.8333 26.6 34.1667C25.6 34.5 25.0111 34.8889 24.8333 35.3333H35.2C35 34.8889 34.4056 34.5 33.4167 34.1667C32.4278 33.8333 31.2889 33.6667 30 33.6667Z" fill="white"/>
</g>
</svg>
