<svg width="60" height="60" viewBox="0 0 60 60" fill="none" xmlns="http://www.w3.org/2000/svg">
<path d="M0 30C0 13.4315 13.4315 0 30 0C46.5685 0 60 13.4315 60 30C60 46.5685 46.5685 60 30 60C13.4315 60 0 46.5685 0 30Z" fill="#088E48"/>
<mask id="mask0_427_2739" style="mask-type:alpha" maskUnits="userSpaceOnUse" x="14" y="14" width="32" height="32">
<rect x="14" y="14" width="32" height="32" fill="#D9D9D9"/>
</mask>
<g mask="url(#mask0_427_2739)">
<path d="M23.3333 42V39.3333H28.6667V35.2C27.5778 34.9556 26.6056 34.4944 25.75 33.8167C24.8944 33.1389 24.2667 32.2889 23.8667 31.2667C22.2 31.0667 20.8056 30.3389 19.6833 29.0833C18.5611 27.8278 18 26.3556 18 24.6667V23.3333C18 22.6 18.2611 21.9722 18.7833 21.45C19.3056 20.9278 19.9333 20.6667 20.6667 20.6667H23.3333V18H36.6667V20.6667H39.3333C40.0667 20.6667 40.6944 20.9278 41.2167 21.45C41.7389 21.9722 42 22.6 42 23.3333V24.6667C42 26.3556 41.4389 27.8278 40.3167 29.0833C39.1944 30.3389 37.8 31.0667 36.1333 31.2667C35.7333 32.2889 35.1056 33.1389 34.25 33.8167C33.3944 34.4944 32.4222 34.9556 31.3333 35.2V39.3333H36.6667V42H23.3333ZM23.3333 28.4V23.3333H20.6667V24.6667C20.6667 25.5111 20.9111 26.2722 21.4 26.95C21.8889 27.6278 22.5333 28.1111 23.3333 28.4ZM30 32.6667C31.1111 32.6667 32.0556 32.2778 32.8333 31.5C33.6111 30.7222 34 29.7778 34 28.6667V20.6667H26V28.6667C26 29.7778 26.3889 30.7222 27.1667 31.5C27.9444 32.2778 28.8889 32.6667 30 32.6667ZM36.6667 28.4C37.4667 28.1111 38.1111 27.6278 38.6 26.95C39.0889 26.2722 39.3333 25.5111 39.3333 24.6667V23.3333H36.6667V28.4Z" fill="white"/>
</g>
</svg>
