<svg width="60" height="60" viewBox="0 0 60 60" fill="none" xmlns="http://www.w3.org/2000/svg">
<path d="M0 30C0 13.4315 13.4315 0 30 0C46.5685 0 60 13.4315 60 30C60 46.5685 46.5685 60 30 60C13.4315 60 0 46.5685 0 30Z" fill="#088E48"/>
<mask id="mask0_427_2692" style="mask-type:alpha" maskUnits="userSpaceOnUse" x="14" y="14" width="32" height="32">
<rect x="14" y="14" width="32" height="32" fill="#D9D9D9"/>
</mask>
<g mask="url(#mask0_427_2692)">
<path d="M37.9999 32.6668V28.6668H33.9999V26.0002H37.9999V22.0002H40.6666V26.0002H44.6666V28.6668H40.6666V32.6668H37.9999ZM25.9999 30.0002C24.5333 30.0002 23.2777 29.4779 22.2333 28.4335C21.1888 27.3891 20.6666 26.1335 20.6666 24.6668C20.6666 23.2002 21.1888 21.9446 22.2333 20.9002C23.2777 19.8557 24.5333 19.3335 25.9999 19.3335C27.4666 19.3335 28.7221 19.8557 29.7666 20.9002C30.811 21.9446 31.3333 23.2002 31.3333 24.6668C31.3333 26.1335 30.811 27.3891 29.7666 28.4335C28.7221 29.4779 27.4666 30.0002 25.9999 30.0002ZM15.3333 40.6668V36.9335C15.3333 36.1779 15.5277 35.4835 15.9166 34.8502C16.3055 34.2168 16.8221 33.7335 17.4666 33.4002C18.8444 32.7113 20.2444 32.1946 21.6666 31.8502C23.0888 31.5057 24.5333 31.3335 25.9999 31.3335C27.4666 31.3335 28.911 31.5057 30.3333 31.8502C31.7555 32.1946 33.1555 32.7113 34.5333 33.4002C35.1777 33.7335 35.6944 34.2168 36.0833 34.8502C36.4721 35.4835 36.6666 36.1779 36.6666 36.9335V40.6668H15.3333ZM17.9999 38.0002H33.9999V36.9335C33.9999 36.6891 33.9388 36.4668 33.8166 36.2668C33.6944 36.0668 33.5333 35.9113 33.3333 35.8002C32.1333 35.2002 30.9221 34.7502 29.6999 34.4502C28.4777 34.1502 27.2444 34.0002 25.9999 34.0002C24.7555 34.0002 23.5221 34.1502 22.2999 34.4502C21.0777 34.7502 19.8666 35.2002 18.6666 35.8002C18.4666 35.9113 18.3055 36.0668 18.1833 36.2668C18.061 36.4668 17.9999 36.6891 17.9999 36.9335V38.0002ZM25.9999 27.3335C26.7333 27.3335 27.361 27.0724 27.8833 26.5502C28.4055 26.0279 28.6666 25.4002 28.6666 24.6668C28.6666 23.9335 28.4055 23.3057 27.8833 22.7835C27.361 22.2613 26.7333 22.0002 25.9999 22.0002C25.2666 22.0002 24.6388 22.2613 24.1166 22.7835C23.5944 23.3057 23.3333 23.9335 23.3333 24.6668C23.3333 25.4002 23.5944 26.0279 24.1166 26.5502C24.6388 27.0724 25.2666 27.3335 25.9999 27.3335Z" fill="white"/>
</g>
</svg>
