<svg width="40" height="40" viewBox="0 0 40 40" fill="none" xmlns="http://www.w3.org/2000/svg">
<mask id="mask0_142_529" style="mask-type:alpha" maskUnits="userSpaceOnUse" x="0" y="0" width="40" height="40">
<path d="M0 0H40V40H0V0Z" fill="#D9D9D9"/>
</mask>
<g mask="url(#mask0_142_529)">
<path d="M9.41675 16.7083L12.6667 18.0833C13.0556 17.3055 13.4584 16.5555 13.8751 15.8333C14.2917 15.111 14.7501 14.3888 15.2501 13.6666L12.9167 13.2083L9.41675 16.7083ZM15.3334 20.1666L20.0834 24.8749C21.2501 24.4305 22.5001 23.7499 23.8334 22.8333C25.1667 21.9166 26.4167 20.8749 27.5834 19.7083C29.5279 17.7638 31.0487 15.6041 32.1459 13.2291C33.2431 10.8541 33.7223 8.6666 33.5834 6.6666C31.5834 6.52771 29.389 7.00688 27.0001 8.1041C24.6112 9.20132 22.4445 10.7222 20.5001 12.6666C19.3334 13.8333 18.2917 15.0833 17.3751 16.4166C16.4584 17.7499 15.7779 18.9999 15.3334 20.1666ZM22.7501 17.4583C22.1112 16.8194 21.7917 16.0347 21.7917 15.1041C21.7917 14.1735 22.1112 13.3888 22.7501 12.7499C23.389 12.111 24.1806 11.7916 25.1251 11.7916C26.0695 11.7916 26.8612 12.111 27.5001 12.7499C28.139 13.3888 28.4584 14.1735 28.4584 15.1041C28.4584 16.0347 28.139 16.8194 27.5001 17.4583C26.8612 18.0972 26.0695 18.4166 25.1251 18.4166C24.1806 18.4166 23.389 18.0972 22.7501 17.4583ZM23.5417 30.8333L27.0417 27.3333L26.5834 24.9999C25.8612 25.4999 25.139 25.9513 24.4167 26.3541C23.6945 26.7569 22.9445 27.1527 22.1667 27.5416L23.5417 30.8333ZM36.5834 3.62493C37.1112 6.98604 36.7848 10.2569 35.6042 13.4374C34.4237 16.618 32.389 19.6527 29.5001 22.5416L30.3334 26.6666C30.4445 27.2222 30.4167 27.7638 30.2501 28.2916C30.0834 28.8194 29.8056 29.2777 29.4167 29.6666L22.4167 36.6666L18.9167 28.4583L11.7917 21.3333L3.58341 17.8333L10.5417 10.8333C10.9306 10.4444 11.3959 10.1666 11.9376 9.99993C12.4792 9.83327 13.0279 9.80549 13.5834 9.9166L17.7084 10.7499C20.5973 7.86104 23.6251 5.81938 26.7917 4.62493C29.9584 3.43049 33.2223 3.09715 36.5834 3.62493ZM6.54175 26.6249C7.51397 25.6527 8.70147 25.1597 10.1042 25.1458C11.507 25.1319 12.6945 25.611 13.6667 26.5833C14.639 27.5555 15.1181 28.743 15.1042 30.1458C15.0904 31.5485 14.5973 32.736 13.6251 33.7083C12.9306 34.4027 11.7709 34.9999 10.1459 35.4999C8.52091 35.9999 6.27786 36.4444 3.41675 36.8333C3.80564 33.9722 4.25008 31.7291 4.75008 30.1041C5.25008 28.4791 5.8473 27.3194 6.54175 26.6249ZM8.91675 28.9583C8.63897 29.236 8.36119 29.743 8.08341 30.4791C7.80564 31.2152 7.61119 31.9583 7.50008 32.7083C8.25008 32.5972 8.99314 32.4097 9.72925 32.1458C10.4654 31.8819 10.9723 31.611 11.2501 31.3333C11.5834 30.9999 11.764 30.5972 11.7917 30.1249C11.8195 29.6527 11.6667 29.2499 11.3334 28.9166C11.0001 28.5833 10.5973 28.4235 10.1251 28.4374C9.65286 28.4513 9.25008 28.6249 8.91675 28.9583Z" fill="white"/>
</g>
</svg>
